<svg xmlns="http://www.w3.org/2000/svg" viewBox="0 0 383.83 304.59"><defs><style>.cls-1{fill:#b6c4fe;}.cls-2{fill:#e2e8fe;}.cls-3{fill:#e5eafe;}.cls-4{fill:#f0f3fe;}.cls-5{fill:#2626bb;}.cls-6{fill:#dfe5fe;}.cls-7{fill:#b9c6fe;}.cls-8{fill:#dce3fe;}.cls-9{fill:#6583fd;}.cls-10{fill:#d8e0fe;}.cls-11{fill:#bbc9fe;}.cls-12{fill:#d6defe;}.cls-13{fill:#d2dbfe;}.cls-14{fill:#e9e9f7;}.cls-15{fill:#bbc8fe;}.cls-16{fill:#becbfe;}.cls-17{fill:#c3cffe;}.cls-18{fill:#e9eefe;}.cls-19{fill:#ebeffe;}.cls-20{fill:#d9e1fe;}.cls-21{fill:#e6ecfe;}.cls-22{fill:#eef2fe;}.cls-23{fill:#dbe3fe;}.cls-24{fill:#c8d3fe;}.cls-25{fill:#d3dcfe;}.cls-26{fill:#d1dafe;}.cls-27{fill:#ced8fe;}.cls-28{fill:#cbd5fe;}.cls-29{fill:#cdd4fa;}.cls-30{fill:#fefefe;}.cls-31{fill:#6582fd;}.cls-32{fill:#cad0f7;}.cls-33{fill:#c1c9f7;}.cls-34{fill:#bec7f7;}.cls-35{fill:#c6cef7;}.cls-36{fill:#c4ccf7;}.cls-37{fill:#ccd2f7;}.cls-38{fill:#bbc4f7;}.cls-39{fill:#f7f9fe;}.cls-40{fill:#fafafe;}.cls-41{fill:#2727bc;}</style></defs><g id="Layer_2" data-name="Layer 2"><g id="Layer_1-2" data-name="Layer 1"><path class="cls-1" d="M1.51,222.77C.57,221.14,1.33,219,0,217.52V192c2.1-5.21,2.07-10.86,3.45-16.25,5.44-21.23,17.05-38.27,34.3-51.54a6.16,6.16,0,0,0,2.83-5.55c-.09-14.47,0-28.94,0-43.41,0-1.33-.39-2.76.54-4,2,1.94,1.34,4.45,1.34,6.74q.06,71,0,142c0,4.74,0,9.49,0,14.24,0,1.61.09,3.27-.9,4.7-2.55.55-2-1.63-2.09-2.73a58.46,58.46,0,0,1-.07-8.78c-.08-5.21-.12-10.41,0-15.61.09-4.81.28-9.62-.1-15-5.79,4.47-11.32,8.42-16.65,12.63-5.57,4.4-11.59,8.18-17.16,12.58C4.36,222.94,3.11,224,1.51,222.77Z"/><path class="cls-2" d="M383.83,113.31v8.25a12.22,12.22,0,0,1-4.83,5.92c-10.27,7.39-20.25,15.19-30.42,22.72-1.6,1.18-3.12,3-5.57,1.92-1.23-4.53-.59-9.12-.39-13.68.07-1.73,1.43-2.85,2.74-3.84,11.23-8.43,22.35-17,33.63-25.39,1.21-.9,2.47-2.31,4.3-1.1C383.8,109.81,383,111.65,383.83,113.31Z"/><path class="cls-3" d="M343.39,152.3c7.17-3.82,13.09-9.39,19.61-14.11,5.42-3.93,10.64-8.16,16.16-11.94,1.93-1.32,2.77-3.49,4.67-4.69v9.74c-1.24,1-.55,2.49-.76,3.75-11.62,9.2-23.54,18-35.49,26.8-1.52,1.12-3.26,2.82-5,.09C342.48,158.69,341.41,155.37,343.39,152.3Z"/><path class="cls-4" d="M383.83,113.31c-1.43-1.58-.45-3.51-.76-5.25a.45.45,0,0,1-.17-.51c.07-.16.13-.25.2-.25h.73Z"/><path class="cls-5" d="M41.09,239.23q0-28.8.07-57.6,0-52.93.1-105.86c0-1.49-.11-3-.17-4.47C42,59.92,49.52,52.79,61,52.78q84.44-.06,168.88,0a29.68,29.68,0,0,1,4,.55c1.84.69,2.43,2.1,2.3,3.94-.52,2.68-2.39,3.62-4.87,3.75-1.5.08-3,0-4.5,0H64.92a26.55,26.55,0,0,0-7.43.69,10.48,10.48,0,0,0-5.33,3.31c-2.33,2.76-2.23,4.27.64,6.52Q64,80.39,75.32,89q54.17,41.45,108.21,83.05c9.25,7.1,7.95,6.8,16.67.11q31.82-24.4,63.6-48.85c3.09-2.37,3-2.33.1-5.28-17.23-17.53-22.42-38-15.21-61.62,3.27-8.36,7.52-16.13,13.94-22.55,7.24-6,14.76-11.4,24-13.91,2.18-.59,4.42-.48,6.57-1,11.95-1.78,23.5-.61,34.59,4.44,8.43,3.84,15.19,9.78,21.33,16.54,5.91,5.42,8.48,12.66,10.88,20,.5,1.53.76,3.13,1.21,4.68a11.29,11.29,0,0,1,.33,2.31,12.59,12.59,0,0,0,.55,4.09,31.25,31.25,0,0,1,.26,6.19,64.3,64.3,0,0,1-3,16.32c-.34,1.11-.76,2.19-1.16,3.27-4.48,10.25-10.71,19.14-20,25.69-18.48,13.13-38.18,14.83-58.84,5.94-3.05-1.31-5.13-1.22-7.76.84-9.71,7.64-19.58,15.08-29.33,22.67-3.23,2.52-3.28,2.86.07,5.43q22,16.91,43.95,33.76,22.1,17,44.26,34a12,12,0,0,0,3.08,2.05c.78-1.47.41-2.86.41-4.18q0-40.63,0-81.27c0-5.17.66-6.2,4.38-7.51a5.19,5.19,0,0,1,2.66.49A3.28,3.28,0,0,1,343,138a24.84,24.84,0,0,0,0,3c.59,25.54,1,51.09.57,76.64-.13,7.18-.37,14.4-.82,21.59-.38,3.78-2,7.06-4,10.22-.58,2.37-2.24,3.77-4.27,4.92a24.41,24.41,0,0,1-12.17,3.28q-76.78,0-153.59,0c-10.46,0-20.92.19-31.37-.05-6,.13-12,.11-18.06,0-5.27,0-10.54.15-15.82,0-7.44.06-14.88.17-22.32,0-6.72.08-13.44.13-20.15,0-6.26-.56-11.87-2.57-16.26-7.3-1-1.62-2.41-3-3-4.91C41.28,243.36,39.89,241.42,41.09,239.23Z"/><path class="cls-6" d="M342.72,239.25q0-49.24,0-98.5c0-2.3.11-4.56-2.35-5.82-1.85-1.05-.71-2.24.1-3,6.26-5.72,10.13-13,13.73-20.5,7.29-5,14.33-10.37,21.28-15.85a16.72,16.72,0,0,1,5.38-3.3c2,4.82,1.21,10,2.26,15l0,.76c-4.94,2-8.58,5.84-12.78,8.86-8.17,5.86-16,12.16-24.09,18.16-2,1.48-3,3.06-2.89,5.61.19,3.87.07,7.74.08,11.61v10.5c2.1,3.83.79,8,1.06,12,.13,4.5.11,9,0,13.52.16,5,.11,10,0,15.05.22,5.44,0,10.89.09,16.33a9.1,9.1,0,0,1-1.13,4.63C342.94,229.26,344.17,234.32,342.72,239.25Z"/><path class="cls-7" d="M293.23,18.94C281.76,21.39,272,27,263.13,34.57c-4.11,2-7.52,5-11.19,7.68-4.45,3.22-8.65,6.78-13.31,9.69-.94.58-2.3,2.25-3.26-.15,5.88-12.69,15.12-22.06,28.09-27.33A74.91,74.91,0,0,1,293.23,18.94Z"/><path class="cls-8" d="M380.84,92.31c-4.19,4.12-9.08,7.38-13.75,10.87-4,3-7.76,6.59-12.49,8.63-.9-4.15,1.1-7.87,1.87-11.76.23-1.16.72-2.33,1-3.52l.95-2.73a116.63,116.63,0,0,1,17.37-13.55,1.53,1.53,0,0,1,2,.07A43.19,43.19,0,0,1,380.84,92.31Z"/><path class="cls-9" d="M247.83,0a10.46,10.46,0,0,1,10.91,10.76,10.79,10.79,0,0,1-10.57,10.9,11.24,11.24,0,0,1-11.08-10.94A10.8,10.8,0,0,1,247.83,0Z"/><path class="cls-10" d="M377.82,80.32c-5.19,2-8.92,6.13-13.27,9.33-2,1.48-4.24,2.55-6.13,4.15a96.88,96.88,0,0,0,3-16.48C364.17,75,367.15,73,370,70.84c1-.73,1.93-1.64,3.34-1C375.7,73,376.73,76.65,377.82,80.32Z"/><path class="cls-11" d="M235.37,51.79c1.47,1.6,2.29-.26,3-.8,6.32-4.52,12.49-9.27,18.82-13.79,1.73-1.23,3.26-3.29,5.9-2.63a73.42,73.42,0,0,0-13.56,21.79c-4.6,1.94-9.35,1.09-14.06.73a5.17,5.17,0,0,0-1.61-3.75Z"/><path class="cls-9" d="M213.75,24.74c-1.43,1.91-2.25,3.19-3.24,4.3-1.85,2.07-4.09,3.3-6.4.9-2.15-2.25-.85-4.3,1-6.12s3.75-3.66,5.56-5.55c2-2.13,4.11-2.15,6.19-.16s4.27,4.2,6.35,6.34c1.71,1.75,2.2,3.78.33,5.61s-3.88,1.46-5.6-.36C216.73,28.37,215.59,26.91,213.75,24.74Z"/><path class="cls-12" d="M373.36,69.82c-3.25,1.54-5.76,4.14-8.69,6.14-1,.71-1.92,1.52-3.27,1.36l-.12-6.56c-.68-1.23.07-2.67-.57-3.91-.08-.68-.16-1.35-.25-2,1.27-3.12,4.33-4,6.89-5.51A29.47,29.47,0,0,1,373.36,69.82Z"/><path class="cls-13" d="M367.35,59.31c-1.64,2.65-4.64,3.61-6.89,5.51a70.74,70.74,0,0,0-11.31-24.9c5.35,2.58,8.7,7.37,12.59,11.51A27.13,27.13,0,0,1,367.35,59.31Z"/><path class="cls-14" d="M168.68,256.55c1.61-.06,3.23-.17,4.85-.17q73.69,0,147.38.05c7,0,13-1.79,17.81-7,0,4.82,1,9.78-1.66,14.26-3.36,5.54-8.58,7.74-14.8,7.74q-61.63.06-123.27,0l-52.08,0a.91.91,0,0,1,0-1C154,265.53,160.72,260.11,168.68,256.55Z"/><path class="cls-15" d="M1.51,222.77c3.88-.44,6-3.65,8.92-5.65,9.47-6.54,18.64-13.5,27.61-20.71.57-.47,1.25-1,2-.69s.43,1.32.43,2c0,4.36,0,8.71,0,13.07-1.18,2.2-3.46,3.19-5.3,4.62-8.73,6.83-17.67,13.38-26.55,20-1.77,1.32-3.63,2.68-4.81-.66C2.82,230.81,1.51,226.91,1.51,222.77Z"/><path class="cls-16" d="M3.79,234.77c1.21,1.73,2.27,1.54,3.92.25,9.36-7.27,18.83-14.41,28.31-21.54a50.69,50.69,0,0,1,4.43-2.69v16.5c-1.28,2.25-3.57,3.4-5.5,4.91-7.32,5.73-14.76,11.29-22.07,17-1.06.82-2.08,2.37-3.85,1.26A72,72,0,0,1,3.79,234.77Z"/><path class="cls-17" d="M9,250.5c5.94-2.89,10.25-8,15.66-11.59s10.11-8.29,15.76-11.62c.41,4-.75,8,.64,11.94.5,2,1,4,1.51,6.06-8,7.13-16.67,13.38-25.39,19.57-.18.12-.48,0-.71-.11A56.21,56.21,0,0,1,9,250.5Z"/><path class="cls-18" d="M343.4,188.28V174.79c11-8.64,22.3-16.88,33.47-25.3,1.34-1,2.72-2.3,4.7-1.69-1.09,5.28-1.73,10.67-3.73,15.74a9.54,9.54,0,0,1-3.22,3.52c-9.23,6.12-17.81,13.11-26.67,19.74C346.63,187.79,345.44,189.42,343.4,188.28Z"/><path class="cls-19" d="M343.4,188.28c4.68-1.62,7.83-5.45,11.73-8.19,7.65-5.39,15.15-11,22.71-16.55-.78,6.1-3.41,11.63-5.31,17.39-.23.7-.47,1.4-.7,2.1-8.1,6.63-16.55,12.8-24.84,19.18-1,.76-2,2.11-3.59,1.07Z"/><path class="cls-20" d="M91.46,297.73c-6.19,1.49-12.48.79-18.74.74-.4-1.89,1.07-2.7,2.23-3.51,8.46-5.95,16.36-12.65,24.86-18.54,2.48-1.72,4.17-4.27,6.83-5.71a95.69,95.69,0,0,1,15.33,0c2.42,1.19,1.29,2.59.09,3.78a60.62,60.62,0,0,1-5.57,4.38C108.24,285.27,99.83,291.48,91.46,297.73Z"/><path class="cls-21" d="M381.57,147.8c-6.21,3.18-11.32,7.89-16.85,12-6.43,4.79-12.77,9.7-19.2,14.5a5.41,5.41,0,0,1-2.12.47c0-4,0-8,0-12,4.4-1,7.38-4.33,10.79-6.84,8.93-6.59,17.65-13.49,26.44-20.28a3.74,3.74,0,0,1,2.46-.63Q382.32,141.43,381.57,147.8Z"/><path class="cls-12" d="M105.71,271.5c-.42,2.33-2.3,3.38-4,4.62q-13.56,10-27.06,20.12a13.93,13.93,0,0,0-1.94,2.23c-4.32-.36-8.65-.61-12.75-2.22-.18-2.76,2.14-3.75,3.79-5.07C71,285.31,78.66,279.91,86,274.11c1.45-1.14,2.42-2.9,4.34-3.45,4.1-.41,8.2-.16,12.3-.18A3.72,3.72,0,0,1,105.71,271.5Z"/><path class="cls-22" d="M343.4,203.28c5.63-2.67,9.79-7.37,14.85-10.82,4.55-3.11,8.45-7.15,13.58-9.43-4.38,10.33-9.49,20.28-16.47,29.12-3.52,4.47-7,9-11.95,12.14Q343.41,213.78,343.4,203.28Z"/><path class="cls-23" d="M91.46,297.73c4.55-5.58,10.83-9.05,16.38-13.4,4.49-3.53,9.1-6.89,13.66-10.34A3.1,3.1,0,0,0,123,271.5a2,2,0,0,1,1.23-.77,153.3,153.3,0,0,1,20.78,0,2,2,0,0,1,1.23.77l-15,10.4c-.77.59-1.43.07-2-.31-2.19-1.39-4-.65-5.76.86-2.74,2.35-4.89,5.25-7.39,7.83-7,2.54-13.89,5.66-21.33,7C93.65,297.45,92.55,297.57,91.46,297.73Z"/><path class="cls-24" d="M16.5,264.75c8.66-6.54,16.88-13.67,26.1-19.46l2.5,4.21a13.57,13.57,0,0,1,.67,8.3,3.5,3.5,0,0,1-1.59,2c-5.82,4-11.29,8.41-17,12.54-1.17.85-2.26,2-4,1.46A31.59,31.59,0,0,1,16.5,264.75Z"/><path class="cls-25" d="M89.21,271.5c-.71,3.19-3.78,4.14-5.9,5.85-6.47,5.19-13.24,10-19.81,15.09A30.52,30.52,0,0,0,60,296.25c-3.93-.72-7.87-1.43-11.26-3.74-.08-1.61,1-2.44,2.14-3.27,8-6.2,16.34-12.1,24.25-18.51a66,66,0,0,1,13,0A2.53,2.53,0,0,1,89.21,271.5Z"/><path class="cls-9" d="M164,304.58a10.76,10.76,0,0,1-11-10.78,10.85,10.85,0,1,1,21.69.05A10.7,10.7,0,0,1,164,304.58Z"/><path class="cls-26" d="M74.22,271.5c0,1.43-1,2.15-2,2.91C65.23,279.6,58.35,284.86,51.35,290c-1,.76-1.67,1.8-2.64,2.54a31.43,31.43,0,0,1-9-4.51,4.34,4.34,0,0,1,1.85-2.7c6.14-5,12.67-9.52,18.74-14.63C65,270.73,69.7,269.45,74.22,271.5Z"/><path class="cls-27" d="M59.23,271.5c0,1.57-1.17,2.45-2.24,3.24C51.15,279,45.25,283.27,39.73,288a31.52,31.52,0,0,1-9-6.73c.89-2.79,3.7-3.49,5.64-5.12,4-3.34,8.13-6.45,12.4-9.41,3,.51,5.28,2.79,8.23,3.42A4.39,4.39,0,0,1,59.23,271.5Z"/><path class="cls-28" d="M48.73,267c-3.45,4.36-8.59,6.67-12.59,10.37a49.65,49.65,0,0,1-5.44,3.9,43.87,43.87,0,0,1-7.48-7.5c6.32-3.85,11.87-8.75,17.86-13a8.38,8.38,0,0,1,3.89-2c2,2.08,2.63,4.88,4.05,7.26A1.14,1.14,0,0,1,48.73,267Z"/><path class="cls-9" d="M329.45,290.33a2.68,2.68,0,0,1-2.34-1c-3.09-4.66-6.09-4.23-9.12,0a1.5,1.5,0,0,1-.62.41,3.61,3.61,0,0,1-4.48-.45,3.26,3.26,0,0,1-.4-4.72,111.08,111.08,0,0,1,7.86-7.94,3.08,3.08,0,0,1,4.15-.17,43.55,43.55,0,0,1,8.33,8.5C334.48,287.47,332.42,290.46,329.45,290.33Z"/><path class="cls-9" d="M116.06,290.28c1.63-4.57,5.47-7.25,9-10.06,2.37-1.9,4.33.31,6.18,1.68,1.8,1.9,3.6,3.8,5.38,5.71,1.49,1.58,1.77,3.3.27,5s-3.87,2.11-5.24.33c-3.31-4.32-5.85-4.05-9.34,0C120.09,295.46,117.56,294.14,116.06,290.28Z"/><path class="cls-29" d="M89.21,271.5h-.75c.5-2.25,2.42-1.79,3.88-1.85,3.7-.14,7.41-.17,11.12,0,6-.12,12-.17,18.05,0,6.84-.2,13.67-.1,20.51-.08,1.71,0,3.53-.21,4.93,1.18,0,.24,0,.48,0,.72l-.72,0h-57Z"/><path class="cls-30" d="M235.51,57.09c4.61-1.58,9.38-.39,14.06-.73-3.09,10.45-4.11,21-1.63,31.75a56.8,56.8,0,0,0,18.33,30.62c1.68,1.47,2.53,2.14.14,4Q231.1,149.6,196,176.78c-3,2.33-5.25,2.22-8.26-.1Q119.51,124.09,51.09,71.75c-2.41-1.84-2.43-3.35-1.08-5.57,1.69-2.8,4-4.85,7.25-5.43a34.78,34.78,0,0,1,6-.47q83,0,166,0C231.86,60.26,234.66,60.61,235.51,57.09Z"/><path class="cls-30" d="M191.64,248.87q-64.83,0-129.66,0c-4.94,0-9.11-1.27-11.83-5.72-1.39-2.29-1.52-3.92,1-5.88Q96.46,202.78,141.54,168c2.87-2.21,5.9-4.24,8.57-6.67,2.15-2,3.61-1.54,5.7.1,9.33,7.32,18.77,14.5,28.2,21.69,5.52,4.21,10.18,4.3,15.68.14,9.35-7.09,18.69-14.2,27.9-21.47,2.38-1.87,3.91-2.24,6.6-.16q49,37.95,98.32,75.52c2.69,2.06,2.63,3.74,1.08,6.17-2.71,4.25-6.74,5.56-11.54,5.55q-30.92-.06-61.84,0Z"/><path class="cls-30" d="M48.81,229.62V79.36l24.62,18.9q35.32,27.13,70.69,54.25c1.72,1.32,2.79,2,.3,3.94q-47,35.93-93.87,72C50.16,228.77,49.73,229,48.81,229.62Z"/><path class="cls-31" d="M254.1,75.31a49.86,49.86,0,1,1,99.71.4c-.05,27.39-22.66,49.67-50.34,49.61A49.59,49.59,0,0,1,254.1,75.31Z"/><path class="cls-30" d="M338.09,134.86c-2.88,1-2.91,3.35-2.91,5.81q0,42.14,0,84.27v4.16c-1.57.21-2.3-1-3.2-1.69q-46-35.31-92.07-70.63c-2.33-1.78-2.57-2.51-.06-4.39,11.18-8.38,22.2-17,33.28-25.5,1.17-.9,2.07-1.75,3.9-.83,21.23,10.69,41.6,8.79,61.12-4.47.25,0,.61,0,.71.1C340.84,124.49,340.37,132.05,338.09,134.86Z"/><path class="cls-32" d="M147,270.75h-25.5c-1.06-2.14.84-2.81,2-3.7,4.52-3.58,9.27-6.87,13.76-10.51h31.49C161.54,261.45,154.55,266.57,147,270.75Z"/><path class="cls-33" d="M81,256.54h22.48c.57,2-.78,3-2,4-4,3.18-8.15,6.12-12.13,9.29a6.66,6.66,0,0,1-4.52,1.29c-6.33-.06-12.67,0-19,0-2.18-2-.1-3,1-3.92C71.43,263.52,76.18,260,81,256.54Z"/><path class="cls-34" d="M81,256.54c-1.44,3.42-5.14,4.32-7.49,6.71-2.62,2.66-6.82,3.56-8.26,7.5a19.94,19.94,0,0,1-8.25,0c-3.23-.19-5.65-2.17-8.24-3.76,0-.25,0-.5,0-.74,1-2.48,3.47-3.3,5.31-4.83s4.05-3.13,5.92-4.88Z"/><path class="cls-35" d="M137.19,256.54c-.41,2.94-3.28,3.48-5.06,5-3,2.56-6.25,4.74-9.44,7.05a2.58,2.58,0,0,0-1.24,2.13h-18c-1.07-2,.53-3.07,1.69-3.95,4.63-3.49,9.28-6.95,14-10.26Z"/><path class="cls-36" d="M119.19,256.54c-3,4.31-7.78,6.45-11.75,9.57-1.65,1.29-3.57,2.3-4,4.64-5,.46-10.07-.95-15,.74H59.23c-.83,0-1.72.13-2.26-.75h8.25c6.24,0,12.47-.06,18.7,0a6.93,6.93,0,0,0,5.25-2,121,121,0,0,1,11.49-8.86,8,8,0,0,0,2.79-3.35Z"/><path class="cls-37" d="M338.09,134.86a24.81,24.81,0,0,0,.07-13.27,63.47,63.47,0,0,0,19.31-25.06,63.06,63.06,0,0,1-2.87,15.28,50.61,50.61,0,0,1-13.22,20.37c-.77.7-1.94,1.36-1,2.75Z"/><path class="cls-38" d="M60,256.54c-1.52,4.21-6,5.26-8.78,8.07a15,15,0,0,1-2.45,1.64,14.14,14.14,0,0,1-3.77-7.5c0-3.08.08-6.17.13-9.25A22.4,22.4,0,0,0,60,256.54Z"/><path class="cls-13" d="M360.71,66.85c1.09,1.17.51,2.59.57,3.91A7.11,7.11,0,0,1,360.71,66.85Z"/><path class="cls-39" d="M248.31,7.51a3,3,0,0,1,2.92,3.36,3,3,0,0,1-3.33,3.18,3.15,3.15,0,0,1-3.2-3.41C244.77,8.69,246,7.47,248.31,7.51Z"/><path class="cls-40" d="M163.82,290.41c1.94.38,3.31,1.37,3.3,3.43a3.3,3.3,0,0,1-6.6,0C160.54,291.8,162,290.81,163.82,290.41Z"/><path class="cls-9" d="M266.44,208.52c3.61,0,7.22,0,10.83,0,3.1,0,4.59,1.52,4.59,4.58V228c0,3.07-1.56,4.54-4.64,4.53q-11.21,0-22.41,0c-3.13,0-4.54-1.46-4.5-4.57q.09-7.47,0-14.94c0-3.15,1.5-4.55,4.55-4.54C258.72,208.54,262.58,208.52,266.44,208.52Z"/><path class="cls-5" d="M196.73,232.57c-11.48,0-23,0-34.45,0-2.7,0-5.38-.26-5.46-3.58-.09-3.52,2.62-4,5.51-4q34.81.06,69.64,0c2.07,0,4,.06,5.15,2.2a3.31,3.31,0,0,1-.2,3.54c-1.09,1.76-2.82,1.78-4.61,1.78Q214.52,232.55,196.73,232.57Z"/><path class="cls-41" d="M223.57,209.89c3.24,0,6.48,0,9.72,0,2.51,0,4.2,1.18,4.2,3.71s-1.8,3.74-4.23,3.76q-9.9.07-19.81,0c-2.42,0-4.2-1.22-4.19-3.79s1.71-3.69,4.21-3.68C216.84,209.9,220.2,209.89,223.57,209.89Z"/><path class="cls-30" d="M280.31,94.81a15.73,15.73,0,0,1,2.42-6.24c5.66-8.89,5.33-17.59-.15-26.37a20.11,20.11,0,0,1-1.35-3.07c-.79-2-1.7-4,.14-5.91s3.87-.95,5.83-.12l31.28,13.35c4,1.71,8,3.41,12,5.14,1.79.77,3.31,1.79,3.2,4.09-.09,2.09-1.51,3-3.17,3.76q-22.15,9.48-44.34,18.9C282.87,99.74,280.33,98.29,280.31,94.81Z"/></g></g></svg>