<svg xmlns="http://www.w3.org/2000/svg" viewBox="0 0 351.67 408.71"><defs><style>.cls-1{fill:#fe4e61;}.cls-2{fill:#5c73bb;}.cls-3{fill:#fea900;}.cls-4{fill:#fecf2f;}.cls-5{fill:#62d28f;}.cls-6{fill:#2ec371;}.cls-7{fill:#feaa01;}.cls-8{fill:#5c73bc;}.cls-9{fill:#feab04;}.cls-10{fill:#5d74bc;}.cls-11{fill:#feaa02;}.cls-12{fill:#fe4f62;}.cls-13{fill:#2ec472;}</style></defs><g id="Layer_2" data-name="Layer 2"><g id="Layer_1-2" data-name="Layer 1"><path class="cls-1" d="M206.58,408.71c-2.62-1.62-4.24-3.62-4.17-7,.89-46.36,18.12-84.76,55.09-113.55a104.62,104.62,0,0,1,11.28-7.44c3.53-2.09,6.88-1.24,8.65,1.79s.85,6.1-2.8,8.35a123.65,123.65,0,0,0-51.82,62.56,128,128,0,0,0-8.4,44.7c0,4-.19,8-3.85,10.64Z"/><path class="cls-2" d="M173.12,408.71c-3.05-2.23-3.86-5.32-3.85-9,.06-28.77,0-57.53.06-86.3a17.25,17.25,0,0,1,.57-4.7,5.2,5.2,0,0,1,5.71-3.93,5.42,5.42,0,0,1,5.34,4.51,16.2,16.2,0,0,1,.2,3.56c0,29.17,0,58.33.06,87.49,0,3.65-.9,6.47-4.11,8.34Z"/><path class="cls-3" d="M140.46,408.71c-3.1-2-4-4.8-4.07-8.42-.28-21.39-4.83-41.79-14.79-60.85-.79-1.52-1.71-3.08-1.57-4.86a5.58,5.58,0,0,1,4.45-5.45c3.16-.73,5.41.76,6.88,3.48a137.21,137.21,0,0,1,10.51,25.28,164.51,164.51,0,0,1,6.48,41.95c.13,3.74-.76,6.72-3.91,8.87Z"/><path class="cls-4" d="M223.25,177c-.11,2.15-1.44,4.06-3.18,5.8-4.42,4.39-8.77,8.87-13.23,13.22-2.47,2.4-3.56,5-2.85,8.55,1.22,6.11,2.1,12.28,3.11,18.42.56,3.37.76,6.65-2.38,9.06s-6.21,1.16-9.23-.51c-5.11-2.81-10.32-5.45-15.36-8.39a8.81,8.81,0,0,0-9.7,0c-5.27,3.05-10.72,5.81-16,8.79-2.74,1.53-5.49,2.26-8.21.31s-3.46-4.73-2.82-8.09c1.22-6.37,2.12-12.81,3.28-19.19a9.39,9.39,0,0,0-2.86-9c-4.46-4.36-8.75-8.89-13.25-13.21-2.55-2.44-3.76-5.17-2.64-8.56,1-3.15,3.59-4.26,6.74-4.68,6.3-.85,12.55-2,18.85-2.88a8.09,8.09,0,0,0,6.66-5c2.79-5.87,5.61-11.72,8.38-17.59,1.39-2.94,3.33-5.28,6.82-5.24s5.39,2.39,6.78,5.33c2.76,5.88,5.64,11.7,8.4,17.58a7.93,7.93,0,0,0,6.67,4.9c6.56.87,13.1,1.94,19.63,3A7.19,7.19,0,0,1,223.25,177Z"/><path class="cls-4" d="M123.7,299.81c-.15,2.08-1.57,3.59-3.93,4.43-4,1.43-7.94,3-11.93,4.39a7.07,7.07,0,0,0-5,5.62c-.9,4.27-2.13,8.47-3.21,12.7-.56,2.2-1.68,3.9-4.06,4.38s-3.81-.68-5.09-2.37c-2.56-3.38-5.17-6.72-7.65-10.16-1.78-2.46-3.94-3.71-7.09-3.39-4.08.4-8.2.5-12.29.8-2.32.17-4.32-.46-5.45-2.51a5.49,5.49,0,0,1,.51-6c2.16-3.18,4.1-6.52,6.4-9.59a9.28,9.28,0,0,0,1-10.38c-1.5-3.24-2.51-6.7-3.83-10-.94-2.37-1.27-4.67.58-6.7s4-1.63,6.26-.91c3.4,1.09,6.91,1.89,10.24,3.16,3.85,1.47,6.83.59,9.72-2.2s5.88-4.95,8.79-7.46c1.66-1.44,3.44-2,5.48-1a5,5,0,0,1,2.92,4.82c.08,4.37.18,8.75.24,13.13a7.87,7.87,0,0,0,4.1,7.18c3.64,2.18,7.08,4.66,10.64,7A5.32,5.32,0,0,1,123.7,299.81Z"/><path class="cls-4" d="M351.67,248.75a5.64,5.64,0,0,1-1.42,3.65c-1.49,2-2.76,4.3-4.55,6-5.38,5.11-5.83,10.78-2.82,17.26a40.75,40.75,0,0,1,2.47,7.95c1,4.32-2.22,7.32-6.46,6-3.78-1.21-7.54-2.54-11.18-4.09s-6.53-1.25-9.52,1.35c-2.79,2.43-5.93,4.45-8.87,6.71-1.77,1.35-3.51,2.38-5.81,1.25s-3.06-3.06-3-5.54c.14-4.38,0-8.76.24-13.13a7.34,7.34,0,0,0-3.54-7c-3.39-2.31-6.58-4.91-9.89-7.35-1.84-1.36-3-3.08-2.57-5.42A5.41,5.41,0,0,1,289,252.1c4.07-1.17,8.11-2.44,12.17-3.63a6.94,6.94,0,0,0,5.11-5c1.23-4.19,2.64-8.33,3.92-12.5.72-2.34,2.05-4.14,4.55-4.44s3.88,1.2,5.11,3.12c2.21,3.46,4.6,6.82,6.81,10.27a7.74,7.74,0,0,0,7.32,3.85c4.23-.14,8.48-.07,12.72,0C350,243.78,351.43,245.71,351.67,248.75Z"/><path class="cls-5" d="M238.12,93.12c-3.22.07-5.8-4.9-3.36-9.4,3.86-7.12,7.94-14.1,12-21.13Q262.4,35.11,278.1,7.64c3.09-5.41,6.07-7,9.53-5s3.8,5.45.81,10.71Q267,51,245.51,88.7C244.09,91.21,242.3,92.86,238.12,93.12Z"/><path class="cls-2" d="M117.09,87.23c-.33,2.92-1.79,5-4.47,5.64a5.89,5.89,0,0,1-6.72-3.09c-3.06-5.28-6.07-10.59-9.09-15.89Q79.63,43.82,62.49,13.75a26.11,26.11,0,0,1-2.12-4.27,5.3,5.3,0,0,1,2.26-6.6,5.26,5.26,0,0,1,7.22.76,16.41,16.41,0,0,1,2.29,3.23q21.61,37.85,43.2,75.69A11.61,11.61,0,0,1,117.09,87.23Z"/><path class="cls-3" d="M350.67,110.65a7.77,7.77,0,0,1-2.56,5.25q-30.75,31.66-61.51,63.32c-3,3.1-6.64,3.43-9.12,1.08s-2.34-6.15.85-9.44q30.57-31.55,61.19-63.07c2.09-2.16,4.41-3.49,7.42-2.34C349.24,106.32,350.35,108.26,350.67,110.65Z"/><path class="cls-1" d="M75,178.49a6.06,6.06,0,0,1-3,4.87,5.38,5.38,0,0,1-6-.12,20,20,0,0,1-3-2.65q-30-30.84-59.93-61.72a14.38,14.38,0,0,1-2.26-2.75,5.44,5.44,0,0,1,.74-7,5.44,5.44,0,0,1,7.26-.83,15.63,15.63,0,0,1,3,2.61q29.85,30.7,59.66,61.42C73.23,174.1,74.85,175.84,75,178.49Z"/><path class="cls-2" d="M281.33,372.89c-8.6,0-15.72-7.4-15.72-16.24s7.28-16.27,15.78-16.32S297.48,348,297.3,356.9A16.11,16.11,0,0,1,281.33,372.89Z"/><path class="cls-4" d="M214,44.78c-.08,9.11-6.89,16-15.75,16s-15.76-7.25-15.62-16.53a15.73,15.73,0,0,1,16-15.77C207.39,28.57,214.07,35.66,214,44.78Z"/><path class="cls-1" d="M278.53,109.05A12.81,12.81,0,0,1,291,122.32a13,13,0,0,1-12.66,12.77c-6.88,0-12.81-6.12-12.72-13.17A12.86,12.86,0,0,1,278.53,109.05Z"/><path class="cls-5" d="M34.59,360.33a12.64,12.64,0,0,1-12.7,12.56A12.84,12.84,0,0,1,9.35,359.68c.25-7.23,6.21-13.14,13-12.89C29.41,347,34.73,352.93,34.59,360.33Z"/><path class="cls-1" d="M167.66,13A12.85,12.85,0,0,1,155,26.16c-6.85,0-12.68-6.16-12.57-13.27A13,13,0,0,1,155,0,12.79,12.79,0,0,1,167.66,13Z"/><path class="cls-2" d="M69.73,230.34c-.07,7.38-5.58,12.88-12.8,12.77s-12.42-5.84-12.28-13.3a12.4,12.4,0,0,1,12.6-12.56C64.44,217.28,69.79,222.89,69.73,230.34Z"/><path class="cls-6" d="M22.52,208.81a5.47,5.47,0,0,1-1.37,4c-2.62,2.8-5.21,5.66-8,8.22a5.24,5.24,0,0,1-7.55,0c-2.47-2.24-3-5.12-.73-7.78a104,104,0,0,1,8.25-8.55,5.12,5.12,0,0,1,6.28-.65A5.85,5.85,0,0,1,22.52,208.81Z"/><path class="cls-1" d="M94.1,382.79a7.5,7.5,0,0,1-1.93,4.33c-2.25,2.41-4.53,4.83-7,7.08-2.61,2.42-6,2.49-8.23.41-2.47-2.24-2.66-5.69-.18-8.5s4.92-5.19,7.52-7.63a5.3,5.3,0,0,1,6.25-1C92.89,378.55,93.78,380.49,94.1,382.79Z"/><path class="cls-7" d="M63.06,76.45a6.52,6.52,0,0,1-1.79,4.41c-2.34,2.53-4.68,5.06-7.22,7.37-2.73,2.48-5.86,2.41-8.2.15s-2.55-5.48-.18-8.2a107.64,107.64,0,0,1,7.8-7.9,5.23,5.23,0,0,1,6.27-.8A6,6,0,0,1,63.06,76.45Z"/><path class="cls-1" d="M173.69,92.82a7.34,7.34,0,0,1-1.83,4.3c-2.35,2.51-4.7,5-7.22,7.36s-6.13,2.33-8.22.1c-2.32-2.46-2.47-5.34-.32-7.88a88.78,88.78,0,0,1,8-8.22,5.21,5.21,0,0,1,6.27-.75A6.29,6.29,0,0,1,173.69,92.82Z"/><path class="cls-7" d="M329.92,370.19c-4.51-.13-7.45-5-5.12-8.63a39.05,39.05,0,0,1,9.32-9.66c2.08-1.6,4.56-1.26,6.63.34s3,4.22,1.79,6.38a30.3,30.3,0,0,1-11,11.14A5.49,5.49,0,0,1,329.92,370.19Z"/><path class="cls-8" d="M342.89,67.09a4.16,4.16,0,0,1-1.08,3,116.64,116.64,0,0,1-8.26,8.52,5.3,5.3,0,0,1-7.84-.34,5.39,5.39,0,0,1-.21-7.86,107.36,107.36,0,0,1,7.73-8,5.42,5.42,0,0,1,6.61-.86C341.88,62.61,342.89,64.4,342.89,67.09Z"/><path class="cls-1" d="M111.44,26.14c-2.34-.33-4.22-1.12-5.32-3.21a5.06,5.06,0,0,1,.38-6A98.56,98.56,0,0,1,115,8.16,5.16,5.16,0,0,1,122,8.07c2.16,1.66,3.41,4.12,1.9,6.62a34.73,34.73,0,0,1-10.31,10.77A7.48,7.48,0,0,1,111.44,26.14Z"/><path class="cls-9" d="M246.1,218.3a6.14,6.14,0,0,1-5.86-5.85,6.32,6.32,0,0,1,5.81-5.94,6.07,6.07,0,0,1,5.95,6.12A5.87,5.87,0,0,1,246.1,218.3Z"/><path class="cls-10" d="M110.23,214.68a5.85,5.85,0,0,1-11.69.37,6.3,6.3,0,0,1,5.92-6.21A6,6,0,0,1,110.23,214.68Z"/><path class="cls-11" d="M90.36,194.51a5.89,5.89,0,1,1,.07,11.78,5.92,5.92,0,0,1-5.76-5.83A6,6,0,0,1,90.36,194.51Z"/><path class="cls-10" d="M175.37,273.55a5.84,5.84,0,0,1,0,11.67,5.93,5.93,0,0,1-6-6A6.1,6.1,0,0,1,175.37,273.55Z"/><path class="cls-11" d="M175.39,265a6.09,6.09,0,0,1-6-5.67,5.91,5.91,0,0,1,5.62-6,5.83,5.83,0,1,1,.37,11.65Z"/><path class="cls-12" d="M260.3,192.17a6.22,6.22,0,0,1,5.62,6.14,5.81,5.81,0,1,1-11.61-.44A6,6,0,0,1,260.3,192.17Z"/><path class="cls-11" d="M136.79,137.4a5.81,5.81,0,0,1-.55-11.61,5.6,5.6,0,0,1,6,5.49A5.86,5.86,0,0,1,136.79,137.4Z"/><path class="cls-11" d="M229.94,114a5.69,5.69,0,0,1-5.71,5.89,5.82,5.82,0,0,1-5.8-5.81,5.58,5.58,0,0,1,5.68-5.83A5.68,5.68,0,0,1,229.94,114Z"/><path class="cls-12" d="M132.41,113.89a6.11,6.11,0,0,1-5.63,6,5.81,5.81,0,1,1,5.63-6Z"/><path class="cls-13" d="M220.06,131.54A5.82,5.82,0,0,1,214,137.4a6.15,6.15,0,0,1-5.65-6,5.88,5.88,0,0,1,11.76.14Z"/></g></g></svg>