<svg xmlns="http://www.w3.org/2000/svg" viewBox="0 0 348.43 384"><defs><style>.cls-1{fill:#8fa2ff;}</style></defs><g id="Layer_2" data-name="Layer 2"><g id="Layer_1-2" data-name="Layer 1"><path class="cls-1" d="M175,0c4.63.91,9.35,1.52,13.89,2.77,24.92,6.83,40.38,23.84,49.73,47.08,7.74,19.22,9.68,39.45,9.1,59.94-.29,10.32-1.43,20.61-2.22,31.44,1.54,0,3.38-.07,5.22,0,8.86.39,17.73.61,26.56,1.35,3.13.26,6.26,1.61,9.21,2.88A5,5,0,0,1,289.4,152a5.75,5.75,0,0,1-5.8,4.43,5.32,5.32,0,0,1-1.13-.05c-15.82-3.28-31.89-2.07-47.84-2.4-33.24-.67-66.5-1.51-99.72-.8-22,.48-44,3.52-66.07,5.44-4.11.36-8.19,1.07-12.3,1.24-15.31.63-25.81,8.29-32.32,21.83C18.59,193.39,16.54,206,16,218.75c-.82,20.48-1.09,41-1.62,61.46-.23,9-.83,18-.68,27,.2,11.77,2.65,23,9.3,33.06,7,10.61,17.48,14.37,29.28,14.48,15.35.14,30.71-.65,46.06-1.1,27.73-.83,55.47-2.7,83.18-2.21,20.13.36,40.22,3.74,60.31,5.93,4.37.48,6.2,2.89,6,6.69s-2.28,5.56-6.81,5.76c-48.56,2.15-97.11,5.06-145.76,4.16-15.46-.28-31-1.18-46.35-2.8-27.61-2.91-41.63-19.9-47.1-45-2.36-10.84-2.15-21.8-1-32.82.7-6.82.62-13.72.88-20.59C2.18,259.47,3.05,246.23,3,233c0-8.18-1.68-16.33-2.23-24.52C-.23,193.64,2,179.29,8.9,166c8.89-17.14,23.16-26.37,42.38-27.92,10.08-.81,20.17-1.6,30.28-2.17,2.56-.15,3.52-.91,3.47-3.49-.19-10.24-.08-20.49-.41-30.73-.52-16.15-1-32.4,4.54-47.83C99.88,23.76,122,7.14,153,1.61,156.34,1,159.66.53,163,0Zm56.38,140.29c-.32-5.89-.6-11.12-.89-16.35-1.06-18.86-3.28-37.54-8.91-55.66-4.16-13.38-10-25.86-20.41-35.67-12.46-11.79-27.6-15-44.28-14.08C125.49,20.36,100.44,44,98.55,75.38c-1.17,19.41-.61,38.93-.8,58.41a2,2,0,0,0,.24.8Z"/><path class="cls-1" d="M300.22,384a17.88,17.88,0,0,0-2.06-.8c-9.64-2.46-14.58-9.61-13.65-19.79.81-8.86,8-15.61,17.2-16.22,11.56-.76,19.57,4.89,20.82,14.69a19.33,19.33,0,0,1-13.95,21.2,25,25,0,0,0-2.36.92Z"/><path class="cls-1" d="M302.1,198.52c27.35-.54,59.16,33.17,41,67-4.86,9.05-11.57,16.53-18.85,23.61a28.63,28.63,0,0,1-2.73,2.56c-7.19,5.34-11.62,11.82-11.24,21.42.21,5.49-2,7.53-5.62,7.95-3.4.4-6.16-.77-6.94-4.23A127.86,127.86,0,0,1,294.78,300a20.16,20.16,0,0,1,5.09-14.87c6.35-7.55,12.81-15,18.88-22.79,4.87-6.22,9.09-12.94,9.33-21.23.53-18-18.46-32.32-35.61-27-13.28,4.15-21,13.86-22.31,27.94-.44,4.92-2.79,7.27-6.93,7-4-.31-5.82-2.82-5.72-7.67C258,218.35,278.78,198.39,302.1,198.52Z"/><path class="cls-1" d="M134.73,271.65c-11.18,0-19.18-8.16-19.19-19.48,0-9.79,9.47-19.55,19-19.55,11.31,0,19.62,7.92,19.62,18.71C154.13,263,145.8,271.69,134.73,271.65Z"/><path class="cls-1" d="M78,233.74c10.61-.25,18,6.89,18.22,17.57.22,11-6.92,19.12-17,19.4C67.63,271,58.85,263.47,58.55,253,58.23,242,66.22,234,78,233.74Z"/><path class="cls-1" d="M191.64,233.82c11.46-.07,19.91,8,19.82,18.9-.08,10.36-8.05,17.94-19,18-10.6.07-18.25-7.89-18.25-19C174.26,241.12,181.29,233.87,191.64,233.82Z"/></g></g></svg>