<svg xmlns="http://www.w3.org/2000/svg" viewBox="0 0 383.89 383.88"><defs><style>.cls-1{fill:#dce2f9;}.cls-2{fill:#6d7dd0;}</style></defs><g id="Layer_2" data-name="Layer 2"><g id="Layer_1-2" data-name="Layer 1"><path class="cls-1" d="M383.89,64.48V319.4A59.4,59.4,0,0,1,378,343c-10.09,20.34-26,33.66-47.94,39.62-3.47.94-7.14.46-10.65,1.22H64.48A59.65,59.65,0,0,1,40.85,378Q10.28,362.9,1.23,330.05C.28,326.58.76,322.91,0,319.4V64.48c.52-7.2,1.66-14.24,4.64-20.92Q19.11,11.22,53.11,1.39C56.81.32,60.73.78,64.48,0H319.41c7.2.52,14.24,1.66,20.92,4.64q32.34,14.47,42.17,48.47C383.58,56.81,383.11,60.73,383.89,64.48Z"/><path class="cls-2" d="M264.08,188.83c.26-12.94-9-22.13-20.74-20.85-2.94.32-3.45-.88-3.48-3.57-.12-9.35.76-18.73-.6-28.06C235.94,113.44,215.42,96,191.88,96c-23.37,0-43.9,17.49-47.24,40.14-1.35,9.21-.59,18.46-.57,27.69,0,3.57-1.12,4.26-4.4,4.22-12.24-.14-19.69,7.33-19.7,19.45q0,40.49,0,81c0,11.94,7.48,19.45,19.38,19.46q26.24,0,52.48,0h52.1c12.7,0,20-7.29,20-20C263.93,241.55,263.56,215.18,264.08,188.83Zm-61.4,38.62a7.36,7.36,0,0,0-2.67,6.43c.15,4.24.11,8.48,0,12.72-.11,5.75-3.22,9.2-8.12,9.18s-7.92-3.48-8.06-9.25c0-2.36,0-4.73,0-7.1,0-.87,0-1.75,0-2.62.19-4-.18-7.25-3.67-10.53-6.29-5.9-5.41-16.31.86-22.08a16.15,16.15,0,0,1,22.57.83A15.54,15.54,0,0,1,202.68,227.45ZM221.09,168c-9.73-.05-19.46,0-29.19,0-9.49,0-19-.09-28.45.05-2.65,0-3.81-.45-3.66-3.44.41-8.34-.44-16.7.56-25,1.86-15.36,15.62-27.48,31.46-27.64s29.88,12.19,31.73,27.74c1,8.58.21,17.2.54,25.79C224.17,167.79,223,168,221.09,168Z"/></g></g></svg>