<svg xmlns="http://www.w3.org/2000/svg" viewBox="0 0 358.92 511.82"><defs><style>.cls-1{fill:#a2ddfd;}.cls-2{fill:#7acdf9;}.cls-3{fill:#b9e5fd;}.cls-4{fill:#f6ee86;}.cls-5{fill:#eca0aa;}.cls-6{fill:#eed076;}.cls-7{fill:#e16e7e;}.cls-8{fill:#6a95d6;}.cls-9{fill:#4e5660;}.cls-10{fill:#edd076;}</style></defs><g id="Layer_2" data-name="Layer 2"><g id="Layer_1-2" data-name="Layer 1"><path class="cls-1" d="M45.23,150c-.29-22-1.74-44.26,5.55-65.59Q74,16.55,144.42,1.81c2.49-.53,5.35.09,7.53-1.81h46a10.27,10.27,0,0,0,7,0h2c6.35,2.34,13.17,2.57,19.63,4.63,48.85,15.58,77.23,49.07,86,99.12,2.68,15.21,1.3,30.82,1.1,46.27-1.57,1.09-3.21.48-4.79.12-13.9-3.17-27.94-5.63-42-7.91a10.28,10.28,0,0,1-5.08-1.85c-1.78-2.34-1.23-5.09-1.27-7.7-.16-10,.33-19.89-2.26-29.76C250.71,74,224.4,53.37,194.54,53.36H165.08A66.52,66.52,0,0,0,99.31,109.1c-1.34,8-.71,15.94-1,23.91-.08,2.46.39,5-1.17,7.26a9.58,9.58,0,0,1-5.05,1.93q-20.67,3.28-41.1,7.86C49.14,150.48,47.15,151.23,45.23,150Z"/><path class="cls-1" d="M309.73,423.93c4.76,9.94,8.44,20,8.27,31.41-.38,26.63-20.13,50.52-46.45,55.44-1,.18-2,0-2.64,1H170c-10.45-4.75-17.74-13.06-24.37-22-2.84-3.84-5.7-7.74-7.43-12.29-.34-1.66-.75-3.65.93-4.53s3,.86,4.21,1.92a54,54,0,0,0,4.44,4,5.46,5.46,0,0,0,7.66-.77c2.24-2.3,2.56-5,.58-7.67-1.48-2-3.47-3.59-5-5.53-2-2.51-1.26-3.9,1.79-4.26,2.15-.25,4.33,0,6.47-.27,3.5-.5,6.12-2.21,6.13-6s-2.47-5.59-6-6.14c-1.65-.25-3.33-.07-5-.2s-3.64.28-4.35-1.61c-.6-1.6.94-2.69,1.89-3.8,1.09-1.26,2.34-2.37,3.43-3.62,2.44-2.8,2.76-5.72.12-8.46s-5.66-2.3-8.52-.15c-1.74,1.3-3.1,3-4.8,4.36-2.43,1.89-3.92,1.4-4.32-1.75a5.74,5.74,0,0,1-.08-1.49c.86-6.06-1.51-10.29-7.17-12.66-1.47-3.09.12-5.78,1.18-8.49,2.11-5.33,4.19-10.72,9-14.42,5-1.19,10.09-.43,15.14-.58,34.95-.07,69.9-.3,104.85.08,18.78.21,34.53,7.72,46.32,22.72C308.32,419.88,309.79,421.56,309.73,423.93Z"/><path class="cls-2" d="M140,397.07c-2.67,5.12-6,9.92-7.77,15.5-.65,2-1.53,4.06-1.26,6.3-4.74,3.4-6.47,8.05-5.81,13.76a2.89,2.89,0,0,1-1.25,3.07c-1.43.68-2.5-.47-3.52-1.3-1.54-1.26-2.81-2.84-4.43-4-2.72-2-5.49-2.48-8.07.17s-2.47,5.63-.18,8.51c1.35,1.7,3.07,3.06,4.39,4.77,1.7,2.21,1.28,3.65-1.59,4.1-2.14.33-4.32.07-6.47.3-3.6.39-5.94,2.18-6.18,6-.22,3.47,2.27,5.73,6.32,6.33,3,.44,7.36-1.51,8.63,1.82,1.06,2.77-3.1,4.66-4.86,7-2.5,3.31-2.52,6.38.06,9s5.22,2.47,8.74-.58c1-.88,1.88-1.9,2.88-2.76,1.23-1.06,2.42-2.85,4.2-2s1.33,2.88,1.42,4.52a39.36,39.36,0,0,0,.23,5c.6,3.27,2.32,5.67,5.85,5.76s5.41-2.09,6.19-5.39c.41-1.72-.1-3.75,1.61-5.05a103.44,103.44,0,0,0,30.86,34H89c-4.79-1.71-9.74-3.06-14.34-5.18C44.42,492.7,32.36,457.79,47.32,428c.67-1.33,1.25-2.71,1.88-4.06.26-3.81,3-6.29,5.25-8.79,11-12.1,24.77-19,41.15-19.6,12.93-.52,25.91-.14,38.86-.08C136.4,395.48,138.52,395.19,140,397.07Z"/><path class="cls-3" d="M204.93,0a5.76,5.76,0,0,1-7,0Z"/><path class="cls-4" d="M313.79,173.84c5.74,1.63,11.46,3.32,17.2,4.9,17.63,4.86,27.9,18.19,27.9,36.48q0,62.37-.1,124.73c-1.69,2.14-4.21,2.59-6.63,3.16A665.75,665.75,0,0,1,266,357.5c-36.66,3.66-73.43,4.18-110.22,3.87-7-.06-13.93-.93-20.88-1.52-2.22-.8-3.31-2.68-4.22-4.65a250.43,250.43,0,0,1-18.6-56.53,7.87,7.87,0,0,1-.07-2.47c.34-1.9,1.72-3.18,2.8-4.64,7.3-10,6.47-20.85-2.21-29.72-1.74-1.77-3.77-3.32-4.63-5.8a48.78,48.78,0,0,1,.09-15.16c2.15-3.11,4.07-.93,5.75.46,2.29,1.89,2.89,4.74,3.63,7.5.89,3.37,2.75,5.81,6.71,5.19,3.43-.54,5.8-4,5.18-7.94-1.25-7.77-4.55-14.2-12.16-17.72-2.25-1-4.68-1.75-6.72-3.27-1.89-2.8-.79-5.8-.42-8.68a231.74,231.74,0,0,1,11.84-47.69c1.08-3.08,1.35-5.85.17-8.83,5.6-2.71,11.72-1.82,17.58-2.36,20.4-1.9,40.9-1.55,61.34-1a413.85,413.85,0,0,1,60.51,5.81A456.16,456.16,0,0,1,308,171.23C310.06,171.74,312.21,172.17,313.79,173.84Z"/><path class="cls-5" d="M134,358.73c24.26,1.6,48.58,1.73,72.84.91,27.64-.94,55.26-2.52,82.73-6.49,23.32-3.37,46.39-7.72,69.27-13.2,0,15.47.28,30.94,0,46.4-.23,12.76-10.7,26.17-23.69,30.48-8.32,2.76-16.9,4.76-25.36,7.1-5.55-7.06-11.28-13.79-19.22-18.5a58.77,58.77,0,0,0-30.29-8.49c-34.77-.14-69.53-.11-104.3-.15-5.13-4-7.63-10-10.92-15.33-4.34-7-9.11-13.93-11.37-22.07C133.74,359.17,133.85,359,134,358.73Z"/><path class="cls-2" d="M313.79,173.84c-17.21-3.76-34.41-7.56-51.86-10.12-3.06-4.85-1.2-10.22-1.53-15.34-.17-2.83-.79-6,1.68-8.36,17.3,2.85,34.66,5.43,51.62,10Z"/><path class="cls-6" d="M121.84,160.84c3.5-.24,4,.7,2.72,4.23-6.74,18.56-12,37.52-13.84,57.27a12.11,12.11,0,0,0,.26,2.37c-1,1.51-2.57,1.57-4,1.45-11.51-1-23,10-22.48,23.46a3.47,3.47,0,0,1-.35,1.44c-2.26,1.62-5,1.56-7.57,2.29-6.72,2-12.63,5.2-17.11,10.64-7.82,9.49-6.16,23.15,3.65,31.09a38.9,38.9,0,0,0,44,3.13c1.8-1,3.34-2.88,5.8-2.35a238.1,238.1,0,0,0,21,62.87l0,.3c-1.5,1.39-3.37,1.3-5.19,1.18-32.23-2.14-64.33-5.34-96-11.75-9.14-1.85-18.3-3.6-27.35-5.88-1.95-.5-3.92-.88-5.21-2.64Q.1,304,0,268.06q0-27.19,0-54.41a35.46,35.46,0,0,1,24.53-34c6.75-2.24,13.7-3.92,20.56-5.85a7.92,7.92,0,0,1,4.73-2.53c15.55-3.49,31.14-6.78,46.94-9,6.29-1.22,12.66-1.79,19-2.67C117.85,159.35,120.07,159.21,121.84,160.84Z"/><path class="cls-7" d="M.19,339.94a692.31,692.31,0,0,0,73,13.73c16.54,2.16,33.17,4,49.9,4.32,3.63.07,7.24.68,10.86,1,6.19,13.24,14.27,25.38,21.95,37.76l-16,.28c-16.76,0-33.58-1.38-50.27.68s-29.32,10.78-38.9,24.31c-.47.67-1.06,1.26-1.59,1.89-7.52-2-15.07-3.93-22.55-6.12C10.08,413,0,399.55,0,382.38,0,368.23.13,354.09.19,339.94Z"/><path class="cls-2" d="M97,163.65c-17.47,2.52-34.71,6.25-51.9,10.16L45.23,150C60.35,146.27,75.65,143.4,91,141l5.81-.94a4,4,0,0,1,1.54,3.53C98.09,150.25,100,157.12,97,163.65Z"/><path class="cls-8" d="M208.81,463.15c-13.56-1.78-17.25-3.33-16.71-8.66,1.07-10.49,9.88-6.72,17.89-8.25-3.15-2.66-5.58-4.35-7.56-6.46-3.29-3.5-3.13-6.8.09-10.12s6.68-3.52,10.16-.45a75.42,75.42,0,0,1,6,6.52l1.29-.69c0-2.74-.1-5.48,0-8.21.21-4.59,3.5-8,7.37-7.88,4.35.16,7.32,3.12,7.56,7.73.15,2.76,0,5.54,0,8.8,5.94-3.09,9.74-13.84,17.49-5.41,7,7.56-2.83,10.86-5.89,16.34,2.71.91,5.46.28,8.11.44,4.92.28,8.27,3.32,8.23,7.57s-3.37,7.25-8.36,7.41c-2.49.08-5,0-7.94,0,1,3.08,3.62,4.45,5.37,6.44,3.33,3.81,3.56,8,.43,11.1-3.33,3.26-7.12,3.11-11-.62-1.87-1.8-3.5-3.84-5.24-5.78l-1.2.71c0,2.76.11,5.52,0,8.27-.23,4.6-3.36,7.81-7.45,7.82s-7.2-3.19-7.49-7.78c-.1-1.49,0-3,0-4.49,0-1.27,0-2.53,0-3.79l-1.39-1a79.54,79.54,0,0,1-5.76,6.63c-3.38,3.16-7.14,3-10.26,0a7.29,7.29,0,0,1-.25-10.3A78.91,78.91,0,0,1,208.81,463.15Z"/><path class="cls-8" d="M139.09,477.78a45.59,45.59,0,0,1-.18,5c-.57,4.15-3,6.64-7.17,7-3.84.34-7.33-2.81-7.69-7-.25-3,0-6,0-10.3-2.82,2.76-4.81,4.84-6.94,6.76-3.66,3.32-6.72,3.32-10.09.14s-3.55-7.2-.38-10.54a62.32,62.32,0,0,1,6.53-5.32l-.9-1.68c-2.71,0-5.42.09-8.12,0-4.72-.19-7.8-3.06-8-7.26s3.12-7.5,8-7.69c2.62-.1,5.24,0,9.22,0-2.73-2.76-4.7-4.65-6.54-6.66-3.23-3.51-3.25-7.4-.17-10.58s6.76-3.35,10.5,0c1.12,1,2.08,2.15,3.2,3.14,1,.83,1.54,2.2,3.41,2.32.89-6-2.28-14,7.14-16.16,6.13,1.1,8,3.2,8,9.25,0,2.28,0,4.55,0,6.82l1.46,1.12a71.61,71.61,0,0,1,5.26-6.34c3.41-3.3,7.62-3.35,10.66-.46,3.35,3.19,3.35,7.23-.29,11a66.39,66.39,0,0,1-6.13,5l.8,1.6c2.7,0,5.4-.09,8.1,0,4.87.2,8.19,3.41,8.07,7.66-.11,4.09-3.3,7.08-7.95,7.28-2.65.12-5.3,0-8.53,0,1.44,3.15,4.06,4.7,5.93,6.85,3.21,3.71,3.28,7.49.11,10.66s-7.08,3.23-10.61-.2a68.23,68.23,0,0,1-5.41-6.75C138.47,474.89,139.17,476.38,139.09,477.78Z"/><path class="cls-5" d="M275.65,250c4.65,2.17,9.89,2.47,14.49,5,9.47,5.12,16,12.34,15.61,23.53s-7.3,18.44-17.35,22.8c-13.33,5.78-26.2,4.92-38.45-2.91-8.71-5.58-13.39-13.67-11.85-24,1.48-10,8.46-16.19,17.31-20.37,1.91-.9,4.32-.81,5.67-2.83a1.73,1.73,0,0,1,1.77.47c5.36,4,6,4,11.09-.85A2,2,0,0,1,275.65,250Z"/><path class="cls-5" d="M112.93,295.86c-16.89,11.81-35,12.09-49.75.86-13.59-10.36-13.21-27.58-.51-37.83a35.34,35.34,0,0,1,21-8,2.6,2.6,0,0,1,1.82.64c3.51,3.59,7.09,3.63,10.82.34a3.18,3.18,0,0,1,1.85-.59c4.1.9,8.41,1.4,10.81,5.59,7.37,5.69,12.89,12.3,12,22.47C120.47,285.93,117.14,291.08,112.93,295.86Z"/><path class="cls-9" d="M97.63,251.77c-5.64,5.61-9.09,5.38-13.95-.92-2-12.91,8.17-25.4,21.32-26.11,2-.11,4,0,6,0,11,2.61,17.67,9.35,19.58,20.59.89,5.31-1.63,9.44-6.2,10.28-4.27.78-7.57-2.1-8.53-7.53-.72-4-2.34-7.25-6.84-8C102.11,240.94,100.09,246.57,97.63,251.77Z"/><path class="cls-9" d="M275.65,250c-4.24,7.37-9.36,7.77-14.57,1.13-.14-1.32-.19-2.66-.45-4-1-4.7-4.18-7.45-8.62-7.47-4.62,0-7.66,2.71-8.75,7.88-1.28,6-4.29,8.85-8.63,8.06-4.68-.85-7-5-6-10.78,2.19-13.24,12.85-21.32,26.44-20C267.2,226,275.86,236.52,275.65,250Z"/><path class="cls-9" d="M179.29,282.46c-8.39-.32-15.8-3.19-21.69-9.45-3.49-3.7-3.65-7.91-.55-11.05s7.19-2.95,11,.43c7.81,6.87,15,6.82,23-.17,3.68-3.21,8.2-3.28,11.09-.16s2.6,7.34-.58,10.76C195.6,279.26,188.06,282.22,179.29,282.46Z"/><path class="cls-10" d="M97.63,251.77c.46-2.25.57-4.64,1.44-6.71,1.81-4.34,5.19-6.16,9.92-5.05q0,8.42,0,16.82C105.63,254.18,101.43,253.42,97.63,251.77Z"/></g></g></svg>