<?xml version="1.0" encoding="utf-8"?>
<!-- Generator: Adobe Illustrator 25.4.1, SVG Export Plug-In . SVG Version: 6.00 Build 0)  -->
<svg version="1.1" id="Layer_1" xmlns="http://www.w3.org/2000/svg" xmlns:xlink="http://www.w3.org/1999/xlink" x="0px" y="0px"
	 viewBox="0 0 650 650" style="enable-background:new 0 0 650 650;" xml:space="preserve">
<style type="text/css">
	.st0{fill:url(#SVGID_1_);}
	.st1{fill:#FDBA12;}
</style>
<g>
	<radialGradient id="SVGID_1_" cx="324.5663" cy="324.3627" r="286.3245" gradientUnits="userSpaceOnUse">
		<stop  offset="0" style="stop-color:#A496C8"/>
		<stop  offset="0.577" style="stop-color:#FFFFFF"/>
	</radialGradient>
	<path class="st0" d="M57.01,537.29c3-0.92,7.2-3.56,17.55-5.3c35.59-5.97,70.29-14.98,104.01-27.66
		c132.11-49.68,204.57-146.96,225.72-284.53c10.52-68.44-13.19-130.41-38.28-191.95c12.21-11.53,29.8-4.77,29.8-4.77
		c49.23,17.06,84.75,51.3,118.57,88.7c34.57,38.23,53.5,83.67,67.53,132.47c16.39,57.01,13.83,113.52-3.65,168.75
		C554.98,486.57,510.44,544.16,442,583.01c-96.95,55.03-195.37,57.35-297.88,16.81c-34.72-13.73-62-35.79-87.88-60.45L57.01,537.29z
		 M511.86,361.21c0.63-48.64-15.93-92.46-47.91-136.38c1.71,14.27,6.82,23.3,12.18,32.46c11.68,20,20.55,41.57,23.39,64.32
		C501.31,336,505.32,348.72,511.86,361.21z M448.31,449.1c7.58-10.5,8.4-10.63,6.42-22.97c-2.57-15.98,1.07-33.58-11.82-47.44
		C440.6,402.27,438.74,425.62,448.31,449.1z M581.56,314.24c-0.34-21.99,4.3-44.79-9.99-65.65c-1.89,2.82-3.26,3.92-3.15,4.85
		c1.03,8.87,7.57,17.93-1.7,26.41c-1.13,1.03-0.17,4.99,0.6,7.33C570.45,296.78,573.45,306.48,581.56,314.24z M278.89,586.58
		c21.76,3.35,69.08-4.03,81.78-12.76C347.34,570.57,294.73,578.78,278.89,586.58z M562.35,237.12
		c-5.28-32.52-25.42-55.41-45.6-78.29c-1.14,0.74-2.28,1.47-3.42,2.21C529.68,186.4,546.02,211.76,562.35,237.12z M447.22,60.69
		c-14.49-15.95-32.46-24.55-53.44-26.89C409.78,46.42,424.67,61.1,447.22,60.69z M378.65,572.29c19.58-5.83,49.24-33.7,52.19-49.38
		C409.92,537.61,395.15,555.8,378.65,572.29z M409.95,113.18c-1.49,0.32-2.98,0.65-4.47,0.97c2.6,15.6,4.93,31.26,7.9,46.79
		c1.64,8.58,8.03,12.94,16.41,15.32C421.49,155.51,417.27,133.81,409.95,113.18z M549.22,372.95c1.08,23.08-8.51,45.13-5.96,68.35
		C549.43,418.92,562.36,397.19,549.22,372.95z M458.94,275.83c-3.41-23.52-9.08-46.06-24.45-64.81
		C438.43,234.22,446.59,255.86,458.94,275.83z M460.72,123.4c12.9,28.64,33.17,55.24,47.18,61.93
		C492.15,162.19,478,141.6,460.72,123.4z M117.46,553.69c17.38,5.74,35,8.93,53.39,3.49C153.69,548.95,135.64,550.61,117.46,553.69z
		 M174.36,593.39c-13.89-19.28-31.04-19.14-47.81-20.04C139.27,584.62,154.37,590.05,174.36,593.39z M342.5,484.15
		c21.04-1.8,27.12-6,31.52-20.78C360.75,465.18,349,468,342.5,484.15z M236.22,552.32c17.8,5.05,35.55,6.25,53.21-0.49
		C271.63,546.93,253.91,548.63,236.22,552.32z M431.88,237.77c-3-22.46-8.16-35.94-16.17-45.9
		C408.91,212.09,425.13,223.44,431.88,237.77z M561.05,352.81c2.07-15.48-5.71-32.11-18.57-43.3
		C547.39,325.71,549.94,341.08,561.05,352.81z M470.31,393.51c-5.75,13.96-6.04,27.47,3.39,43.96
		C478.55,419.84,474.69,406.67,470.31,393.51z"/>
	<g>
		<g>
			<g>
				<path class="st1" d="M182.16,144.18c0.94,2.26,2.29,5.19,2.92,6.54c3.29,7.01,6.19,13.64,9.49,20.24
					c2.54,5.06,5.14,10.07,7.89,15.06c1,1.82,2.04,3.62,3.08,5.44l0.73,1.28l1.3,0.2c3.3,0.5,6.58,1.02,9.82,1.69
					c12.3,2.52,24.44,5.15,36.66,7.81c3.19,0.7,6.37,1.34,9.51,1.94l-2.28-7.01c-10.49,10.74-20.13,21.72-30.33,32.79
					c-2.49,2.71-5.02,5.36-7.58,7.97l-1.03,1.06l-1.12,1.15l0.21,1.66c0.68,5.39,1.42,10.76,2.23,16.15
					c2.02,13.4,4.13,26.92,5.86,40.41l4.27-3.1c-1.28-0.63-2.55-1.26-3.82-1.89c-6.66-3.32-13.37-6.87-20.15-9.98
					c-7.5-3.44-14.32-7.32-21.59-10.83c-1.87-0.9-3.75-1.8-5.62-2.7l-1.6-0.77l-1.57,0.77c-16.95,8.29-33.73,17.05-50.54,25.5
					c-0.16,0.08-0.31,0.16-0.47,0.24l3.73,2.71c1.07-9.45,0.93-20.23,3.2-29.31c0.98-3.94,2.13-6.95,2.82-11.4
					c0.81-5.26,1.57-10.53,2.31-15.81l0.22-1.54l-1.09-1.15l-1.79-1.88c-3.38-3.55-6.19-6.81-9.35-10.35
					c-7.59-8.49-16.95-16.4-24.99-24.4c-1.34-1.35-2.68-2.69-4.01-4.04l-1.29,3.98c14.95-2.93,29.94-5.32,44.95-7.85
					c3.15-0.5,6.29-1.01,9.43-1.51c0.65-0.11,1.29-0.24,1.92-0.37l1.42-0.3l0.56-1.14c0.6-1.22,1.15-2.43,1.74-3.66
					c1.08-2.26,2.24-4.44,3.4-6.66c1.81-3.46,3.65-6.97,5.46-10.43c3.01-5.68,5.89-11.27,8.74-17.22c1.48-3.08,2.47-5.33,3.66-8.44
					c0.44-1.16,1.11-2.79,1.41-3.73c0.28-0.88,0.16-0.69-0.26-0.15c-0.37,0.47-0.62,0.84-0.87,0.94c-0.22,0.09-0.3-0.02-0.68,0.41
					c-1.44,1.64-4.39,6.42-6.4,9.67c-2.61,4.21-5.18,8.81-7.72,13.32c-4.16,7.32-8.29,15.43-12.5,22.49
					c-0.2,0.33-0.39,0.66-0.58,0.97l1.69-1.23c-6.87,0.96-12.81,2.16-19.64,3.82c-7.63,1.85-16.33,3.35-24.15,4.32
					c-4.28,0.53-8.39,1.15-12.46,1.87l-4.7,0.83l3.3,3.48c3.27,3.44,6.62,6.77,10.21,10.16c4.13,3.9,8.02,8.02,11.91,12.24
					c5.82,6.25,11.65,12.51,17.49,18.78l-0.65-2c-1.77,12.03-3.54,24.06-5.3,36.09c-1.02,6.82-2.11,13.61-3.21,20.4l-0.95,5.87
					l5.57-2.52c12.41-5.61,24.83-11.18,37.09-17.17c4.88-2.38,9.73-4.81,14.56-7.24h-3.21c5.37,2.48,10.73,4.96,16.1,7.43
					c9.27,4.3,17.98,8.99,27.01,13.72c2.64,1.38,5.35,2.75,8.13,4.12l6.99,3.43l-1-7.77c-1.44-11.17-3.46-22.74-5.78-33.11
					c-1.67-7.46-3.04-15.34-4.08-23.2l-0.54,1.67c2.2-2.28,4.44-4.52,6.68-6.69c4.52-4.38,8.97-8.76,13.46-13.23
					c5.3-5.28,10.31-10.93,15.7-16.11c1.49-1.43,3.01-2.89,4.57-4.39l4.28-4.11l-6.05-1.36c-4.71-1.06-9.53-2.12-14.26-3.01
					c-8.35-1.58-15.98-2.16-23.96-2.92c-5.62-0.53-10.09-2.25-15.33-3.47c-0.88-0.2-1.79-0.36-2.72-0.5l2.11,1.53
					c-0.57-1-1.16-2-1.69-3.02c-1.48-2.81-2.96-5.65-4.56-8.39c-2.41-4.14-4.85-8.24-7.29-12.28c-2.79-4.65-6.43-10.73-9.05-14.3
					c-1.22-1.66-2.15-2.79-3.4-4.74c-0.82-1.29-2.28-3.48-3.08-4.48C180.85,140.46,180.69,140.66,182.16,144.18z"/>
			</g>
		</g>
		<g>
			<g>
				<g>
					<path class="st1" d="M129.63,296.05c-0.04,0.05-0.05,0.08-0.05,0.09c-0.01,0.05-0.03,0.11-0.01,0.13
						c0.02,0.01,0.04,0.03,0.07,0.03c0.03,0,0.08-0.02,0.08,0.01c-0.01,0.07-0.04,0.17-0.07,0.26c-0.04,0.14,0.12,0.07,0.22,0.07
						c0.02,0,0.03,0.01,0.03,0.02c0.01,0.03,0.02,0.04,0.05,0.04c0.07,0.01,0.15,0.01,0.16,0.07c0.01,0.03-0.01,0.09,0.03,0.09
						c0.04,0-0.01,0.09,0.01,0.12c0.05,0.06,0.21,0.01,0.31,0.02c0.05,0,0.31-0.21,0.19-0.03c-0.05,0.07-0.15,0.19-0.15,0.21
						c0,0.03,0.01,0.05,0.02,0.07c0.01,0.01-0.01,0.06-0.02,0.09c-0.02,0.08,0.19-0.07,0.26-0.07c0.1-0.01,0.1,0.08,0.11,0.16
						c0,0.01-0.01,0.04,0,0.05c0,0.01,0.03-0.01,0.05-0.01c0.02-0.01,0.03,0,0.04,0c0.01,0.01,0.02,0.02,0.02,0.04
						c0,0.04-0.01,0.08,0.01,0.1c0.01,0.01,0.03,0,0.13-0.09c0.04-0.03,0.08-0.07,0.13-0.12c0.05-0.05,0.06-0.05,0.09-0.09
						c0.03-0.03,0.04-0.05,0.09-0.1c0.04-0.04,0.07-0.08,0.1-0.11c0.12-0.13,0.14-0.18,0.15-0.22c0.02-0.04-0.01-0.04-0.02-0.06
						c-0.02-0.02-0.08-0.01-0.05-0.08c0.03-0.07,0-0.07-0.09-0.02c-0.09,0.05-0.1,0.01-0.06-0.07c0.05-0.1,0.02-0.12-0.07-0.08
						c-0.06,0.03-0.07,0.01-0.07-0.02c0-0.11-0.04-0.18-0.06-0.27c-0.02-0.09,0.06-0.28-0.01-0.31c-0.04-0.02-0.11-0.01-0.16-0.02
						c-0.05-0.01-0.01-0.09,0.01-0.17c0.03-0.1-0.07-0.09-0.27,0.04c-0.16,0.1-0.22,0.1-0.19,0.01c0.02-0.05,0.03-0.09,0.03-0.13
						c0.01-0.04-0.05-0.02-0.03-0.09c0.02-0.06,0.05-0.13,0.04-0.15c-0.01-0.03-0.14,0.06-0.26,0.13c-0.08,0.05,0.03-0.09,0.06-0.14
						c0.01-0.02-0.02,0-0.02-0.01c0-0.01,0-0.03-0.02-0.03c-0.03,0-0.06,0.01-0.09,0.02c-0.04,0.01-0.07,0-0.18,0.09
						c-0.06,0.04-0.12,0.1-0.16,0.13C129.97,295.71,129.76,295.88,129.63,296.05z"/>
				</g>
			</g>
			<g>
				<g>
					<path class="st1" d="M137.17,294.26c0.02-0.07,0-0.12-0.01-0.14c-0.06-0.1-0.1-0.22-0.18-0.29c-0.07-0.05-0.13-0.11-0.21-0.15
						c-0.07-0.04-0.17-0.05-0.21-0.12c-0.1-0.16-0.17-0.34-0.25-0.53c-0.11-0.27-0.41-0.31-0.65-0.43c-0.05-0.02-0.09-0.06-0.12-0.1
						c-0.05-0.07-0.12-0.12-0.19-0.16c-0.19-0.11-0.39-0.2-0.52-0.37c-0.07-0.08-0.11-0.2-0.21-0.25c-0.11-0.05-0.12-0.21-0.21-0.28
						c-0.22-0.2-0.54-0.29-0.81-0.44c-0.12-0.07-0.46,0.08-0.43-0.16c0.02-0.1,0.08-0.24,0.04-0.3c-0.05-0.07-0.11-0.14-0.18-0.2
						c-0.05-0.05-0.07-0.12-0.1-0.19c-0.07-0.16-0.37-0.08-0.53-0.15c-0.24-0.1-0.37-0.32-0.53-0.51c-0.02-0.03-0.06-0.09-0.08-0.12
						c-0.02-0.02-0.06-0.02-0.1-0.03c-0.04-0.01-0.07-0.03-0.1-0.06c-0.05-0.04-0.09-0.08-0.12-0.13c-0.06-0.08-0.1-0.18-0.18-0.24
						c-0.04-0.03-0.08-0.04-0.2,0.04c-0.04,0.03-0.1,0.06-0.15,0.1c-0.05,0.05-0.05,0.05-0.08,0.1c-0.02,0.04-0.03,0.06-0.07,0.11
						c-0.03,0.05-0.06,0.08-0.09,0.13c-0.09,0.16-0.06,0.25-0.04,0.31c0.02,0.08,0.09,0.11,0.14,0.16c0.09,0.08,0.21,0.12,0.25,0.25
						c0.03,0.12,0.12,0.16,0.25,0.17c0.15,0,0.23,0.1,0.26,0.24c0.03,0.16,0.12,0.24,0.28,0.26c0.1,0.01,0.15,0.07,0.2,0.14
						c0.17,0.25,0.38,0.46,0.57,0.69c0.18,0.23,0.28,0.56,0.52,0.74c0.13,0.1,0.28,0.16,0.43,0.25c0.13,0.07,0.18,0.23,0.24,0.38
						c0.09,0.2,0.3,0.28,0.6,0.24c0.23-0.04,0.38,0.04,0.45,0.2c0.04,0.1,0.08,0.18,0.13,0.26c0.06,0.1,0.17,0.13,0.21,0.24
						c0.04,0.11,0.07,0.23,0.13,0.3c0.08,0.09,0.27,0.04,0.44,0.02c0.12-0.02,0.05,0.16,0.08,0.25c0.01,0.03,0.05,0.03,0.07,0.05
						c0.03,0.03,0.05,0.07,0.1,0.09c0.06,0.02,0.13,0.05,0.2,0.07c0.08,0.03,0.16,0.08,0.31,0.01c0.07-0.03,0.14-0.08,0.2-0.09
						C136.84,294.6,137.1,294.48,137.17,294.26z"/>
				</g>
			</g>
			<g>
				<g>
					<path class="st1" d="M131.94,279.31c0,0.1,0.05,0.18,0.07,0.22c0.13,0.19,0.25,0.39,0.42,0.56c0.13,0.13,0.26,0.25,0.4,0.36
						c0.13,0.11,0.29,0.18,0.39,0.31c0.23,0.31,0.43,0.63,0.63,0.96c0.3,0.48,0.79,0.74,1.23,1.07c0.09,0.07,0.17,0.14,0.24,0.23
						c0.12,0.14,0.24,0.26,0.38,0.37c0.35,0.29,0.71,0.56,1,0.91c0.14,0.17,0.26,0.37,0.44,0.51c0.2,0.15,0.29,0.39,0.46,0.56
						c0.44,0.45,0.98,0.79,1.48,1.19c0.23,0.18,0.69,0.18,0.75,0.52c0.02,0.15-0.01,0.32,0.07,0.42c0.12,0.15,0.24,0.28,0.37,0.42
						c0.1,0.11,0.16,0.23,0.24,0.35c0.19,0.3,0.63,0.37,0.91,0.57c0.42,0.31,0.73,0.72,1.06,1.11c0.06,0.07,0.11,0.16,0.17,0.23
						c0.04,0.05,0.11,0.07,0.16,0.1c0.07,0.04,0.12,0.09,0.18,0.15c0.09,0.09,0.17,0.18,0.25,0.27c0.13,0.16,0.24,0.33,0.39,0.48
						c0.08,0.07,0.14,0.11,0.3,0.07c0.06-0.01,0.13-0.02,0.19-0.06c0.06-0.03,0.06-0.05,0.08-0.1c0.01-0.05,0.02-0.07,0.05-0.13
						c0.03-0.05,0.06-0.09,0.08-0.14c0.06-0.19-0.02-0.34-0.08-0.45c-0.07-0.13-0.19-0.23-0.3-0.33c-0.17-0.17-0.39-0.32-0.51-0.54
						c-0.11-0.2-0.26-0.32-0.48-0.42c-0.23-0.1-0.41-0.3-0.51-0.53c-0.12-0.27-0.31-0.45-0.57-0.58c-0.16-0.08-0.28-0.2-0.38-0.34
						c-0.38-0.49-0.81-0.94-1.21-1.42c-0.4-0.47-0.7-1.04-1.15-1.45c-0.25-0.23-0.53-0.43-0.79-0.65c-0.24-0.2-0.39-0.47-0.55-0.73
						c-0.23-0.36-0.61-0.63-1.06-0.75c-0.35-0.1-0.63-0.31-0.8-0.6c-0.1-0.17-0.21-0.33-0.32-0.48c-0.13-0.18-0.33-0.3-0.45-0.5
						c-0.1-0.18-0.21-0.39-0.34-0.54c-0.17-0.19-0.44-0.24-0.71-0.31c-0.19-0.05-0.16-0.28-0.24-0.43c-0.03-0.06-0.1-0.08-0.14-0.12
						c-0.06-0.07-0.12-0.14-0.19-0.19c-0.11-0.08-0.23-0.16-0.34-0.24c-0.13-0.09-0.29-0.22-0.5-0.22c-0.1,0-0.19,0.02-0.28,0.01
						C132.32,279.01,131.95,279.01,131.94,279.31z"/>
				</g>
			</g>
			<g>
				<g>
					<path class="st1" d="M150.57,287.73c-0.02-0.11-0.1-0.22-0.14-0.27c-0.21-0.25-0.39-0.5-0.63-0.71
						c-0.18-0.17-0.37-0.33-0.56-0.48c-0.18-0.14-0.38-0.25-0.53-0.42c-0.34-0.39-0.66-0.8-0.97-1.21
						c-0.47-0.61-1.12-0.98-1.71-1.43c-0.12-0.09-0.23-0.19-0.34-0.3c-0.17-0.18-0.35-0.34-0.54-0.49c-0.48-0.39-0.98-0.76-1.4-1.21
						c-0.21-0.22-0.4-0.47-0.65-0.66c-0.27-0.21-0.44-0.5-0.68-0.73c-0.63-0.59-1.36-1.07-2.03-1.6c-0.31-0.25-0.87-0.3-1.01-0.72
						c-0.06-0.18-0.06-0.37-0.18-0.51c-0.17-0.19-0.35-0.37-0.54-0.54c-0.15-0.14-0.25-0.29-0.37-0.45
						c-0.29-0.37-0.83-0.52-1.21-0.8c-0.57-0.42-1.04-0.95-1.53-1.45c-0.08-0.09-0.18-0.2-0.26-0.29c-0.06-0.06-0.14-0.1-0.22-0.14
						c-0.09-0.06-0.17-0.13-0.25-0.2c-0.13-0.11-0.25-0.23-0.36-0.36c-0.19-0.21-0.36-0.43-0.57-0.61c-0.11-0.1-0.2-0.15-0.37-0.13
						c-0.06,0.01-0.15,0.01-0.22,0.04c-0.06,0.03-0.06,0.05-0.07,0.11c-0.01,0.05,0,0.08-0.03,0.15c-0.03,0.05-0.05,0.09-0.06,0.15
						c-0.03,0.21,0.1,0.4,0.2,0.54c0.12,0.17,0.28,0.3,0.43,0.43c0.24,0.23,0.54,0.43,0.73,0.7c0.18,0.25,0.38,0.41,0.67,0.56
						c0.3,0.15,0.56,0.41,0.73,0.69c0.21,0.33,0.47,0.57,0.81,0.76c0.21,0.12,0.38,0.28,0.53,0.45c0.57,0.63,1.19,1.22,1.77,1.84
						c0.58,0.61,1.08,1.32,1.71,1.87c0.35,0.31,0.73,0.58,1.09,0.87c0.33,0.26,0.57,0.6,0.83,0.93c0.36,0.45,0.87,0.82,1.44,1.03
						c0.45,0.16,0.82,0.45,1.09,0.81c0.16,0.21,0.32,0.41,0.49,0.61c0.2,0.23,0.47,0.4,0.65,0.66c0.17,0.23,0.33,0.48,0.54,0.68
						c0.25,0.25,0.58,0.34,0.92,0.47c0.23,0.09,0.25,0.35,0.38,0.54c0.05,0.07,0.13,0.1,0.19,0.16c0.09,0.09,0.17,0.18,0.27,0.25
						c0.15,0.11,0.31,0.21,0.46,0.33c0.18,0.12,0.4,0.3,0.64,0.33c0.12,0.01,0.22,0,0.34,0.03
						C150.19,288.04,150.63,288.08,150.57,287.73z"/>
				</g>
			</g>
			<g>
				<g>
					<path class="st1" d="M134.28,262.62c0.04,0.14,0.15,0.28,0.2,0.34c0.28,0.34,0.53,0.67,0.85,0.98c0.24,0.24,0.48,0.47,0.73,0.7
						c0.23,0.21,0.49,0.39,0.69,0.62c0.46,0.54,0.89,1.09,1.32,1.65c0.64,0.82,1.46,1.4,2.23,2.08c0.16,0.14,0.3,0.28,0.44,0.43
						c0.23,0.25,0.46,0.48,0.71,0.7c0.62,0.56,1.27,1.12,1.83,1.74c0.28,0.31,0.54,0.65,0.86,0.92c0.35,0.3,0.59,0.69,0.9,1.01
						c0.83,0.83,1.76,1.57,2.64,2.35c0.4,0.36,1.07,0.55,1.3,1.08c0.1,0.22,0.12,0.45,0.29,0.64c0.23,0.26,0.47,0.51,0.71,0.76
						c0.19,0.2,0.33,0.4,0.5,0.61c0.4,0.51,1.06,0.81,1.55,1.22c0.74,0.62,1.36,1.35,2.01,2.06c0.12,0.13,0.23,0.27,0.35,0.41
						c0.08,0.09,0.18,0.14,0.28,0.21c0.12,0.09,0.22,0.19,0.33,0.29c0.16,0.16,0.33,0.33,0.48,0.5c0.25,0.29,0.49,0.58,0.76,0.85
						c0.14,0.14,0.26,0.22,0.46,0.24c0.08,0.01,0.18,0.03,0.25,0c0.07-0.02,0.07-0.04,0.07-0.11c0-0.06-0.01-0.1,0.02-0.16
						c0.02-0.06,0.05-0.1,0.06-0.16c0.01-0.24-0.18-0.5-0.31-0.67c-0.17-0.23-0.38-0.41-0.57-0.61c-0.32-0.32-0.7-0.63-0.96-1
						c-0.25-0.34-0.51-0.57-0.87-0.81c-0.38-0.24-0.72-0.61-0.97-0.98c-0.29-0.44-0.63-0.77-1.07-1.07
						c-0.27-0.18-0.49-0.41-0.7-0.66c-0.77-0.87-1.58-1.71-2.36-2.57c-0.78-0.85-1.46-1.79-2.29-2.59
						c-0.46-0.44-0.94-0.85-1.42-1.28c-0.43-0.38-0.76-0.84-1.11-1.29c-0.49-0.62-1.15-1.17-1.85-1.54
						c-0.55-0.29-1.03-0.71-1.41-1.21c-0.22-0.28-0.44-0.56-0.67-0.83c-0.27-0.32-0.61-0.58-0.86-0.92
						c-0.23-0.31-0.46-0.64-0.73-0.93c-0.33-0.35-0.74-0.54-1.15-0.76c-0.29-0.16-0.35-0.47-0.53-0.72
						c-0.06-0.09-0.17-0.15-0.25-0.23c-0.12-0.12-0.23-0.25-0.36-0.36c-0.2-0.16-0.39-0.33-0.6-0.49c-0.23-0.19-0.51-0.44-0.81-0.53
						c-0.14-0.04-0.27-0.05-0.4-0.11C134.69,262.35,134.16,262.2,134.28,262.62z"/>
				</g>
			</g>
			<g>
				<g>
					<path class="st1" d="M141.83,262.48c0.02-0.07,0-0.12-0.01-0.14c-0.06-0.11-0.11-0.22-0.2-0.29c-0.07-0.05-0.14-0.11-0.22-0.15
						c-0.07-0.04-0.17-0.05-0.22-0.12c-0.11-0.16-0.19-0.35-0.27-0.53c-0.12-0.27-0.43-0.31-0.69-0.43
						c-0.05-0.02-0.09-0.06-0.13-0.1c-0.06-0.07-0.13-0.12-0.2-0.16c-0.2-0.11-0.41-0.2-0.55-0.38c-0.07-0.08-0.12-0.2-0.22-0.25
						c-0.11-0.05-0.13-0.21-0.23-0.29c-0.23-0.2-0.56-0.29-0.84-0.44c-0.13-0.07-0.47,0.09-0.44-0.16c0.01-0.11,0.07-0.25,0.03-0.3
						c-0.06-0.07-0.12-0.14-0.19-0.2c-0.05-0.05-0.07-0.12-0.11-0.19c-0.08-0.17-0.38-0.08-0.55-0.15c-0.25-0.1-0.39-0.32-0.56-0.51
						c-0.02-0.03-0.06-0.09-0.08-0.12c-0.02-0.02-0.06-0.02-0.1-0.02c-0.04-0.01-0.07-0.03-0.1-0.06c-0.05-0.04-0.09-0.08-0.13-0.13
						c-0.06-0.08-0.11-0.18-0.19-0.24c-0.04-0.03-0.08-0.04-0.2,0.04c-0.04,0.03-0.1,0.06-0.15,0.11c-0.05,0.05-0.05,0.06-0.07,0.1
						c-0.02,0.04-0.03,0.06-0.06,0.12c-0.03,0.05-0.06,0.09-0.08,0.13c-0.08,0.16-0.05,0.26-0.03,0.32c0.03,0.08,0.1,0.11,0.15,0.16
						c0.09,0.08,0.22,0.12,0.27,0.25c0.04,0.12,0.13,0.16,0.27,0.17c0.15,0,0.24,0.1,0.27,0.24c0.04,0.17,0.14,0.24,0.3,0.26
						c0.1,0.01,0.16,0.07,0.21,0.14c0.19,0.25,0.41,0.46,0.61,0.7c0.2,0.24,0.31,0.57,0.56,0.74c0.14,0.1,0.3,0.16,0.45,0.24
						c0.13,0.07,0.19,0.23,0.26,0.38c0.1,0.2,0.32,0.28,0.62,0.24c0.24-0.04,0.39,0.03,0.46,0.2c0.04,0.1,0.09,0.18,0.14,0.27
						c0.06,0.1,0.18,0.13,0.23,0.24c0.04,0.11,0.08,0.23,0.15,0.3c0.09,0.09,0.27,0.04,0.45,0.01c0.13-0.02,0.06,0.16,0.09,0.25
						c0.01,0.03,0.05,0.03,0.07,0.05c0.03,0.03,0.06,0.07,0.1,0.09c0.06,0.02,0.13,0.05,0.2,0.07c0.08,0.02,0.17,0.08,0.32,0.01
						c0.07-0.03,0.14-0.08,0.21-0.1C141.5,262.83,141.77,262.71,141.83,262.48z"/>
				</g>
			</g>
			<g>
				<g>
					<path class="st1" d="M163.74,281.34c-0.04-0.12-0.15-0.25-0.2-0.3c-0.27-0.29-0.51-0.58-0.82-0.83
						c-0.23-0.2-0.47-0.39-0.71-0.58c-0.22-0.17-0.47-0.31-0.67-0.51c-0.44-0.46-0.86-0.93-1.28-1.41
						c-0.62-0.71-1.41-1.16-2.15-1.71c-0.15-0.11-0.29-0.23-0.43-0.36c-0.22-0.21-0.44-0.4-0.68-0.58c-0.6-0.46-1.22-0.91-1.77-1.44
						c-0.27-0.26-0.53-0.55-0.83-0.78c-0.34-0.25-0.57-0.59-0.88-0.85c-0.8-0.69-1.69-1.28-2.54-1.92c-0.39-0.29-1.02-0.4-1.25-0.87
						c-0.1-0.2-0.12-0.42-0.28-0.58c-0.22-0.22-0.45-0.43-0.69-0.64c-0.19-0.16-0.32-0.34-0.48-0.52c-0.39-0.43-1.02-0.64-1.49-0.97
						c-0.71-0.5-1.31-1.12-1.94-1.72c-0.11-0.11-0.23-0.23-0.34-0.34c-0.08-0.07-0.17-0.12-0.26-0.17
						c-0.11-0.07-0.21-0.16-0.31-0.24c-0.16-0.13-0.32-0.27-0.46-0.42c-0.24-0.24-0.48-0.5-0.74-0.72
						c-0.14-0.12-0.25-0.18-0.44-0.17c-0.07,0-0.17,0-0.24,0.03c-0.07,0.03-0.06,0.05-0.06,0.12c0,0.06,0.01,0.09-0.01,0.16
						c-0.02,0.06-0.05,0.1-0.05,0.16c0,0.23,0.18,0.45,0.3,0.61c0.16,0.2,0.36,0.35,0.55,0.51c0.31,0.27,0.67,0.51,0.93,0.83
						c0.24,0.29,0.49,0.49,0.83,0.66c0.36,0.19,0.69,0.49,0.93,0.82c0.29,0.38,0.62,0.66,1.03,0.89c0.25,0.14,0.47,0.34,0.67,0.54
						c0.74,0.74,1.52,1.44,2.28,2.16c0.75,0.72,1.41,1.53,2.21,2.19c0.44,0.36,0.91,0.7,1.36,1.05c0.41,0.31,0.73,0.71,1.08,1.09
						c0.47,0.53,1.11,0.97,1.77,1.24c0.53,0.21,0.99,0.56,1.36,0.98c0.21,0.24,0.42,0.48,0.65,0.71c0.26,0.27,0.59,0.48,0.83,0.77
						c0.22,0.27,0.45,0.56,0.71,0.79c0.32,0.29,0.71,0.42,1.1,0.58c0.28,0.11,0.34,0.4,0.51,0.62c0.06,0.08,0.16,0.12,0.24,0.19
						c0.11,0.1,0.22,0.21,0.35,0.3c0.19,0.13,0.38,0.26,0.57,0.39c0.22,0.15,0.49,0.36,0.78,0.41c0.13,0.02,0.25,0.02,0.38,0.06
						C163.35,281.64,163.85,281.72,163.74,281.34z"/>
				</g>
			</g>
			<g>
				<g>
					<path class="st1" d="M136.59,245.88c0.08,0.18,0.25,0.38,0.33,0.47c0.42,0.48,0.81,0.96,1.27,1.41
						c0.35,0.35,0.71,0.7,1.07,1.03c0.33,0.31,0.7,0.59,1,0.93c0.69,0.77,1.35,1.55,2.02,2.34c0.98,1.17,2.13,2.07,3.24,3.08
						c0.22,0.2,0.44,0.42,0.65,0.63c0.34,0.36,0.68,0.7,1.04,1.03c0.9,0.84,1.82,1.68,2.67,2.58c0.42,0.45,0.82,0.93,1.27,1.34
						c0.5,0.46,0.88,0.99,1.35,1.46c1.21,1.22,2.54,2.34,3.8,3.51c0.58,0.54,1.45,0.93,1.86,1.63c0.17,0.3,0.25,0.58,0.5,0.86
						c0.35,0.37,0.7,0.74,1.06,1.1c0.28,0.29,0.5,0.57,0.75,0.87c0.61,0.72,1.5,1.24,2.2,1.86c1.06,0.94,1.99,1.98,2.96,3.01
						c0.18,0.19,0.35,0.39,0.53,0.58c0.12,0.13,0.26,0.22,0.39,0.33c0.17,0.14,0.32,0.29,0.47,0.44c0.24,0.24,0.48,0.48,0.71,0.73
						c0.38,0.41,0.74,0.84,1.14,1.23c0.21,0.2,0.37,0.33,0.62,0.4c0.1,0.03,0.22,0.07,0.31,0.06c0.08-0.01,0.07-0.03,0.06-0.12
						c-0.01-0.08-0.03-0.12-0.01-0.2c0.02-0.07,0.04-0.11,0.03-0.19c-0.04-0.29-0.34-0.66-0.54-0.9c-0.26-0.32-0.56-0.6-0.85-0.89
						c-0.47-0.47-1.01-0.94-1.42-1.45c-0.38-0.48-0.77-0.83-1.26-1.2c-0.52-0.39-1.02-0.91-1.42-1.43c-0.47-0.61-0.96-1.1-1.57-1.57
						c-0.37-0.29-0.7-0.62-1.01-0.97c-1.15-1.26-2.34-2.48-3.51-3.72c-1.16-1.23-2.22-2.55-3.43-3.73
						c-0.67-0.65-1.36-1.27-2.05-1.91c-0.62-0.57-1.13-1.21-1.67-1.85c-0.74-0.87-1.69-1.71-2.64-2.33
						c-0.75-0.49-1.44-1.12-2.02-1.82c-0.33-0.4-0.67-0.79-1.02-1.18c-0.41-0.46-0.89-0.86-1.28-1.34c-0.36-0.44-0.72-0.9-1.12-1.31
						c-0.48-0.5-1.04-0.84-1.6-1.2c-0.39-0.26-0.54-0.66-0.82-1.01c-0.1-0.13-0.25-0.23-0.36-0.35c-0.17-0.18-0.34-0.37-0.53-0.53
						c-0.28-0.25-0.56-0.5-0.85-0.74c-0.33-0.28-0.74-0.67-1.12-0.84c-0.18-0.08-0.34-0.12-0.52-0.23
						C137.04,245.65,136.35,245.33,136.59,245.88z"/>
				</g>
			</g>
			<g>
				<g>
					<path class="st1" d="M176.75,274.94c-0.12-0.21-0.36-0.46-0.48-0.57c-0.59-0.59-1.13-1.17-1.75-1.73
						c-0.48-0.43-0.96-0.85-1.44-1.28c-0.45-0.39-0.92-0.74-1.34-1.15c-0.95-0.94-1.87-1.9-2.8-2.86c-1.37-1.42-2.87-2.56-4.37-3.82
						c-0.3-0.25-0.59-0.51-0.87-0.78c-0.46-0.44-0.93-0.86-1.41-1.27c-1.21-1.04-2.45-2.08-3.61-3.18
						c-0.58-0.55-1.14-1.13-1.75-1.64c-0.67-0.57-1.23-1.2-1.86-1.78c-1.66-1.5-3.42-2.89-5.13-4.32c-0.79-0.66-1.88-1.18-2.5-2.01
						c-0.26-0.35-0.42-0.68-0.77-1.01c-0.48-0.45-0.97-0.9-1.47-1.34c-0.39-0.35-0.71-0.68-1.06-1.04
						c-0.86-0.86-2.02-1.52-2.96-2.27c-1.44-1.13-2.77-2.38-4.14-3.59c-0.25-0.23-0.5-0.46-0.75-0.69
						c-0.17-0.15-0.35-0.26-0.53-0.39c-0.23-0.16-0.44-0.34-0.66-0.52c-0.34-0.28-0.68-0.57-1.01-0.86
						c-0.54-0.49-1.08-0.97-1.64-1.43c-0.29-0.24-0.51-0.38-0.82-0.47c-0.12-0.03-0.28-0.09-0.38-0.08
						c-0.09,0.01-0.08,0.04-0.03,0.14c0.04,0.09,0.07,0.14,0.07,0.22c0,0.07-0.02,0.12,0.01,0.21c0.12,0.33,0.56,0.75,0.86,1.03
						c0.38,0.37,0.81,0.69,1.21,1.03c0.66,0.55,1.41,1.1,2.01,1.7c0.56,0.56,1.08,0.98,1.74,1.42c0.7,0.47,1.4,1.1,1.98,1.71
						c0.68,0.72,1.37,1.31,2.17,1.89c0.49,0.35,0.95,0.76,1.39,1.17c1.63,1.5,3.25,2.99,4.87,4.49c1.6,1.49,3.11,3.08,4.75,4.53
						c0.92,0.78,1.84,1.57,2.76,2.35c0.83,0.71,1.55,1.48,2.32,2.26c1.04,1.06,2.3,2.1,3.52,2.89c0.96,0.63,1.89,1.41,2.7,2.26
						c0.48,0.49,0.94,0.96,1.41,1.44c0.57,0.56,1.2,1.06,1.75,1.64c0.5,0.53,1.02,1.1,1.56,1.6c0.66,0.62,1.37,1.05,2.09,1.52
						c0.51,0.33,0.76,0.8,1.15,1.23c0.14,0.16,0.33,0.28,0.49,0.43c0.23,0.22,0.47,0.45,0.71,0.65c0.38,0.31,0.75,0.62,1.13,0.93
						c0.44,0.35,0.98,0.83,1.47,1.07c0.22,0.11,0.42,0.17,0.65,0.31C176.28,275.17,177.13,275.59,176.75,274.94z"/>
				</g>
			</g>
			<g>
				<g>
					<path class="st1" d="M204.52,283.94c-0.37-0.44-0.96-1.03-1.24-1.3c-1.45-1.41-2.81-2.78-4.31-4.17l-3.45-3.2
						c-1.06-0.97-2.15-1.91-3.18-2.9c-2.33-2.28-4.65-4.54-6.98-6.82c-3.43-3.37-6.92-6.35-10.48-9.51
						c-0.71-0.64-1.42-1.28-2.12-1.92c-1.13-1.05-2.27-2.08-3.43-3.1c-2.93-2.57-5.89-5.16-8.83-7.74
						c-1.45-1.28-2.92-2.61-4.43-3.84c-1.67-1.36-3.18-2.73-4.84-4.04c-1.55-1.22-3.14-2.4-4.8-3.49c-0.84-0.54-1.69-1.07-2.6-1.53
						c-0.46-0.23-0.93-0.44-1.46-0.6c-0.27-0.08-0.54-0.15-0.88-0.16c-0.32-0.01-0.76,0.02-1.13,0.39l-0.43,0.42l0.43,0.42
						c1.1,1.07,2.19,2.13,3.29,3.19c1.8,1.75,4.04,3.52,5.64,5.41c0.68,0.81,1.15,1.49,1.97,2.33l3.39,3.44
						c0.9,0.9,1.66,1.73,2.51,2.62c2.04,2.15,4.47,4.21,6.59,6.25c3.21,3.1,6.3,6.29,9.42,9.47l1.73,1.78
						c0.38,0.39,0.77,0.74,1.17,1.11c0.49,0.46,0.97,0.94,1.45,1.42c0.75,0.76,1.52,1.53,2.27,2.29c1.24,1.27,2.45,2.54,3.71,3.8
						c0.65,0.65,1.12,1.08,1.72,1.5c0.23,0.16,0.55,0.4,0.72,0.47c0.16,0.07,0.12,0.01-0.01-0.19c-0.11-0.18-0.2-0.28-0.24-0.42
						c-0.04-0.12-0.03-0.18-0.14-0.35c-0.4-0.65-1.41-1.73-2.09-2.46c-0.88-0.94-1.81-1.85-2.73-2.76
						c-1.48-1.48-3.12-3.05-4.54-4.56c-1.31-1.4-2.49-2.55-3.91-3.85c-1.51-1.38-3.12-3.01-4.51-4.52c-1.63-1.77-3.2-3.34-4.96-4.97
						c-1.08-1-2.12-2.05-3.16-3.12l-11.33-11.54l-7.01-7.25l-0.08,0.95c0.02,0.02,0.03,0.04,0.03,0.05
						c0.05,0.09,0.03,0.06,0.04,0.06c0.03,0,0.06-0.02,0.15,0c0.13,0,0.34,0.06,0.53,0.12c0.4,0.13,0.81,0.33,1.23,0.55
						c0.83,0.44,1.64,0.97,2.45,1.5c2.41,1.62,4.75,3.41,7.05,5.23c2.07,1.65,3.98,3.38,5.94,5.15c2.67,2.42,5.71,5.01,8.47,7.18
						c2.19,1.72,4.41,3.67,6.46,5.65c1.18,1.14,2.35,2.26,3.54,3.4c1.41,1.34,2.89,2.63,4.27,4c1.26,1.24,2.58,2.57,3.89,3.8
						c1.61,1.52,3.17,2.75,4.78,4.07c1.14,0.93,1.91,1.9,2.89,2.89c0.36,0.36,0.78,0.71,1.16,1.07c0.57,0.54,1.14,1.09,1.72,1.62
						l2.65,2.38c1.02,0.91,2.32,2.11,3.35,2.86c0.48,0.35,0.86,0.6,1.38,1.01C203.85,283.97,205.65,285.3,204.52,283.94z"/>
				</g>
			</g>
			<g>
				<g>
					<path class="st1" d="M231.24,290.4c-0.51-0.56-1.31-1.33-1.68-1.68c-1.95-1.85-3.79-3.63-5.79-5.47l-4.6-4.22
						c-1.41-1.29-2.85-2.54-4.22-3.85c-3.12-3-6.22-5.97-9.33-8.96c-4.59-4.43-9.18-8.43-13.89-12.63c-0.94-0.85-1.88-1.7-2.82-2.55
						c-1.51-1.39-3.02-2.75-4.56-4.11c-3.9-3.4-7.84-6.83-11.75-10.24c-1.95-1.68-3.93-3.41-5.96-5c-2.26-1.76-4.34-3.51-6.72-5.05
						c-0.7-0.44-1.41-0.87-2.18-1.25c-0.4-0.18-0.79-0.36-1.26-0.48c-0.11-0.04-0.24-0.06-0.37-0.08c-0.12-0.02-0.26-0.04-0.42-0.03
						c-0.28-0.02-0.72,0.09-1.05,0.4l-0.52,0.49l0.52,0.52c3.97,3.96,8.04,7.86,12.03,11.78c2.38,2.33,5.28,4.75,7.44,7.21
						c0.92,1.05,1.58,1.92,2.67,3.03l4.51,4.56c1.19,1.2,2.21,2.28,3.35,3.46c2.72,2.83,5.89,5.63,8.69,8.36
						c4.25,4.13,8.36,8.34,12.51,12.55l2.3,2.36c0.51,0.52,1.02,0.98,1.54,1.48c0.64,0.63,1.28,1.26,1.92,1.89
						c1,1.01,2.02,2.03,3.02,3.04c1.65,1.68,3.28,3.34,4.94,5.02c0.86,0.86,1.48,1.44,2.25,2.03c0.29,0.22,0.7,0.55,0.91,0.66
						c0.2,0.1,0.14,0.03-0.05-0.23c-0.16-0.22-0.27-0.36-0.35-0.53c-0.07-0.15-0.07-0.22-0.22-0.43c-0.57-0.82-1.93-2.24-2.84-3.2
						c-1.18-1.24-2.41-2.45-3.63-3.66c-1.97-1.97-4.13-4.06-6.02-6.05c-1.75-1.85-3.31-3.38-5.18-5.12c-1.98-1.85-4.13-4.01-5.99-6
						c-2.19-2.33-4.27-4.41-6.59-6.59c-1.43-1.34-2.81-2.73-4.19-4.15c-5.02-5.09-10.05-10.18-15.07-15.27
						c-4.98-5.05-9.84-10.17-14.87-15.17l-2.07-2.07l-0.13,0.95c0.02,0.02,0.03,0.04,0.04,0.06c0,0.01,0,0.02,0.05,0.11
						c0.01,0.01,0-0.02,0.05-0.01c0.07-0.01,0.2,0.01,0.33,0.03c0.28,0.07,0.59,0.18,0.9,0.32c0.62,0.28,1.24,0.63,1.86,1
						c1.23,0.75,2.42,1.58,3.6,2.44c2.83,2.07,5.4,4.31,8.04,6.62c3.6,3.16,7.62,6.59,11.24,9.51c2.87,2.31,5.82,4.92,8.55,7.53
						c1.58,1.49,3.14,2.98,4.73,4.48c1.88,1.77,3.83,3.5,5.69,5.29c1.69,1.64,3.46,3.37,5.2,5c2.15,2,4.18,3.67,6.29,5.45
						c1.49,1.25,2.56,2.49,3.88,3.79c0.48,0.48,1.03,0.94,1.54,1.42c0.76,0.72,1.52,1.44,2.3,2.13l3.52,3.15
						c1.35,1.21,3.09,2.79,4.42,3.82c0.62,0.48,1.12,0.82,1.79,1.37C230.45,290.33,232.81,292.14,231.24,290.4z"/>
				</g>
			</g>
			<g>
				<g>
					<path class="st1" d="M228.86,270.88c-0.22-0.27-0.61-0.61-0.78-0.77c-0.93-0.82-1.81-1.61-2.78-2.4l-2.25-1.8
						c-0.69-0.54-1.41-1.05-2.08-1.62c-1.5-1.31-2.99-2.61-4.5-3.93c-2.21-1.94-4.52-3.55-6.87-5.28c-0.47-0.35-0.94-0.7-1.39-1.06
						c-0.74-0.59-1.5-1.15-2.27-1.71c-1.94-1.39-3.93-2.76-5.95-4.1c-1.02-0.65-2-1.36-3.28-1.78c-0.19-0.07-0.42-0.12-0.67-0.15
						c-0.25-0.02-0.63-0.04-1.03,0.3l-0.5,0.41l0.5,0.52c0.64,0.67,1.25,1.35,1.9,2.01c2.35,2.36,4.82,4.62,7.22,6.93
						c1.11,1.06,2.57,2.05,3.49,3.27c0.39,0.52,0.64,0.97,1.14,1.49l2.07,2.11c0.55,0.55,1,1.07,1.51,1.63
						c1.23,1.34,2.78,2.52,4.09,3.76c1.99,1.87,3.85,3.84,5.75,5.8l1.05,1.1c0.23,0.24,0.48,0.44,0.73,0.66
						c0.31,0.28,0.6,0.57,0.9,0.86c0.46,0.47,0.92,0.94,1.38,1.41c0.75,0.78,1.48,1.57,2.25,2.34c0.4,0.4,0.69,0.65,1.1,0.87
						c0.15,0.08,0.36,0.21,0.49,0.24c0.12,0.02,0.09-0.01,0.03-0.15c-0.06-0.12-0.1-0.19-0.11-0.29c-0.01-0.09,0.01-0.14-0.04-0.26
						c-0.2-0.45-0.8-1.12-1.21-1.57c-0.53-0.59-1.1-1.14-1.66-1.7c-0.91-0.91-1.92-1.85-2.77-2.8c-0.78-0.88-1.51-1.57-2.4-2.34
						c-0.95-0.82-1.93-1.82-2.76-2.77c-0.97-1.11-1.93-2.07-3.03-3.04c-0.68-0.6-1.31-1.24-1.94-1.9c-2.3-2.37-4.59-4.73-6.89-7.1
						c-2.27-2.35-4.44-4.78-6.77-7.08l-3.89-3.76c-0.22-0.22-0.44-0.44-0.66-0.66l-0.23,0.73c0.04,0.03,0.06,0.07,0.07,0.1
						c0.02,0.06-0.02,0.02,0.04,0.16c0.04,0.09,0.03,0.03,0.05,0.04c0.1,0.03,0.19,0.03,0.32,0.08c0.24,0.08,0.52,0.21,0.78,0.35
						c0.53,0.28,1.06,0.63,1.6,0.97c1.79,1.21,3.81,2.55,5.67,3.63c1.47,0.86,2.94,1.92,4.27,3.05c0.77,0.65,1.53,1.29,2.3,1.93
						c0.91,0.76,1.89,1.46,2.78,2.25c0.81,0.72,1.66,1.49,2.51,2.18c1.05,0.86,2.09,1.49,3.16,2.19c0.76,0.49,1.22,1.1,1.85,1.68
						c0.23,0.21,0.51,0.39,0.75,0.6c0.37,0.31,0.74,0.62,1.12,0.91l1.74,1.32c0.67,0.5,1.52,1.18,2.21,1.55
						c0.32,0.17,0.59,0.28,0.93,0.5C228.33,271.07,229.55,271.73,228.86,270.88z"/>
				</g>
			</g>
			<g>
				<g>
					<path class="st1" d="M225.58,247.31c-0.28-0.32-0.76-0.74-0.98-0.93c-1.15-1-2.23-1.97-3.42-2.94l-2.75-2.23
						c-0.85-0.67-1.72-1.31-2.53-2.01c-1.85-1.61-3.68-3.21-5.53-4.82c-2.72-2.38-5.51-4.42-8.36-6.59
						c-0.57-0.44-1.14-0.88-1.7-1.33c-0.91-0.73-1.82-1.44-2.75-2.13c-2.36-1.75-4.76-3.49-7.19-5.18
						c-1.22-0.83-2.43-1.71-3.86-2.33c-0.28-0.11-0.55-0.22-0.87-0.3c-0.16-0.04-0.34-0.07-0.55-0.08
						c-0.22,0.01-0.53,0.04-0.83,0.31l-0.47,0.44l0.47,0.49c0.72,0.76,1.41,1.52,2.15,2.26c2.89,2.9,5.89,5.72,8.83,8.56
						c1.36,1.31,3.1,2.58,4.27,4.04c0.5,0.62,0.83,1.16,1.44,1.79l2.55,2.59c0.68,0.68,1.24,1.31,1.87,1.98
						c1.52,1.63,3.39,3.13,5,4.66c2.43,2.31,4.74,4.73,7.08,7.12l1.29,1.35c0.29,0.3,0.59,0.55,0.89,0.82
						c0.38,0.34,0.73,0.7,1.1,1.06c0.57,0.57,1.14,1.15,1.7,1.72c0.92,0.96,1.83,1.92,2.78,2.86c0.49,0.49,0.84,0.81,1.32,1.1
						c0.18,0.11,0.43,0.28,0.57,0.32c0.13,0.04,0.1-0.01,0.01-0.17c-0.08-0.14-0.14-0.23-0.16-0.34c-0.02-0.1,0-0.15-0.08-0.29
						c-0.27-0.52-1.02-1.34-1.53-1.89c-0.65-0.71-1.36-1.39-2.05-2.08c-1.11-1.11-2.36-2.28-3.41-3.44
						c-0.97-1.07-1.86-1.93-2.95-2.89c-1.15-1.02-2.36-2.25-3.39-3.4c-1.21-1.35-2.39-2.53-3.73-3.74
						c-0.83-0.74-1.61-1.53-2.38-2.34c-2.83-2.9-5.66-5.8-8.49-8.7c-2.8-2.88-5.51-5.83-8.36-8.66l-4.76-4.64
						c-0.21-0.21-0.41-0.41-0.62-0.61l-0.23,0.72c0.04,0.04,0.01,0.01,0.07,0.11c0.02,0.04,0.03,0.08,0.03,0.12
						c0.01,0.07,0.02,0.09,0.02,0.08c0,0,0.07,0,0.13,0.01c0.13,0.02,0.31,0.08,0.47,0.15c0.34,0.14,0.7,0.32,1.04,0.52
						c0.7,0.4,1.38,0.86,2.07,1.34c2.19,1.54,4.63,3.26,6.87,4.66c1.77,1.11,3.55,2.45,5.18,3.84c0.94,0.8,1.87,1.59,2.81,2.38
						c1.12,0.94,2.3,1.82,3.4,2.79c1,0.88,2.04,1.82,3.08,2.68c1.28,1.06,2.53,1.88,3.83,2.77c0.91,0.62,1.51,1.35,2.29,2.05
						c0.28,0.26,0.62,0.49,0.92,0.75c0.45,0.38,0.9,0.77,1.37,1.13l2.12,1.64c0.81,0.63,1.85,1.46,2.68,1.95
						c0.38,0.23,0.7,0.38,1.11,0.65C225,247.45,226.46,248.31,225.58,247.31z"/>
				</g>
			</g>
			<g>
				<g>
					<path class="st1" d="M231,234.43c-0.21-0.26-0.57-0.58-0.74-0.72c-0.88-0.76-1.71-1.51-2.63-2.24l-2.13-1.68
						c-0.66-0.51-1.34-0.98-1.96-1.51c-1.41-1.23-2.82-2.45-4.24-3.68c-2.08-1.82-4.26-3.32-6.47-4.95c-0.44-0.33-0.88-0.66-1.31-1
						c-0.7-0.55-1.4-1.09-2.12-1.61c-1.83-1.31-3.66-2.64-5.49-3.96c-0.9-0.66-1.82-1.35-2.79-1.94c-1.08-0.64-2.02-1.36-3.26-1.86
						c-0.22-0.08-0.46-0.16-0.74-0.21c-0.15-0.02-0.3-0.04-0.51-0.03c-0.2,0.02-0.49,0.09-0.74,0.33l-0.53,0.51l0.53,0.52
						c1.94,1.9,3.94,3.74,5.89,5.61c1.04,1,2.43,1.91,3.29,3.06c0.36,0.49,0.59,0.93,1.06,1.41l1.94,1.99
						c0.52,0.52,0.94,1.01,1.42,1.53c1.15,1.26,2.62,2.36,3.86,3.53c1.87,1.76,3.63,3.61,5.41,5.45l0.98,1.04
						c0.22,0.23,0.45,0.42,0.69,0.62c0.29,0.26,0.56,0.53,0.84,0.81c0.43,0.44,0.87,0.88,1.3,1.32c0.7,0.74,1.39,1.48,2.11,2.2
						c0.37,0.37,0.65,0.61,1.04,0.81c0.15,0.08,0.35,0.2,0.47,0.21c0.11,0.02,0.09-0.02,0.03-0.15c-0.05-0.11-0.09-0.18-0.1-0.28
						c-0.01-0.09,0.01-0.14-0.03-0.25c-0.18-0.43-0.74-1.06-1.12-1.49c-0.49-0.55-1.04-1.07-1.56-1.6c-0.85-0.85-1.81-1.74-2.6-2.63
						c-0.73-0.83-1.42-1.48-2.26-2.2c-0.9-0.76-1.82-1.71-2.59-2.6c-0.91-1.05-1.81-1.95-2.85-2.86c-0.64-0.56-1.24-1.16-1.83-1.79
						c-2.16-2.23-4.31-4.45-6.47-6.68c-2.14-2.21-4.17-4.5-6.36-6.66l-1.51-1.46l-0.29,0.76c0.02,0.01,0.03,0.03,0.03,0.04
						c0.02,0.02,0.04,0.08,0.05,0.12c0,0.03,0.04,0.13,0.04,0.19c0.01,0.07-0.01,0.01,0.01,0.03c0.03,0,0.1,0,0.19,0.02
						c0.17,0.04,0.38,0.1,0.59,0.18c0.42,0.16,0.85,0.38,1.28,0.61c1.31,0.71,2.49,1.6,3.69,2.51c1.64,1.25,3.53,2.54,5.27,3.56
						c1.38,0.81,2.76,1.81,4,2.88c0.72,0.61,1.43,1.21,2.15,1.82c0.86,0.72,1.78,1.37,2.62,2.11c0.76,0.68,1.56,1.4,2.36,2.05
						c0.99,0.8,1.97,1.39,2.99,2.03c0.72,0.45,1.15,1.03,1.75,1.58c0.22,0.2,0.48,0.37,0.71,0.56c0.35,0.29,0.7,0.58,1.06,0.85
						l1.64,1.23c0.63,0.47,1.44,1.1,2.09,1.43c0.31,0.16,0.56,0.26,0.89,0.45C230.49,234.64,231.65,235.24,231,234.43z"/>
				</g>
			</g>
			<g>
				<g>
					<path class="st1" d="M239.82,224.98c-0.32-0.4-0.85-0.93-1.1-1.17c-1.29-1.27-2.5-2.49-3.84-3.74l-3.09-2.85
						c-0.95-0.87-1.93-1.7-2.85-2.58c-2.09-2.03-4.16-4.05-6.24-6.09c-3.08-3-6.23-5.63-9.45-8.41c-0.64-0.57-1.28-1.13-1.92-1.69
						c-1.03-0.92-2.06-1.83-3.12-2.72c-2.66-2.25-5.39-4.48-8.1-6.69c-1.35-1.1-2.72-2.22-4.16-3.22c-1.62-1.08-3.04-2.24-4.94-3.01
						c-0.31-0.12-0.65-0.22-1.05-0.27c-0.37-0.04-0.95-0.06-1.46,0.41l-0.54,0.5l0.54,0.53c3.03,3,6.13,5.94,9.18,8.9
						c1.61,1.56,3.63,3.12,5.05,4.82c0.6,0.73,1.01,1.35,1.74,2.1l3.03,3.08c0.8,0.81,1.48,1.55,2.23,2.35
						c1.82,1.93,4,3.75,5.9,5.57c2.88,2.76,5.63,5.62,8.41,8.46l1.54,1.6c0.34,0.35,0.69,0.66,1.05,0.99
						c0.44,0.41,0.87,0.84,1.3,1.27c0.67,0.68,1.35,1.37,2.03,2.05c1.1,1.14,2.18,2.28,3.31,3.4c0.58,0.58,1,0.96,1.55,1.33
						c0.21,0.14,0.5,0.35,0.66,0.4c0.15,0.05,0.11,0,0-0.18c-0.1-0.16-0.17-0.26-0.21-0.39c-0.03-0.11-0.02-0.17-0.11-0.33
						c-0.34-0.59-1.24-1.56-1.85-2.22c-0.78-0.84-1.62-1.65-2.44-2.47c-1.32-1.33-2.79-2.72-4.05-4.08
						c-1.17-1.26-2.22-2.28-3.5-3.44c-1.35-1.22-2.79-2.68-4.03-4.04c-1.45-1.59-2.85-2.99-4.43-4.44c-0.97-0.89-1.9-1.83-2.83-2.79
						l-10.11-10.32c-3.34-3.41-6.57-6.9-9.96-10.27l-2.43-2.38l-0.07,0.99c0.01,0.01,0.02,0.02,0.02,0.03c0,0,0.01,0.02,0.03,0.04
						c0.01,0.02,0.01,0.01,0.01,0.01c-0.01-0.01,0.04-0.01,0.06-0.02c0.09,0,0.21,0,0.35,0.03c0.28,0.05,0.6,0.16,0.92,0.3
						c0.64,0.27,1.28,0.62,1.91,0.99c1.99,1.2,3.77,2.65,5.58,4.15c2.47,2.05,5.24,4.27,7.77,6.13c2,1.47,4.02,3.19,5.86,4.94
						c1.07,1.01,2.12,2,3.19,3.01c1.27,1.19,2.6,2.32,3.84,3.54c1.13,1.11,2.31,2.29,3.49,3.38c1.44,1.35,2.85,2.43,4.3,3.59
						c1.02,0.82,1.7,1.69,2.58,2.59c0.32,0.33,0.7,0.63,1.04,0.95c0.51,0.49,1.02,0.97,1.54,1.44l2.37,2.12
						c0.91,0.81,2.08,1.88,3,2.55c0.43,0.31,0.78,0.52,1.24,0.89C239.19,225.04,240.82,226.21,239.82,224.98z"/>
				</g>
			</g>
			<g>
				<g>
					<path class="st1" d="M215.98,191.98c0.06,0.16,0.21,0.34,0.28,0.42c0.36,0.42,0.7,0.84,1.1,1.23c0.31,0.3,0.61,0.6,0.93,0.89
						c0.29,0.27,0.61,0.51,0.87,0.8c0.59,0.67,1.16,1.36,1.73,2.06c0.84,1.03,1.85,1.79,2.82,2.67c0.2,0.18,0.38,0.36,0.56,0.55
						c0.29,0.31,0.59,0.61,0.9,0.89c0.79,0.73,1.59,1.45,2.32,2.23c0.36,0.39,0.71,0.81,1.1,1.17c0.44,0.39,0.76,0.86,1.17,1.27
						c1.05,1.06,2.22,2.02,3.32,3.03c0.51,0.46,1.3,0.78,1.63,1.4c0.14,0.27,0.2,0.53,0.41,0.77c0.3,0.33,0.6,0.65,0.91,0.96
						c0.25,0.25,0.43,0.5,0.65,0.76c0.52,0.63,1.32,1.06,1.93,1.6c0.92,0.81,1.73,1.72,2.57,2.62c0.16,0.17,0.3,0.34,0.45,0.51
						c0.1,0.11,0.23,0.19,0.34,0.28c0.15,0.12,0.28,0.25,0.41,0.38c0.21,0.21,0.42,0.42,0.61,0.64c0.33,0.36,0.64,0.73,0.99,1.07
						c0.18,0.18,0.32,0.28,0.55,0.33c0.09,0.02,0.2,0.05,0.29,0.04c0.08-0.02,0.07-0.04,0.06-0.12c-0.01-0.07-0.02-0.11,0-0.18
						c0.02-0.06,0.05-0.1,0.04-0.18c-0.02-0.27-0.27-0.59-0.44-0.81c-0.22-0.28-0.48-0.52-0.74-0.77c-0.41-0.41-0.88-0.81-1.23-1.26
						c-0.33-0.42-0.66-0.72-1.1-1.03c-0.46-0.33-0.9-0.79-1.23-1.25c-0.4-0.54-0.83-0.97-1.36-1.37c-0.33-0.25-0.61-0.54-0.88-0.84
						c-0.99-1.1-2.03-2.16-3.03-3.24c-1-1.08-1.9-2.24-2.96-3.26c-0.58-0.56-1.19-1.1-1.79-1.65c-0.54-0.49-0.98-1.06-1.44-1.62
						c-0.64-0.77-1.47-1.48-2.31-2c-0.67-0.41-1.27-0.95-1.77-1.57c-0.28-0.35-0.57-0.69-0.87-1.03c-0.35-0.4-0.77-0.74-1.11-1.16
						c-0.3-0.38-0.62-0.8-0.96-1.15c-0.42-0.44-0.91-0.71-1.41-1.02c-0.35-0.22-0.46-0.58-0.7-0.89c-0.09-0.11-0.21-0.19-0.31-0.3
						c-0.15-0.16-0.29-0.32-0.46-0.46c-0.25-0.21-0.49-0.43-0.74-0.64c-0.29-0.24-0.64-0.58-0.99-0.71
						c-0.16-0.06-0.31-0.09-0.47-0.18C216.41,191.74,215.79,191.49,215.98,191.98z"/>
				</g>
			</g>
			<g>
				<g>
					<path class="st1" d="M196.71,168.15c-0.03-0.11-0.12-0.2-0.16-0.24c-0.22-0.21-0.43-0.42-0.68-0.59
						c-0.2-0.13-0.39-0.26-0.6-0.37c-0.19-0.11-0.4-0.18-0.57-0.31c-0.36-0.3-0.74-0.63-1.14-0.97c-0.58-0.48-1.29-0.68-2.08-0.86
						c-0.16-0.04-0.32-0.07-0.46-0.12c-0.27-0.07-0.66-0.16-1.12,0.07c-0.1,0.05-0.19,0.12-0.27,0.19l-0.55,0.52l0.52,0.44
						c0.4,0.34,0.81,0.68,1.16,1.08c0.19,0.22,0.36,0.46,0.58,0.65c0.25,0.2,0.39,0.49,0.6,0.71c0.57,0.57,1.24,1.05,1.86,1.57
						c0.29,0.24,0.82,0.3,0.93,0.71c0.05,0.17,0.03,0.36,0.14,0.5c0.15,0.18,0.32,0.36,0.48,0.53c0.13,0.14,0.22,0.28,0.32,0.44
						c0.26,0.36,0.77,0.51,1.12,0.78c0.53,0.41,0.94,0.93,1.37,1.42c0.07,0.09,0.16,0.2,0.23,0.29c0.05,0.06,0.13,0.09,0.2,0.14
						c0.09,0.06,0.16,0.13,0.23,0.2c0.11,0.11,0.23,0.23,0.33,0.35c0.17,0.2,0.32,0.42,0.51,0.6c0.1,0.09,0.18,0.14,0.35,0.13
						c0.06-0.01,0.15-0.01,0.21-0.04c0.06-0.03,0.06-0.04,0.08-0.11c0.01-0.05,0.01-0.08,0.04-0.14c0.03-0.05,0.06-0.09,0.07-0.14
						c0.05-0.2-0.07-0.39-0.15-0.52c-0.1-0.16-0.25-0.29-0.39-0.43c-0.22-0.22-0.49-0.42-0.66-0.69c-0.15-0.25-0.34-0.4-0.61-0.54
						c-0.28-0.15-0.51-0.4-0.66-0.67c-0.18-0.32-0.41-0.55-0.73-0.74c-0.2-0.11-0.34-0.27-0.49-0.44c-0.51-0.62-1.06-1.19-1.59-1.8
						c-0.52-0.6-0.95-1.28-1.52-1.83c-0.32-0.3-0.66-0.57-1-0.86c-0.3-0.26-0.51-0.59-0.74-0.91c-0.31-0.44-0.79-0.81-1.32-1.01
						c-0.04-0.02-0.08-0.04-0.12-0.05l-0.03,0.78c-0.04-0.06,0.01-0.14,0.15-0.14c0.12-0.01,0.31,0.06,0.47,0.14
						c0.21,0.12,0.4,0.23,0.58,0.34c0.23,0.14,0.5,0.21,0.72,0.4c0.2,0.17,0.39,0.36,0.61,0.5c0.27,0.17,0.59,0.19,0.92,0.24
						c0.23,0.03,0.29,0.28,0.43,0.44c0.05,0.06,0.14,0.07,0.2,0.12c0.09,0.07,0.18,0.14,0.29,0.19c0.15,0.08,0.31,0.15,0.47,0.23
						c0.18,0.09,0.41,0.22,0.64,0.21c0.11-0.01,0.21-0.04,0.32-0.02C196.37,168.51,196.79,168.48,196.71,168.15z"/>
				</g>
			</g>
			<g>
				<g>
					<path class="st1" d="M250.48,214.46c-0.05-0.13-0.17-0.27-0.23-0.34c-0.3-0.33-0.58-0.65-0.92-0.94
						c-0.26-0.22-0.52-0.45-0.79-0.66c-0.25-0.2-0.52-0.36-0.74-0.59c-0.5-0.52-0.97-1.05-1.44-1.59c-0.7-0.79-1.56-1.33-2.38-1.97
						c-0.17-0.13-0.32-0.27-0.47-0.41c-0.24-0.23-0.49-0.46-0.76-0.67c-0.66-0.53-1.35-1.06-1.96-1.65c-0.3-0.3-0.59-0.62-0.92-0.88
						c-0.37-0.29-0.63-0.66-0.98-0.97c-0.89-0.79-1.87-1.48-2.81-2.22c-0.43-0.34-1.12-0.5-1.38-1.01
						c-0.11-0.22-0.15-0.45-0.33-0.63c-0.25-0.25-0.51-0.49-0.77-0.73c-0.21-0.19-0.36-0.38-0.54-0.59
						c-0.43-0.49-1.12-0.75-1.64-1.14c-0.78-0.59-1.46-1.29-2.16-1.96c-0.13-0.13-0.25-0.26-0.38-0.39
						c-0.09-0.08-0.19-0.14-0.29-0.2c-0.13-0.08-0.23-0.18-0.35-0.28c-0.18-0.15-0.35-0.31-0.52-0.48
						c-0.27-0.28-0.53-0.56-0.82-0.82c-0.15-0.13-0.27-0.21-0.48-0.21c-0.08,0-0.18-0.02-0.26,0.01c-0.07,0.03-0.07,0.04-0.06,0.12
						c0,0.06,0.01,0.1-0.01,0.16c-0.02,0.06-0.05,0.1-0.04,0.16c0,0.24,0.21,0.49,0.35,0.66c0.18,0.22,0.41,0.39,0.62,0.58
						c0.34,0.31,0.75,0.6,1.04,0.95c0.27,0.33,0.55,0.55,0.92,0.76c0.4,0.23,0.76,0.57,1.04,0.93c0.33,0.43,0.69,0.75,1.14,1.02
						c0.28,0.17,0.52,0.39,0.75,0.62c0.83,0.84,1.7,1.63,2.54,2.46c0.84,0.82,1.58,1.72,2.47,2.48c0.49,0.42,1.01,0.81,1.51,1.21
						c0.45,0.36,0.82,0.8,1.2,1.24c0.53,0.59,1.23,1.11,1.96,1.45c0.57,0.27,1.09,0.66,1.5,1.14c0.24,0.27,0.48,0.54,0.73,0.8
						c0.29,0.31,0.65,0.55,0.93,0.88c0.25,0.3,0.51,0.62,0.8,0.89c0.35,0.33,0.78,0.5,1.21,0.7c0.3,0.14,0.38,0.45,0.58,0.7
						c0.07,0.09,0.18,0.14,0.26,0.22c0.12,0.12,0.25,0.24,0.38,0.34c0.21,0.16,0.42,0.31,0.63,0.46c0.24,0.17,0.54,0.42,0.85,0.49
						c0.14,0.03,0.27,0.04,0.41,0.09C250.08,214.75,250.62,214.88,250.48,214.46z"/>
				</g>
			</g>
			<g>
				<g>
					<path class="st1" d="M239.15,196.12c0.01,0.11,0.08,0.21,0.11,0.25c0.17,0.23,0.33,0.47,0.53,0.67
						c0.16,0.15,0.32,0.31,0.49,0.45c0.16,0.13,0.34,0.24,0.47,0.4c0.29,0.37,0.55,0.75,0.82,1.14c0.39,0.58,0.97,0.91,1.5,1.34
						c0.11,0.09,0.2,0.18,0.29,0.28c0.15,0.16,0.3,0.32,0.47,0.46c0.42,0.36,0.86,0.71,1.22,1.13c0.18,0.21,0.34,0.45,0.55,0.62
						c0.24,0.19,0.37,0.47,0.58,0.68c0.54,0.55,1.19,1,1.79,1.5c0.27,0.23,0.8,0.28,0.9,0.67c0.04,0.17,0.02,0.35,0.13,0.48
						c0.15,0.18,0.3,0.35,0.46,0.51c0.13,0.13,0.21,0.27,0.31,0.42c0.24,0.35,0.74,0.49,1.08,0.74c0.51,0.39,0.9,0.89,1.32,1.36
						c0.08,0.09,0.14,0.19,0.22,0.28c0.05,0.06,0.13,0.09,0.19,0.13c0.08,0.05,0.15,0.12,0.22,0.19c0.11,0.11,0.22,0.22,0.31,0.33
						c0.16,0.2,0.31,0.4,0.49,0.58c0.09,0.09,0.17,0.14,0.34,0.12c0.06-0.01,0.14-0.01,0.21-0.04c0.06-0.03,0.06-0.05,0.08-0.11
						c0.01-0.05,0.01-0.08,0.04-0.14c0.03-0.05,0.06-0.09,0.07-0.14c0.05-0.2-0.06-0.38-0.14-0.51c-0.1-0.16-0.24-0.28-0.37-0.41
						c-0.21-0.21-0.47-0.4-0.63-0.66c-0.15-0.24-0.33-0.39-0.58-0.52c-0.27-0.14-0.49-0.38-0.64-0.65c-0.17-0.31-0.39-0.53-0.7-0.71
						c-0.19-0.11-0.33-0.26-0.47-0.43c-0.49-0.59-1.02-1.15-1.52-1.73c-0.5-0.57-0.9-1.24-1.46-1.76c-0.31-0.29-0.64-0.55-0.96-0.82
						c-0.29-0.25-0.49-0.57-0.7-0.88c-0.3-0.43-0.76-0.77-1.27-0.96c-0.41-0.15-0.74-0.42-0.96-0.76c-0.13-0.2-0.27-0.39-0.41-0.57
						c-0.17-0.22-0.41-0.38-0.56-0.62c-0.14-0.22-0.28-0.46-0.45-0.64c-0.21-0.23-0.52-0.32-0.83-0.43
						c-0.21-0.08-0.21-0.33-0.31-0.51c-0.04-0.07-0.12-0.1-0.17-0.15c-0.07-0.08-0.15-0.17-0.24-0.24c-0.14-0.1-0.27-0.2-0.41-0.3
						c-0.16-0.11-0.35-0.28-0.58-0.3c-0.11-0.01-0.21,0-0.32-0.02C239.53,195.83,239.12,195.79,239.15,196.12z"/>
				</g>
			</g>
			<g>
				<g>
					<path class="st1" d="M259.38,205.33c0.01-0.08-0.02-0.14-0.03-0.17c-0.09-0.14-0.16-0.28-0.28-0.39
						c-0.09-0.08-0.18-0.16-0.29-0.23c-0.09-0.06-0.22-0.1-0.28-0.19c-0.15-0.22-0.27-0.45-0.4-0.69c-0.19-0.35-0.56-0.47-0.88-0.67
						c-0.06-0.04-0.12-0.09-0.17-0.15c-0.08-0.09-0.17-0.17-0.27-0.24c-0.25-0.18-0.52-0.34-0.71-0.58c-0.1-0.12-0.17-0.26-0.3-0.35
						c-0.14-0.09-0.19-0.28-0.31-0.39c-0.31-0.29-0.72-0.48-1.07-0.72c-0.17-0.11-0.56-0.01-0.55-0.3c0-0.12,0.05-0.27,0-0.35
						c-0.08-0.1-0.16-0.19-0.25-0.28c-0.07-0.07-0.1-0.16-0.15-0.25c-0.12-0.21-0.47-0.19-0.68-0.31c-0.31-0.18-0.51-0.47-0.74-0.73
						c-0.04-0.05-0.07-0.11-0.12-0.16c-0.03-0.03-0.08-0.04-0.12-0.05c-0.05-0.02-0.09-0.06-0.13-0.09
						c-0.06-0.06-0.12-0.12-0.17-0.18c-0.08-0.11-0.16-0.24-0.26-0.33c-0.05-0.05-0.11-0.06-0.24-0.01
						c-0.05,0.02-0.11,0.04-0.17,0.09c-0.06,0.04-0.06,0.05-0.08,0.1c-0.02,0.04-0.02,0.06-0.06,0.12
						c-0.03,0.05-0.06,0.09-0.08,0.13c-0.08,0.17-0.03,0.28,0.01,0.36c0.04,0.1,0.13,0.16,0.2,0.23c0.12,0.11,0.28,0.19,0.35,0.36
						c0.06,0.15,0.17,0.22,0.34,0.26c0.18,0.04,0.3,0.17,0.36,0.35c0.07,0.2,0.2,0.32,0.4,0.38c0.12,0.04,0.2,0.12,0.27,0.21
						c0.26,0.34,0.55,0.64,0.82,0.97c0.27,0.32,0.45,0.74,0.77,1.01c0.18,0.15,0.38,0.27,0.57,0.4c0.17,0.12,0.26,0.32,0.37,0.51
						c0.14,0.26,0.43,0.41,0.78,0.43c0.28,0.01,0.48,0.14,0.59,0.35c0.06,0.12,0.13,0.24,0.2,0.34c0.09,0.13,0.24,0.19,0.31,0.34
						c0.06,0.14,0.12,0.29,0.22,0.39c0.12,0.13,0.34,0.12,0.55,0.13c0.15,0.01,0.1,0.2,0.14,0.32c0.02,0.04,0.07,0.05,0.1,0.08
						c0.04,0.05,0.08,0.1,0.13,0.13c0.08,0.05,0.17,0.09,0.26,0.13c0.1,0.05,0.21,0.13,0.39,0.09c0.08-0.02,0.16-0.06,0.24-0.06
						C259.02,205.65,259.33,205.58,259.38,205.33z"/>
				</g>
			</g>
			<g>
				<g>
					<path class="st1" d="M262.34,200.26c-0.05,0.05-0.06,0.07-0.06,0.08c-0.02,0.04-0.05,0.1-0.03,0.11
						c0.01,0.01,0.03,0.02,0.05,0.01c0.02,0,0.07-0.03,0.06,0c-0.02,0.06-0.06,0.15-0.1,0.23c-0.06,0.13,0.09,0.04,0.17,0.02
						c0.02,0,0.02,0,0.02,0.01c0,0.02,0.01,0.03,0.03,0.03c0.06,0,0.13-0.02,0.13,0.04c0,0.03-0.03,0.08,0.01,0.07
						c0.04-0.01-0.02,0.08-0.01,0.1c0.03,0.04,0.17-0.02,0.26-0.03c0.04,0,0.3-0.22,0.17-0.06c-0.06,0.07-0.16,0.18-0.16,0.2
						c0,0.03,0,0.04,0.01,0.06c0.01,0.01-0.02,0.05-0.03,0.08c-0.04,0.07,0.17-0.08,0.23-0.1c0.09-0.03,0.07,0.06,0.07,0.12
						c0,0.01-0.01,0.03-0.01,0.04c0,0.01,0.03-0.01,0.04-0.02c0.02-0.01,0.02-0.01,0.03,0c0.01,0.01,0.01,0.02,0.01,0.03
						c-0.01,0.03-0.02,0.07-0.01,0.08c0.01,0.01,0.03-0.01,0.13-0.09c0.04-0.03,0.08-0.07,0.13-0.12c0.05-0.05,0.06-0.05,0.09-0.09
						c0.03-0.03,0.04-0.05,0.09-0.09c0.04-0.04,0.07-0.08,0.11-0.11c0.12-0.13,0.15-0.17,0.16-0.2c0.02-0.04,0-0.04-0.01-0.05
						c-0.01-0.02-0.07,0-0.03-0.06c0.03-0.06,0.01-0.06-0.07-0.01c-0.08,0.05-0.09,0.02-0.04-0.05c0.06-0.09,0.04-0.1-0.04-0.05
						c-0.05,0.03-0.06,0.01-0.05-0.01c0.02-0.09-0.01-0.14,0-0.22c0-0.08,0.1-0.24,0.04-0.26c-0.03-0.01-0.09,0-0.13,0.01
						c-0.04,0,0.01-0.08,0.04-0.14c0.04-0.09-0.04-0.06-0.23,0.07c-0.15,0.11-0.2,0.12-0.16,0.04c0.02-0.04,0.04-0.08,0.05-0.11
						c0.01-0.04-0.04-0.01-0.01-0.07c0.03-0.05,0.07-0.11,0.06-0.13c-0.01-0.02-0.13,0.07-0.24,0.15c-0.08,0.06,0.04-0.08,0.07-0.12
						c0.01-0.02-0.02,0-0.02,0c0-0.01,0-0.02-0.01-0.02c-0.02,0.01-0.05,0.02-0.08,0.03c-0.03,0.01-0.06,0.01-0.17,0.11
						c-0.05,0.04-0.12,0.1-0.16,0.13C262.69,199.93,262.48,200.1,262.34,200.26z"/>
				</g>
			</g>
			<g>
				<g>
					<path class="st1" d="M131.6,281.82c-0.01,0.09,0.03,0.16,0.06,0.2c0.11,0.17,0.21,0.35,0.36,0.49
						c0.11,0.11,0.23,0.22,0.35,0.31c0.11,0.09,0.26,0.15,0.34,0.27c0.19,0.27,0.36,0.56,0.52,0.85c0.25,0.43,0.69,0.64,1.08,0.92
						c0.08,0.06,0.15,0.12,0.21,0.2c0.1,0.12,0.21,0.23,0.33,0.32c0.31,0.24,0.63,0.48,0.87,0.78c0.12,0.15,0.22,0.33,0.38,0.45
						c0.17,0.13,0.24,0.35,0.39,0.5c0.38,0.39,0.87,0.67,1.3,1.01c0.2,0.15,0.64,0.12,0.66,0.44c0.01,0.14-0.03,0.3,0.04,0.39
						c0.1,0.13,0.21,0.25,0.32,0.37c0.09,0.09,0.14,0.2,0.2,0.31c0.15,0.26,0.56,0.3,0.81,0.48c0.37,0.26,0.63,0.62,0.92,0.97
						c0.05,0.06,0.09,0.14,0.15,0.2c0.04,0.04,0.09,0.06,0.14,0.08c0.06,0.03,0.11,0.08,0.16,0.13c0.08,0.07,0.15,0.15,0.22,0.24
						c0.11,0.14,0.2,0.3,0.33,0.42c0.07,0.06,0.13,0.09,0.27,0.05c0.05-0.02,0.12-0.03,0.19-0.07c0.06-0.04,0.06-0.05,0.08-0.1
						c0.02-0.05,0.02-0.07,0.06-0.12c0.03-0.05,0.06-0.09,0.08-0.13c0.07-0.18,0-0.32-0.04-0.41c-0.06-0.12-0.17-0.2-0.26-0.29
						c-0.15-0.15-0.34-0.27-0.44-0.47c-0.09-0.18-0.22-0.28-0.42-0.36c-0.21-0.08-0.36-0.25-0.44-0.46c-0.1-0.24-0.26-0.4-0.49-0.5
						c-0.14-0.06-0.24-0.17-0.33-0.29c-0.33-0.43-0.7-0.83-1.04-1.25c-0.34-0.42-0.59-0.92-0.98-1.28c-0.22-0.2-0.46-0.37-0.69-0.56
						c-0.21-0.17-0.33-0.41-0.47-0.64c-0.19-0.32-0.53-0.55-0.94-0.63c-0.32-0.07-0.57-0.25-0.71-0.51
						c-0.08-0.15-0.17-0.29-0.27-0.43c-0.11-0.16-0.29-0.26-0.38-0.44c-0.09-0.16-0.17-0.35-0.29-0.48c-0.15-0.17-0.4-0.2-0.64-0.25
						c-0.17-0.04-0.13-0.25-0.19-0.39c-0.02-0.05-0.08-0.06-0.12-0.1c-0.05-0.06-0.1-0.12-0.17-0.17c-0.1-0.07-0.2-0.13-0.3-0.2
						c-0.12-0.07-0.26-0.19-0.45-0.17c-0.09,0.01-0.18,0.04-0.27,0.03C131.97,281.51,131.63,281.54,131.6,281.82z"/>
				</g>
			</g>
			<g>
				<g>
					<path class="st1" d="M133.99,265.16c0.08,0.18,0.26,0.39,0.35,0.49c0.44,0.5,0.85,1,1.34,1.48c0.37,0.36,0.74,0.72,1.12,1.08
						c0.35,0.33,0.73,0.62,1.04,0.97c0.72,0.81,1.42,1.62,2.12,2.45c1.03,1.22,2.22,2.17,3.39,3.24c0.23,0.21,0.46,0.44,0.68,0.67
						c0.35,0.37,0.71,0.73,1.09,1.08c0.94,0.88,1.9,1.76,2.79,2.7c0.44,0.47,0.86,0.97,1.34,1.4c0.52,0.48,0.93,1.03,1.42,1.53
						c0.41,0.42,0.84,0.82,1.27,1.23l0-0.98c0.18-0.11,0,0.02-0.23-0.05c-0.23-0.04-0.5-0.12-0.76-0.22
						c-0.53-0.2-1.06-0.47-1.58-0.75c-0.71-0.39-1.68-0.63-2.23-1.26c-0.23-0.27-0.37-0.54-0.67-0.78
						c-0.42-0.32-0.85-0.64-1.27-0.96c-0.34-0.25-0.6-0.51-0.91-0.78c-0.73-0.65-1.72-1.08-2.52-1.64
						c-1.21-0.85-2.31-1.82-3.43-2.78c-0.2-0.18-0.41-0.37-0.61-0.55c-0.14-0.12-0.29-0.2-0.44-0.3c-0.19-0.13-0.36-0.27-0.53-0.41
						c-0.28-0.22-0.55-0.45-0.81-0.69c-0.44-0.39-0.86-0.8-1.31-1.17c-0.23-0.19-0.41-0.31-0.68-0.36c-0.1-0.02-0.24-0.06-0.33-0.04
						c-0.08,0.02-0.07,0.04-0.04,0.13c0.02,0.08,0.05,0.12,0.04,0.2c-0.01,0.07-0.03,0.11-0.01,0.19c0.08,0.29,0.42,0.65,0.65,0.88
						c0.3,0.31,0.64,0.57,0.97,0.84c0.53,0.44,1.15,0.88,1.63,1.37c0.45,0.45,0.89,0.78,1.44,1.11c0.58,0.35,1.17,0.84,1.65,1.33
						c0.56,0.58,1.14,1.03,1.83,1.45c0.42,0.25,0.8,0.56,1.19,0.88c1.38,1.15,2.81,2.23,4.27,3.28c0.73,0.52,1.45,1.05,2.23,1.54
						c0.39,0.24,0.8,0.47,1.25,0.67c0.23,0.1,0.47,0.19,0.75,0.25c0.29,0.04,0.6,0.14,1.12-0.07c0.13-0.06,0.26-0.16,0.37-0.26
						l0.61-0.53l-0.6-0.56c-0.67-0.62-1.34-1.26-2.02-1.88c-0.64-0.6-1.18-1.27-1.76-1.93c-0.78-0.91-1.77-1.79-2.75-2.45
						c-0.78-0.52-1.5-1.19-2.11-1.91c-0.35-0.42-0.7-0.82-1.07-1.23c-0.43-0.48-0.93-0.9-1.34-1.4c-0.38-0.45-0.76-0.94-1.17-1.37
						c-0.51-0.53-1.08-0.88-1.66-1.27c-0.41-0.28-0.57-0.69-0.86-1.05c-0.11-0.13-0.26-0.24-0.38-0.36
						c-0.18-0.19-0.36-0.38-0.55-0.56c-0.29-0.26-0.59-0.52-0.89-0.78c-0.34-0.3-0.77-0.7-1.17-0.89c-0.19-0.09-0.35-0.13-0.54-0.25
						C134.44,264.93,133.73,264.6,133.99,265.16z"/>
				</g>
			</g>
			<g>
				<g>
					<path class="st1" d="M162.87,281.72c-0.06-0.15-0.2-0.31-0.26-0.38c-0.35-0.37-0.66-0.75-1.05-1.09
						c-0.29-0.26-0.59-0.53-0.89-0.78c-0.28-0.23-0.58-0.43-0.83-0.69c-0.57-0.6-1.11-1.21-1.65-1.82c-0.8-0.91-1.76-1.56-2.69-2.32
						c-0.19-0.15-0.36-0.31-0.53-0.48c-0.28-0.27-0.56-0.53-0.86-0.78c-0.75-0.63-1.52-1.25-2.21-1.94
						c-0.35-0.34-0.67-0.72-1.05-1.03c-0.42-0.34-0.72-0.76-1.11-1.12c-1.01-0.93-2.11-1.75-3.16-2.62
						c-0.49-0.4-1.24-0.63-1.55-1.21c-0.13-0.24-0.19-0.49-0.39-0.7c-0.28-0.29-0.58-0.57-0.87-0.84c-0.23-0.22-0.41-0.44-0.62-0.67
						c-0.28-0.31-0.64-0.56-1.01-0.8l0.14,0.18c-0.17-0.29-0.38-0.34-0.41-0.35l0.14,0.1c-0.25-0.16-0.49-0.32-0.71-0.49
						c-0.88-0.7-1.65-1.51-2.45-2.29c-0.14-0.15-0.29-0.3-0.43-0.45c-0.1-0.1-0.22-0.16-0.33-0.24c-0.14-0.1-0.26-0.21-0.39-0.33
						c-0.2-0.18-0.4-0.37-0.59-0.56c-0.31-0.32-0.61-0.65-0.94-0.95c-0.17-0.15-0.3-0.24-0.53-0.27c-0.08-0.01-0.2-0.03-0.28-0.01
						c-0.08,0.02-0.07,0.04-0.06,0.12c0.01,0.07,0.02,0.1,0,0.18c-0.02,0.06-0.04,0.1-0.04,0.17c0.02,0.26,0.26,0.54,0.42,0.74
						c0.21,0.25,0.46,0.46,0.7,0.68c0.39,0.36,0.84,0.7,1.17,1.11c0.31,0.38,0.63,0.64,1.04,0.9c0.44,0.28,0.85,0.68,1.17,1.09
						c0.38,0.48,0.79,0.86,1.29,1.2c0.08,0.05,0.16,0.11,0.23,0.17l0.07,0.06l0.02,0.01l0.02,0.01l0.1-0.15
						c0.05-0.07,0.07-0.08,0.07-0.08l-0.17,0.23l0.01,0.01c0.17,0.15,0.34,0.31,0.5,0.47c0.95,0.97,1.93,1.9,2.89,2.85
						c0.95,0.95,1.81,1.98,2.82,2.87c0.55,0.49,1.14,0.95,1.7,1.43c0.51,0.43,0.93,0.93,1.38,1.43c0.61,0.68,1.4,1.3,2.2,1.72
						c0.64,0.34,1.21,0.81,1.69,1.35c0.27,0.31,0.55,0.62,0.83,0.92c0.34,0.36,0.74,0.65,1.06,1.02c0.29,0.34,0.59,0.71,0.91,1.02
						c0.4,0.39,0.87,0.6,1.35,0.86c0.34,0.18,0.44,0.52,0.66,0.79c0.08,0.1,0.2,0.17,0.3,0.26c0.14,0.14,0.28,0.28,0.44,0.4
						c0.23,0.18,0.47,0.36,0.71,0.55c0.27,0.21,0.61,0.5,0.95,0.6c0.16,0.05,0.3,0.06,0.45,0.13
						C162.45,282,163.05,282.18,162.87,281.72z"/>
				</g>
			</g>
			<g>
				<g>
					<path class="st1" d="M136.25,248.41c0.07,0.17,0.23,0.36,0.31,0.45c0.4,0.46,0.77,0.91,1.21,1.35
						c0.34,0.33,0.67,0.66,1.02,0.98c0.32,0.29,0.66,0.56,0.95,0.88c0.65,0.74,1.28,1.48,1.91,2.24c0.93,1.11,2.03,1.97,3.09,2.93
						c0.21,0.19,0.42,0.39,0.61,0.6c0.32,0.34,0.65,0.66,0.99,0.98c0.86,0.8,1.74,1.59,2.54,2.45c0.4,0.43,0.78,0.89,1.21,1.28
						c0.48,0.43,0.84,0.94,1.28,1.39c1.16,1.16,2.42,2.23,3.62,3.33c0.56,0.51,1.4,0.88,1.77,1.55c0.16,0.29,0.23,0.56,0.47,0.82
						c0.33,0.36,0.66,0.71,1,1.05c0.27,0.27,0.48,0.54,0.72,0.83c0.58,0.68,1.43,1.18,2.1,1.77c1.01,0.89,1.9,1.89,2.82,2.86
						c0.17,0.18,0.33,0.37,0.5,0.56c0.11,0.12,0.25,0.21,0.37,0.31c0.16,0.13,0.3,0.27,0.45,0.42c0.23,0.23,0.46,0.46,0.68,0.7
						c0.36,0.39,0.7,0.8,1.08,1.17c0.2,0.19,0.35,0.31,0.6,0.37c0.09,0.02,0.22,0.07,0.3,0.05c0.08-0.01,0.07-0.03,0.06-0.12
						c-0.01-0.07-0.03-0.12-0.01-0.19c0.02-0.06,0.04-0.11,0.03-0.18c-0.03-0.28-0.31-0.63-0.5-0.87c-0.24-0.3-0.53-0.57-0.81-0.84
						c-0.45-0.45-0.96-0.89-1.35-1.38c-0.36-0.46-0.73-0.79-1.2-1.14c-0.5-0.37-0.98-0.87-1.35-1.36c-0.44-0.58-0.91-1.05-1.49-1.5
						c-0.35-0.27-0.66-0.59-0.97-0.92c-1.09-1.2-2.23-2.36-3.34-3.54c-1.1-1.17-2.1-2.44-3.26-3.56c-0.64-0.62-1.3-1.21-1.95-1.81
						c-0.59-0.54-1.07-1.15-1.59-1.76c-0.7-0.83-1.61-1.63-2.52-2.21c-0.72-0.46-1.38-1.06-1.93-1.73
						c-0.31-0.38-0.63-0.75-0.96-1.13c-0.39-0.44-0.85-0.82-1.22-1.27c-0.34-0.42-0.68-0.86-1.06-1.25
						c-0.46-0.48-0.99-0.79-1.53-1.14c-0.38-0.24-0.51-0.63-0.77-0.97c-0.1-0.12-0.23-0.21-0.34-0.33c-0.16-0.17-0.32-0.35-0.5-0.5
						c-0.27-0.24-0.54-0.47-0.81-0.7c-0.31-0.27-0.7-0.63-1.08-0.8c-0.17-0.08-0.33-0.11-0.51-0.21
						C136.69,248.17,136.02,247.88,136.25,248.41z"/>
				</g>
			</g>
			<g>
				<g>
					<path class="st1" d="M106.28,199.37c0.24,0.33,0.64,0.77,0.83,0.97c0.99,1.05,1.91,2.06,2.95,3.08l2.38,2.34
						c0.74,0.71,1.5,1.39,2.2,2.13c1.58,1.69,3.15,3.37,4.73,5.06c2.32,2.51,4.74,4.69,7.18,7.03c0.49,0.47,0.97,0.95,1.44,1.43
						c0.77,0.79,1.54,1.56,2.33,2.32c1.99,1.92,4,3.86,5.94,5.85c0.96,0.99,1.91,2.02,2.91,2.97c1.1,1.06,2.05,2.16,3.1,3.21
						c2.73,2.74,5.58,5.39,8.35,8.08c0.33,0.32,0.69,0.64,1.05,0.96l0-0.64c0.13-0.07,0.02,0.01-0.11-0.01
						c-0.13-0.01-0.29-0.04-0.44-0.08c-0.31-0.09-0.64-0.21-0.95-0.34c-0.62-0.28-1.22-0.62-1.73-1.01c-0.59-0.46-1-0.88-1.69-1.34
						l-2.83-1.91c-0.74-0.51-1.37-1-2.07-1.52c-1.68-1.26-3.66-2.36-5.39-3.54c-2.62-1.79-5.12-3.71-7.64-5.62l-1.4-1.08
						c-0.31-0.23-0.63-0.43-0.95-0.64c-0.4-0.27-0.79-0.55-1.18-0.84c-0.61-0.46-1.22-0.92-1.83-1.37c-1-0.77-1.98-1.54-3-2.29
						c-0.53-0.39-0.9-0.63-1.4-0.83c-0.18-0.07-0.44-0.2-0.59-0.21c-0.13-0.01-0.1,0.02,0.01,0.16c0.09,0.12,0.16,0.19,0.19,0.3
						c0.03,0.09,0.02,0.15,0.11,0.27c0.32,0.45,1.14,1.12,1.69,1.56c0.71,0.58,1.47,1.11,2.2,1.66c1.2,0.88,2.53,1.8,3.67,2.73
						c1.06,0.86,2.01,1.54,3.17,2.28c1.22,0.78,2.53,1.76,3.66,2.69c1.32,1.09,2.6,2.01,4.04,2.93c0.89,0.56,1.74,1.18,2.59,1.81
						c3.11,2.25,6.2,4.5,9.6,6.42c0.38,0.2,0.76,0.4,1.18,0.57c0.21,0.09,0.43,0.17,0.68,0.23c0.13,0.03,0.27,0.05,0.45,0.06
						c0.18-0.01,0.43-0.02,0.71-0.27l0.44-0.4l-0.44-0.47c-2.04-2.15-4.05-4.31-6.16-6.4l-4.51-4.38c-1.36-1.32-2.59-2.67-3.87-4.05
						c-1.75-1.88-3.81-3.83-5.74-5.43c-1.52-1.27-3.04-2.72-4.41-4.21c-0.8-0.85-1.59-1.69-2.38-2.55c-0.95-1-1.98-1.95-2.91-2.97
						c-0.85-0.93-1.74-1.92-2.63-2.83c-1.1-1.12-2.21-2-3.35-2.95c-0.8-0.67-1.29-1.41-1.96-2.15c-0.24-0.27-0.54-0.52-0.8-0.79
						c-0.39-0.4-0.78-0.8-1.19-1.19l-1.84-1.74c-0.71-0.66-1.61-1.54-2.35-2.07c-0.34-0.25-0.63-0.41-1-0.7
						C106.86,199.26,105.55,198.33,106.28,199.37z"/>
				</g>
			</g>
			<g>
				<g>
					<path class="st1" d="M122.61,196.67c0.42,0.52,1.1,1.23,1.42,1.56c1.66,1.72,3.22,3.37,4.93,5.07l3.94,3.9
						c1.21,1.19,2.45,2.34,3.62,3.55c2.66,2.77,5.3,5.52,7.96,8.29c3.91,4.1,7.85,7.8,11.86,11.71c0.8,0.8,1.6,1.59,2.39,2.38
						c1.28,1.3,2.56,2.58,3.86,3.85c3.27,3.21,6.6,6.45,9.82,9.73c1.6,1.63,3.21,3.31,4.84,4.91c1.6,1.56,3.05,3.13,4.58,4.68
						l0-1.02c0.02-0.01-0.06,0.03-0.25,0.02c-0.54-0.04-1.29-0.36-1.96-0.7c-0.68-0.35-1.36-0.75-2.02-1.18
						c-1.33-0.85-2.63-1.78-3.91-2.73c-2.56-1.91-5.06-3.92-7.52-5.97c-2.27-1.89-4.99-3.84-7.02-5.94
						c-0.86-0.89-1.48-1.64-2.49-2.58l-4.18-3.86c-1.1-1.02-2.04-1.94-3.09-2.96c-2.51-2.43-5.41-4.79-7.98-7.13
						c-3.88-3.54-7.62-7.2-11.39-10.85l-2.09-2.05c-0.46-0.45-0.93-0.85-1.4-1.28c-0.59-0.54-1.17-1.09-1.75-1.64
						c-0.91-0.88-1.83-1.76-2.73-2.64c-1.49-1.46-2.97-2.91-4.47-4.37c-0.78-0.75-1.34-1.25-2.05-1.75
						c-0.26-0.19-0.64-0.47-0.84-0.56c-0.18-0.08-0.13-0.02,0.04,0.21c0.14,0.2,0.25,0.32,0.31,0.48c0.06,0.13,0.05,0.2,0.19,0.39
						c0.51,0.73,1.73,1.98,2.55,2.81c1.06,1.08,2.18,2.13,3.28,3.19c1.78,1.71,3.75,3.52,5.46,5.26c1.59,1.61,3.01,2.93,4.71,4.43
						c1.81,1.59,3.76,3.47,5.45,5.19c1.99,2.02,3.89,3.82,6.02,5.68c1.31,1.15,2.57,2.34,3.85,3.56c4.6,4.38,9.27,8.7,13.99,12.95
						c4.7,4.2,9.31,8.48,14.48,12.19c1.07,0.76,2.17,1.48,3.34,2.13c0.59,0.32,1.19,0.63,1.87,0.87c0.33,0.12,0.7,0.22,1.11,0.27
						c0.39,0.04,1,0.02,1.48-0.45l0.51-0.5l-0.51-0.5l-1.9-1.86c-2.24-2.2-4.32-4.4-6.48-6.66c-2.95-3.08-6.33-6.35-9.41-9.11
						c-2.44-2.18-4.94-4.62-7.26-7.05c-1.34-1.39-2.66-2.77-4.01-4.17c-1.6-1.65-3.27-3.24-4.85-4.91
						c-1.44-1.52-2.94-3.12-4.43-4.63c-1.83-1.85-3.59-3.39-5.42-5.03c-1.29-1.15-2.18-2.3-3.31-3.5c-0.41-0.44-0.89-0.87-1.32-1.31
						c-0.65-0.66-1.3-1.33-1.97-1.97l-3.02-2.91c-1.16-1.12-2.65-2.58-3.81-3.53c-0.54-0.44-0.97-0.76-1.56-1.27
						C123.34,196.72,121.29,195.05,122.61,196.67z"/>
				</g>
			</g>
			<g>
				<g>
					<path class="st1" d="M138.49,193.52c0.22,0.32,0.61,0.74,0.79,0.93c0.94,1,1.83,1.97,2.81,2.95l2.28,2.24
						c0.7,0.68,1.43,1.33,2.1,2.03c1.51,1.62,3.01,3.22,4.52,4.84c2.21,2.4,4.54,4.48,6.87,6.71c0.47,0.45,0.93,0.91,1.38,1.37
						c0.73,0.75,1.47,1.49,2.22,2.22c1.9,1.84,3.83,3.68,5.68,5.59c0.92,0.94,1.82,1.93,2.77,2.84c0.33,0.31,0.64,0.63,0.94,0.95
						l0.45,0.48l0.22,0.24c0.07,0.07,0.01,0.03-0.01-0.04c-0.02-0.06-0.01-0.15,0.03-0.21l0.21-0.5c0.07-0.08,0.12-0.07,0.08-0.07
						c-0.04,0-0.12-0.01-0.21-0.03c-0.19-0.05-0.41-0.13-0.63-0.22c-1.56-0.7-3.12-1.75-4.64-2.76c-1.52-1.03-3.03-2.1-4.5-3.2
						c-1.36-1.01-3.08-1.95-4.25-3.16c-0.5-0.52-0.84-0.98-1.44-1.49l-2.51-2.1c-0.67-0.55-1.22-1.07-1.84-1.63
						c-1.49-1.34-3.31-2.53-4.87-3.78c-2.37-1.89-4.61-3.9-6.89-5.9l-1.26-1.13c-0.28-0.25-0.57-0.45-0.86-0.68
						c-0.36-0.28-0.71-0.58-1.06-0.88c-0.55-0.48-1.1-0.96-1.65-1.44c-0.9-0.8-1.78-1.61-2.69-2.39c-0.47-0.4-0.82-0.67-1.28-0.89
						c-0.17-0.08-0.41-0.21-0.55-0.24c-0.13-0.02-0.1,0.02-0.01,0.16c0.08,0.12,0.13,0.2,0.16,0.31c0.02,0.09,0.01,0.15,0.08,0.27
						c0.27,0.46,1,1.15,1.49,1.62c0.63,0.6,1.32,1.16,1.98,1.74c1.08,0.93,2.28,1.89,3.3,2.86c0.95,0.9,1.81,1.61,2.86,2.39
						c1.11,0.83,2.29,1.85,3.3,2.82c1.18,1.14,2.33,2.11,3.64,3.08c0.8,0.6,1.57,1.25,2.33,1.92c2.76,2.4,5.58,4.75,8.4,7.08
						c2.81,2.3,5.55,4.69,8.6,6.73c0.79,0.52,1.59,1.02,2.45,1.48c0.43,0.23,0.87,0.44,1.36,0.62c0.25,0.09,0.5,0.17,0.81,0.22
						c0.29,0.02,0.75,0.12,1.25-0.32l0.27-0.23l-0.07-0.25c-0.05-0.18-0.15-0.39-0.28-0.55l-0.1-0.11l-0.04-0.04l-0.08-0.07
						c-1.3-1.26-2.47-2.56-3.7-3.88c-1.67-1.8-3.64-3.66-5.49-5.18c-1.46-1.2-2.92-2.6-4.22-4.02c-0.76-0.82-1.51-1.62-2.28-2.44
						c-0.91-0.96-1.89-1.86-2.78-2.84c-0.81-0.89-1.66-1.84-2.51-2.71c-1.05-1.07-2.11-1.91-3.21-2.81
						c-0.77-0.63-1.23-1.35-1.87-2.06c-0.23-0.26-0.52-0.49-0.76-0.75c-0.37-0.38-0.74-0.77-1.13-1.14l-1.76-1.66
						c-0.68-0.63-1.54-1.47-2.25-1.97c-0.33-0.23-0.61-0.39-0.96-0.67C139.05,193.4,137.79,192.52,138.49,193.52z"/>
				</g>
			</g>
			<g>
				<g>
					<path class="st1" d="M154.57,190.56c0.49,0.59,1.28,1.41,1.64,1.79c1.91,1.97,3.71,3.86,5.68,5.81l4.52,4.48
						c1.39,1.37,2.81,2.7,4.15,4.08c3.07,3.18,6.11,6.32,9.17,9.5c4.51,4.69,9.01,8.96,13.62,13.46c0.92,0.92,1.83,1.83,2.74,2.73
						c1.48,1.48,2.95,2.94,4.43,4.42c3.76,3.7,7.56,7.42,11.28,11.18c1.84,1.87,3.69,3.8,5.57,5.63c1.95,1.91,3.72,3.81,5.59,5.7
						l0-1.03c0.01-0.03,0.03-0.02-0.04-0.01c-0.2,0.02-0.62-0.08-0.99-0.23c-0.39-0.15-0.78-0.34-1.17-0.56
						c-0.78-0.42-1.55-0.9-2.3-1.41c-1.51-1.01-2.99-2.1-4.45-3.22c-2.92-2.24-5.77-4.57-8.57-6.94c-2.59-2.19-5.68-4.48-8.02-6.87
						c-1-1.02-1.72-1.86-2.88-2.94l-4.81-4.43c-1.27-1.17-2.35-2.23-3.55-3.38c-2.89-2.78-6.21-5.51-9.16-8.2
						c-4.47-4.06-8.79-8.24-13.15-12.4l-2.42-2.33c-0.54-0.51-1.07-0.97-1.61-1.46c-0.67-0.63-1.34-1.24-2.02-1.87
						c-1.05-1-2.12-2.01-3.17-3c-1.73-1.66-3.45-3.31-5.19-4.97c-0.91-0.85-1.55-1.42-2.36-2c-0.3-0.22-0.73-0.54-0.95-0.65
						c-0.21-0.1-0.14-0.03,0.06,0.23c0.17,0.22,0.29,0.36,0.38,0.53c0.07,0.15,0.07,0.22,0.24,0.43c0.61,0.82,2.04,2.22,2.99,3.17
						c1.24,1.22,2.54,2.42,3.81,3.62c2.06,1.95,4.33,4.02,6.32,5.99c1.85,1.83,3.48,3.34,5.44,5.06c2.07,1.83,4.33,3.97,6.29,5.93
						c2.31,2.3,4.5,4.36,6.94,6.5c1.5,1.32,2.96,2.69,4.42,4.08c5.3,5.01,10.66,9.97,16.08,14.87c5.39,4.83,10.67,9.75,16.53,14.1
						c1.15,0.84,2.32,1.65,3.57,2.39c0.62,0.37,1.26,0.72,1.97,1.01c0.35,0.15,0.73,0.28,1.16,0.36c0.22,0.04,0.46,0.06,0.74,0.03
						c0.28-0.03,0.62-0.15,0.9-0.41l0.53-0.49l-0.53-0.52l-2.52-2.47c-2.57-2.52-4.97-5.05-7.46-7.63
						c-3.4-3.53-7.27-7.29-10.79-10.48c-2.78-2.53-5.65-5.33-8.32-8.12c-1.54-1.59-3.07-3.18-4.62-4.78
						c-1.84-1.89-3.76-3.73-5.57-5.63c-1.66-1.74-3.39-3.57-5.11-5.3c-2.11-2.13-4.11-3.91-6.2-5.8c-1.47-1.33-2.51-2.63-3.81-4.01
						c-0.48-0.5-1.02-1-1.52-1.5l-2.26-2.26l-3.46-3.36c-1.33-1.28-3.04-2.97-4.35-4.07c-0.61-0.51-1.1-0.89-1.77-1.47
						C155.37,190.67,153.04,188.72,154.57,190.56z"/>
				</g>
			</g>
			<g>
				<g>
					<path class="st1" d="M160.83,177.76c0.14,0.24,0.41,0.54,0.53,0.68c0.65,0.71,1.26,1.41,1.96,2.09l1.61,1.57
						c0.5,0.47,1.02,0.92,1.49,1.42c1.06,1.14,2.09,2.29,3.13,3.46c1.53,1.71,3.2,3.14,4.85,4.7c0.33,0.31,0.66,0.63,0.97,0.96
						c0.51,0.53,1.03,1.05,1.56,1.56c1.34,1.28,2.72,2.57,4.01,3.92c0.64,0.67,1.27,1.37,1.94,2.01c0.75,0.7,1.36,1.46,2.07,2.18
						l0.97,0.96l0-1.02c0.03-0.08,0.18-0.11,0.18-0.11c0-0.01,0-0.01-0.01,0c-0.09-0.02-0.14-0.01-0.26-0.05
						c-0.2-0.05-0.44-0.14-0.67-0.22c-0.47-0.19-0.94-0.41-1.41-0.65c-0.94-0.47-1.87-1-2.79-1.54c-1.02-0.61-2.34-1.07-3.2-1.9
						c-0.37-0.35-0.61-0.69-1.06-1.02c-0.63-0.44-1.25-0.89-1.88-1.33c-0.5-0.35-0.91-0.69-1.37-1.05c-1.11-0.87-2.5-1.53-3.68-2.3
						c-1.78-1.17-3.46-2.46-5.17-3.73l-0.94-0.72c-0.21-0.16-0.43-0.28-0.65-0.41c-0.28-0.17-0.54-0.36-0.8-0.55
						c-0.42-0.3-0.83-0.6-1.24-0.91c-0.67-0.51-1.33-1.04-2.02-1.53c-0.36-0.25-0.62-0.41-0.98-0.51c-0.13-0.04-0.32-0.1-0.43-0.09
						c-0.1,0.01-0.08,0.04-0.02,0.14c0.05,0.09,0.1,0.15,0.11,0.24c0.01,0.08,0,0.13,0.05,0.22c0.18,0.35,0.73,0.8,1.09,1.11
						c0.47,0.39,0.99,0.74,1.49,1.1c0.81,0.59,1.72,1.18,2.48,1.81c0.71,0.59,1.36,1.03,2.15,1.49c0.85,0.49,1.73,1.14,2.47,1.78
						c0.88,0.75,1.74,1.36,2.73,1.95c0.61,0.36,1.18,0.77,1.75,1.2c2.06,1.54,4.17,3.02,6.3,4.49c1.05,0.73,2.1,1.47,3.17,2.18
						c1.08,0.71,2.16,1.4,3.43,1.94c0.24,0.1,0.5,0.19,0.78,0.26c0.17,0.03,0.31,0.06,0.53,0.07c0.12,0,0.24-0.02,0.36-0.04
						c0.17-0.05,0.37-0.16,0.52-0.28l0.59-0.51l-0.59-0.56l-2.03-1.92c-0.92-0.88-1.73-1.81-2.57-2.75
						c-1.16-1.29-2.56-2.58-3.91-3.6c-1.07-0.81-2.1-1.78-3-2.8c-0.53-0.58-1.05-1.16-1.58-1.74c-0.63-0.68-1.33-1.31-1.95-2
						c-0.56-0.64-1.14-1.32-1.74-1.93c-0.74-0.76-1.52-1.31-2.31-1.92c-0.56-0.43-0.85-0.97-1.28-1.48
						c-0.16-0.19-0.37-0.35-0.54-0.53c-0.26-0.27-0.52-0.54-0.8-0.8l-1.26-1.15c-0.48-0.44-1.09-1.03-1.62-1.35
						c-0.25-0.15-0.46-0.24-0.72-0.43C161.33,177.58,160.39,177.02,160.83,177.76z"/>
				</g>
			</g>
			<g>
				<g>
					<path class="st1" d="M167.78,165.68c0.4,0.5,1.06,1.19,1.36,1.51c1.59,1.65,3.09,3.24,4.74,4.88l3.79,3.75
						c1.17,1.14,2.36,2.25,3.48,3.41c2.56,2.67,5.09,5.31,7.65,7.97c3.76,3.94,7.55,7.49,11.41,11.25c0.77,0.77,1.53,1.53,2.3,2.29
						c1.23,1.25,2.46,2.48,3.71,3.7c3.15,3.09,6.34,6.2,9.44,9.35c1.54,1.56,3.08,3.19,4.65,4.72c1.74,1.7,3.3,3.4,4.98,5.09
						l1.79,1.78l0-1.02c0.14-0.09-0.03,0.01-0.29-0.07c-0.24-0.05-0.53-0.16-0.81-0.28c-0.56-0.24-1.13-0.56-1.69-0.89
						c-1.12-0.66-2.21-1.41-3.29-2.17c-2.16-1.53-4.27-3.16-6.34-4.81c-2.22-1.77-4.88-3.59-6.86-5.57
						c-0.84-0.84-1.45-1.56-2.44-2.44l-4.09-3.63c-1.08-0.96-2-1.83-3.02-2.78c-2.45-2.29-5.3-4.49-7.82-6.69
						c-3.81-3.32-7.48-6.76-11.18-10.18l-2.06-1.92c-0.46-0.42-0.91-0.8-1.38-1.19c-0.58-0.5-1.15-1.01-1.72-1.53
						c-0.89-0.82-1.8-1.65-2.69-2.47c-1.47-1.37-2.91-2.74-4.4-4.09c-0.77-0.7-1.32-1.16-2.02-1.62c-0.26-0.17-0.63-0.43-0.82-0.51
						c-0.18-0.07-0.13-0.01,0.04,0.21c0.14,0.19,0.24,0.31,0.31,0.45c0.06,0.13,0.05,0.19,0.19,0.38c0.5,0.7,1.71,1.86,2.52,2.64
						c1.05,1.01,2.15,1.99,3.24,2.98c1.75,1.6,3.69,3.29,5.38,4.92c1.56,1.51,2.96,2.75,4.63,4.15c1.77,1.49,3.69,3.25,5.35,4.87
						c1.95,1.91,3.82,3.59,5.9,5.34c1.28,1.07,2.52,2.2,3.77,3.34c4.5,4.12,9.07,8.18,13.69,12.19c2.29,1.98,4.57,3.97,6.91,5.9
						c2.35,1.92,4.71,3.82,7.35,5.46c0.6,0.37,1.22,0.72,1.89,1.02c0.35,0.14,0.69,0.29,1.11,0.38c0.21,0.05,0.43,0.09,0.72,0.07
						c0.25,0,0.66-0.11,0.96-0.39l0.55-0.52l-0.55-0.54l-4.23-4.13c-2.15-2.11-4.15-4.23-6.23-6.4c-2.83-2.96-6.08-6.1-9.05-8.75
						c-2.35-2.09-4.76-4.44-6.98-6.78c-1.29-1.34-2.56-2.67-3.85-4.01c-1.54-1.59-3.15-3.12-4.66-4.72
						c-1.38-1.46-2.82-3.01-4.26-4.45c-1.76-1.78-3.46-3.26-5.22-4.83c-1.24-1.1-2.09-2.21-3.18-3.37c-0.4-0.42-0.85-0.83-1.27-1.26
						c-0.63-0.64-1.25-1.28-1.89-1.9l-2.91-2.8c-1.12-1.07-2.55-2.48-3.66-3.38c-0.52-0.42-0.94-0.72-1.5-1.21
						C168.5,165.72,166.52,164.12,167.78,165.68z"/>
				</g>
			</g>
			<g>
				<g>
					<path class="st1" d="M208.11,189.49c-0.11-0.17-0.31-0.35-0.41-0.43c-0.5-0.43-0.97-0.85-1.5-1.26
						c-0.41-0.31-0.82-0.61-1.23-0.92c-0.38-0.28-0.78-0.53-1.13-0.84c-0.8-0.71-1.56-1.46-2.32-2.2c-1.12-1.11-2.38-1.94-3.61-2.91
						c-0.25-0.19-0.49-0.39-0.72-0.6c-0.37-0.34-0.75-0.67-1.15-0.99c-0.99-0.8-2-1.61-2.94-2.48c-0.47-0.43-0.91-0.91-1.41-1.31
						c-0.55-0.44-0.98-0.96-1.49-1.42c-1.33-1.19-2.76-2.28-4.13-3.43c-0.63-0.53-1.55-0.9-2.01-1.6c-0.2-0.3-0.29-0.59-0.57-0.86
						c-0.39-0.37-0.77-0.73-1.15-1.09c-0.31-0.28-0.55-0.57-0.82-0.86c-0.66-0.71-1.61-1.22-2.36-1.84
						c-1.13-0.93-2.16-1.97-3.2-2.99c-0.19-0.19-0.38-0.39-0.57-0.58c-0.13-0.13-0.28-0.22-0.42-0.33
						c-0.18-0.13-0.34-0.29-0.51-0.44c-0.26-0.24-0.52-0.48-0.77-0.73c-0.41-0.41-0.8-0.84-1.23-1.23c-0.22-0.2-0.39-0.33-0.66-0.39
						c-0.1-0.02-0.23-0.07-0.32-0.06c-0.08,0.01-0.07,0.04-0.05,0.13c0.02,0.08,0.04,0.12,0.03,0.2c-0.01,0.07-0.04,0.11-0.02,0.19
						c0.06,0.29,0.38,0.66,0.6,0.91c0.28,0.32,0.61,0.6,0.92,0.89c0.5,0.47,1.09,0.94,1.54,1.45c0.42,0.48,0.83,0.83,1.35,1.19
						c0.56,0.39,1.1,0.91,1.54,1.43c0.51,0.61,1.05,1.1,1.69,1.56c0.4,0.29,0.75,0.62,1.1,0.96c1.25,1.25,2.55,2.45,3.83,3.68
						c1.26,1.22,2.44,2.53,3.76,3.68c0.73,0.64,1.48,1.25,2.23,1.86c0.67,0.56,1.25,1.18,1.86,1.81c0.83,0.85,1.87,1.66,2.89,2.24
						c0.81,0.46,1.57,1.07,2.23,1.74c0.38,0.39,0.76,0.76,1.15,1.13c0.46,0.44,0.99,0.81,1.44,1.27c0.41,0.42,0.83,0.87,1.28,1.25
						c0.55,0.47,1.16,0.77,1.77,1.09c0.43,0.23,0.64,0.62,0.96,0.95c0.12,0.12,0.28,0.21,0.41,0.32c0.2,0.17,0.39,0.34,0.61,0.49
						c0.32,0.22,0.65,0.44,0.97,0.66c0.37,0.25,0.85,0.59,1.27,0.72c0.2,0.06,0.37,0.08,0.57,0.17
						C207.7,189.79,208.44,190.01,208.11,189.49z"/>
				</g>
			</g>
			<g>
				<g>
					<path class="st1" d="M212.41,191.26c-0.02,0.08,0.01,0.14,0.03,0.17c0.08,0.14,0.14,0.29,0.26,0.39
						c0.09,0.08,0.18,0.16,0.27,0.24c0.09,0.07,0.21,0.1,0.27,0.2c0.14,0.22,0.25,0.45,0.36,0.69c0.17,0.35,0.54,0.48,0.84,0.69
						c0.06,0.04,0.12,0.09,0.16,0.15l0.05,0.06l0-0.97c0-0.02,0.05-0.04,0.04-0.02c-0.09,0.07-0.31,0.13-0.55,0.03
						c-0.12-0.06-0.22-0.14-0.35-0.16c-0.15-0.02-0.24-0.17-0.37-0.23c-0.35-0.16-0.77-0.21-1.15-0.35
						c-0.18-0.06-0.53,0.12-0.59-0.15c-0.02-0.12,0-0.27-0.07-0.33c-0.09-0.08-0.19-0.15-0.29-0.22c-0.08-0.05-0.13-0.14-0.19-0.21
						c-0.14-0.18-0.49-0.1-0.7-0.18c-0.33-0.12-0.56-0.37-0.82-0.6c-0.04-0.04-0.09-0.1-0.13-0.14c-0.03-0.03-0.08-0.03-0.13-0.03
						c-0.05-0.01-0.1-0.04-0.14-0.07c-0.07-0.04-0.13-0.09-0.19-0.15c-0.1-0.1-0.18-0.21-0.29-0.29c-0.06-0.04-0.11-0.05-0.23,0.03
						c-0.05,0.03-0.1,0.06-0.16,0.11c-0.05,0.05-0.05,0.06-0.07,0.11c-0.01,0.04-0.02,0.07-0.05,0.13
						c-0.03,0.05-0.05,0.09-0.07,0.14c-0.06,0.18,0.01,0.28,0.05,0.35c0.06,0.09,0.15,0.14,0.23,0.2c0.13,0.1,0.3,0.15,0.39,0.3
						c0.08,0.14,0.2,0.2,0.37,0.21c0.18,0.01,0.32,0.12,0.4,0.29c0.1,0.19,0.24,0.28,0.45,0.31c0.13,0.02,0.22,0.08,0.3,0.16
						c0.31,0.29,0.66,0.53,0.99,0.79c0.33,0.26,0.62,0.62,1.02,0.8c0.22,0.09,0.47,0.15,0.71,0.21c0.22,0.05,0.39,0.21,0.62,0.34
						c0.28,0.18,0.79,0.17,1.14-0.12c0.17-0.14,0.41-0.28,0.58-0.47l0.28-0.31l-0.28-0.26c-0.06-0.05-0.1-0.12-0.14-0.19
						c-0.05-0.12-0.12-0.24-0.18-0.35c-0.08-0.13-0.23-0.2-0.29-0.35c-0.06-0.14-0.11-0.29-0.2-0.39c-0.11-0.13-0.33-0.13-0.54-0.14
						c-0.15-0.01-0.09-0.21-0.12-0.32c-0.01-0.04-0.07-0.05-0.09-0.08c-0.04-0.05-0.07-0.1-0.13-0.13
						c-0.08-0.04-0.16-0.09-0.25-0.14c-0.1-0.05-0.2-0.14-0.38-0.1c-0.08,0.02-0.16,0.05-0.24,0.05
						C212.78,190.95,212.47,191.02,212.41,191.26z"/>
				</g>
			</g>
			<g>
				<g>
					<path class="st1" d="M174.05,152.9c0.06,0.16,0.21,0.34,0.28,0.43c0.37,0.43,0.71,0.86,1.12,1.26
						c0.31,0.31,0.63,0.62,0.95,0.91c0.3,0.27,0.62,0.52,0.89,0.82c0.61,0.69,1.19,1.39,1.77,2.1c0.86,1.05,1.89,1.83,2.88,2.73
						c0.2,0.18,0.39,0.37,0.57,0.56c0.3,0.32,0.6,0.62,0.92,0.91c0.8,0.74,1.63,1.48,2.37,2.28c0.37,0.4,0.72,0.83,1.13,1.19
						c0.45,0.4,0.78,0.88,1.19,1.3c1.08,1.08,2.26,2.07,3.39,3.1c0.52,0.48,1.32,0.8,1.66,1.44c0.15,0.27,0.2,0.54,0.43,0.78
						c0.3,0.33,0.62,0.66,0.93,0.98c0.25,0.25,0.44,0.51,0.66,0.78c0.53,0.64,1.34,1.09,1.97,1.63c0.94,0.83,1.77,1.76,2.62,2.67
						c0.16,0.17,0.31,0.35,0.47,0.52c0.11,0.11,0.23,0.19,0.35,0.29c0.15,0.12,0.28,0.25,0.42,0.39c0.21,0.21,0.43,0.43,0.63,0.65
						c0.33,0.37,0.65,0.75,1.01,1.1c0.18,0.18,0.33,0.29,0.56,0.34c0.09,0.02,0.21,0.06,0.29,0.04c0.08-0.02,0.07-0.04,0.06-0.12
						c-0.01-0.07-0.02-0.11,0-0.18c0.02-0.06,0.05-0.1,0.04-0.18c-0.02-0.27-0.28-0.6-0.45-0.82c-0.22-0.29-0.5-0.53-0.75-0.79
						c-0.41-0.42-0.9-0.83-1.26-1.29c-0.33-0.43-0.68-0.74-1.12-1.06c-0.47-0.34-0.91-0.8-1.26-1.27c-0.41-0.55-0.85-0.99-1.39-1.4
						c-0.33-0.25-0.62-0.55-0.9-0.86c-1.01-1.12-2.07-2.2-3.1-3.31c-1.02-1.1-1.95-2.28-3.02-3.33c-0.59-0.58-1.22-1.12-1.82-1.69
						c-0.55-0.51-1-1.08-1.48-1.65c-0.65-0.78-1.5-1.52-2.36-2.05c-0.68-0.42-1.3-0.98-1.8-1.6c-0.29-0.36-0.59-0.71-0.89-1.05
						c-0.36-0.41-0.79-0.76-1.13-1.19c-0.31-0.39-0.63-0.81-0.98-1.18c-0.43-0.45-0.93-0.73-1.44-1.05
						c-0.36-0.22-0.47-0.59-0.71-0.91c-0.09-0.12-0.22-0.2-0.32-0.31c-0.15-0.16-0.3-0.33-0.47-0.47c-0.25-0.22-0.5-0.44-0.76-0.65
						c-0.29-0.25-0.66-0.59-1.01-0.73c-0.17-0.07-0.31-0.1-0.48-0.19C174.48,152.65,173.85,152.4,174.05,152.9z"/>
				</g>
			</g>
			<g>
				<g>
					<path class="st1" d="M188.52,152.88c0-0.09-0.04-0.15-0.06-0.18c-0.11-0.14-0.21-0.29-0.35-0.4c-0.11-0.08-0.22-0.16-0.34-0.23
						c-0.11-0.06-0.24-0.1-0.33-0.19c-0.19-0.22-0.36-0.46-0.53-0.71c-0.25-0.36-0.67-0.47-1.04-0.67c-0.07-0.04-0.14-0.09-0.2-0.15
						c-0.1-0.09-0.2-0.18-0.32-0.25c-0.29-0.17-0.6-0.34-0.84-0.58c-0.12-0.12-0.22-0.27-0.37-0.35c-0.17-0.09-0.24-0.28-0.38-0.4
						c-0.37-0.3-0.83-0.48-1.25-0.72c-0.19-0.11-0.59,0-0.63-0.29c-0.02-0.13,0.02-0.29-0.05-0.36c-0.1-0.1-0.2-0.2-0.31-0.29
						c-0.09-0.07-0.13-0.17-0.2-0.26c-0.16-0.22-0.53-0.19-0.77-0.3c-0.36-0.18-0.62-0.47-0.9-0.74c-0.04-0.05-0.1-0.12-0.15-0.16
						c-0.03-0.03-0.09-0.04-0.14-0.05c-0.06-0.02-0.11-0.06-0.15-0.09c-0.07-0.06-0.15-0.12-0.21-0.19
						c-0.11-0.11-0.2-0.24-0.33-0.33c-0.06-0.05-0.12-0.06-0.25,0c-0.05,0.02-0.11,0.05-0.17,0.09c-0.05,0.04-0.05,0.06-0.07,0.11
						c-0.01,0.05-0.02,0.07-0.05,0.13c-0.03,0.05-0.06,0.09-0.07,0.14c-0.06,0.18,0.01,0.3,0.06,0.38c0.06,0.1,0.16,0.16,0.25,0.23
						c0.14,0.11,0.33,0.2,0.43,0.36c0.09,0.16,0.22,0.23,0.4,0.26c0.2,0.04,0.35,0.17,0.43,0.35c0.1,0.21,0.26,0.33,0.48,0.38
						c0.14,0.03,0.23,0.12,0.32,0.22c0.32,0.35,0.68,0.65,1.02,0.99c0.33,0.33,0.59,0.76,0.97,1.03c0.21,0.15,0.45,0.27,0.67,0.4
						c0.2,0.12,0.32,0.33,0.47,0.52c0.19,0.27,0.52,0.42,0.9,0.43c0.3,0.01,0.53,0.13,0.68,0.35c0.08,0.13,0.17,0.24,0.27,0.35
						c0.11,0.13,0.28,0.19,0.38,0.35c0.09,0.14,0.17,0.3,0.29,0.4c0.14,0.13,0.38,0.11,0.6,0.12c0.16,0,0.13,0.21,0.2,0.33
						c0.02,0.04,0.08,0.05,0.11,0.08c0.05,0.05,0.1,0.1,0.16,0.13c0.09,0.04,0.19,0.09,0.29,0.13c0.11,0.05,0.24,0.13,0.42,0.08
						c0.08-0.02,0.16-0.07,0.24-0.07C188.19,153.24,188.51,153.15,188.52,152.88z"/>
				</g>
			</g>
			<g>
				<g>
					<path class="st1" d="M180.58,140.38c-0.05,0.05-0.06,0.07-0.06,0.08c-0.02,0.04-0.05,0.09-0.04,0.1c0.01,0,0.02,0.01,0.04,0
						c0.02-0.01,0.07-0.04,0.06-0.01c-0.03,0.06-0.07,0.13-0.12,0.21c-0.07,0.12,0.07,0.02,0.14-0.01c0.01-0.01,0.02,0,0.02,0.01
						c0,0.02,0.01,0.02,0.02,0.02c0.05-0.01,0.11-0.04,0.1,0.01c0,0.02-0.04,0.07-0.01,0.06c0.03-0.01-0.03,0.07-0.02,0.08
						c0.02,0.03,0.15-0.05,0.22-0.07c0.03-0.01,0.28-0.23,0.15-0.08c-0.06,0.07-0.16,0.18-0.16,0.19c-0.01,0.02-0.01,0.04,0,0.05
						c0,0.01-0.02,0.05-0.04,0.07c-0.04,0.07,0.16-0.1,0.21-0.12c0.08-0.04,0.05,0.04,0.04,0.09c0,0.01-0.01,0.03-0.02,0.04
						c0,0.01,0.02-0.01,0.04-0.02c0.02-0.01,0.02-0.01,0.03-0.01c0.01,0,0.01,0.01,0,0.03c-0.01,0.03-0.03,0.06-0.02,0.07
						c0.01,0,0.03-0.01,0.12-0.1c0.04-0.03,0.08-0.07,0.13-0.12c0.05-0.05,0.05-0.05,0.09-0.09c0.03-0.03,0.04-0.05,0.09-0.09
						c0.04-0.04,0.07-0.08,0.11-0.11c0.12-0.13,0.15-0.17,0.17-0.2c0.02-0.04,0.01-0.03,0-0.04c-0.01-0.01-0.06,0.02-0.01-0.05
						c0.04-0.06,0.01-0.05-0.06,0c-0.08,0.06-0.08,0.03-0.02-0.04c0.06-0.08,0.05-0.09-0.03-0.04c-0.05,0.03-0.05,0.02-0.04,0
						c0.03-0.08,0.02-0.12,0.03-0.18c0.01-0.06,0.12-0.22,0.08-0.23c-0.02-0.01-0.07,0.02-0.11,0.03c-0.03,0.01,0.02-0.06,0.05-0.12
						c0.05-0.08-0.03-0.04-0.21,0.1c-0.14,0.12-0.19,0.13-0.14,0.06c0.03-0.04,0.04-0.08,0.06-0.1c0.02-0.03-0.03,0,0-0.06
						c0.03-0.05,0.07-0.11,0.07-0.12c0-0.02-0.12,0.08-0.23,0.17c-0.07,0.06,0.05-0.07,0.08-0.12c0.01-0.02-0.01,0.01-0.01,0
						c0-0.01,0.01-0.02-0.01-0.01c-0.02,0.01-0.04,0.02-0.07,0.04c-0.03,0.02-0.05,0.02-0.16,0.12c-0.05,0.05-0.11,0.1-0.15,0.14
						C180.93,140.05,180.73,140.22,180.58,140.38z"/>
				</g>
			</g>
			<g>
				<g>
					<path class="st1" d="M211.77,191.23c0.07,0.17,0.23,0.36,0.31,0.45c0.4,0.46,0.76,0.91,1.2,1.34c0.34,0.33,0.67,0.65,1.01,0.98
						c0.32,0.29,0.66,0.55,0.94,0.87c0.65,0.73,1.27,1.47,1.9,2.22c0.92,1.11,2.01,1.95,3.06,2.91c0.21,0.19,0.42,0.39,0.61,0.6
						c0.32,0.34,0.64,0.66,0.98,0.97c0.85,0.79,1.73,1.58,2.52,2.43c0.4,0.42,0.77,0.88,1.2,1.27c0.48,0.43,0.83,0.94,1.27,1.38
						c1.15,1.15,2.4,2.21,3.6,3.31c0.55,0.51,1.39,0.87,1.76,1.54c0.16,0.28,0.23,0.56,0.46,0.82c0.33,0.35,0.66,0.7,1,1.04
						c0.27,0.27,0.47,0.54,0.71,0.82c0.57,0.68,1.42,1.17,2.08,1.75c1,0.88,1.88,1.87,2.8,2.84c0.16,0.18,0.33,0.37,0.5,0.55
						c0.11,0.12,0.24,0.21,0.37,0.31c0.16,0.13,0.3,0.27,0.45,0.41c0.23,0.22,0.45,0.46,0.67,0.69c0.36,0.39,0.7,0.79,1.08,1.16
						c0.2,0.19,0.35,0.31,0.59,0.37c0.09,0.02,0.22,0.07,0.3,0.05c0.08-0.01,0.07-0.04,0.06-0.12c-0.01-0.07-0.03-0.12-0.01-0.19
						c0.02-0.06,0.04-0.11,0.03-0.18c-0.03-0.28-0.31-0.63-0.5-0.86c-0.24-0.3-0.53-0.56-0.8-0.84c-0.44-0.44-0.96-0.89-1.34-1.37
						c-0.36-0.45-0.72-0.78-1.19-1.13c-0.5-0.36-0.97-0.86-1.34-1.35c-0.44-0.58-0.91-1.05-1.48-1.49
						c-0.35-0.27-0.66-0.59-0.96-0.92c-1.08-1.19-2.21-2.34-3.31-3.52c-1.09-1.17-2.09-2.42-3.23-3.53c-0.63-0.61-1.29-1.2-1.94-1.8
						c-0.58-0.54-1.06-1.14-1.58-1.75c-0.7-0.83-1.6-1.61-2.5-2.19c-0.71-0.46-1.37-1.05-1.91-1.71c-0.31-0.38-0.63-0.75-0.96-1.12
						c-0.39-0.44-0.84-0.81-1.21-1.26c-0.33-0.41-0.68-0.86-1.05-1.25c-0.46-0.48-0.99-0.78-1.52-1.13
						c-0.38-0.24-0.51-0.63-0.77-0.96c-0.09-0.12-0.23-0.21-0.34-0.33c-0.16-0.17-0.32-0.35-0.5-0.5c-0.27-0.23-0.53-0.46-0.8-0.7
						c-0.31-0.27-0.7-0.63-1.07-0.79c-0.17-0.07-0.33-0.11-0.5-0.21C212.22,190.99,211.55,190.71,211.77,191.23z"/>
				</g>
			</g>
			<g>
				<g>
					<path class="st1" d="M173.83,153.33c0.07,0.16,0.22,0.35,0.3,0.44c0.38,0.44,0.74,0.88,1.16,1.29
						c0.32,0.32,0.65,0.64,0.98,0.94c0.31,0.28,0.64,0.53,0.92,0.84c0.63,0.71,1.23,1.43,1.83,2.16c0.89,1.07,1.95,1.89,2.97,2.81
						c0.21,0.19,0.4,0.38,0.59,0.58c0.31,0.33,0.62,0.64,0.95,0.94c0.83,0.76,1.67,1.53,2.44,2.35c0.38,0.41,0.75,0.85,1.16,1.23
						c0.46,0.42,0.8,0.91,1.23,1.34c1.11,1.12,2.33,2.13,3.49,3.19c0.54,0.49,1.35,0.83,1.71,1.48c0.15,0.28,0.22,0.55,0.44,0.8
						c0.31,0.34,0.64,0.68,0.96,1.01c0.26,0.26,0.46,0.52,0.69,0.8c0.55,0.66,1.38,1.12,2.02,1.69c0.97,0.85,1.83,1.81,2.71,2.75
						c0.16,0.17,0.32,0.36,0.48,0.53c0.11,0.12,0.24,0.2,0.36,0.3c0.15,0.12,0.29,0.26,0.43,0.4c0.22,0.22,0.44,0.44,0.65,0.67
						c0.34,0.38,0.68,0.77,1.04,1.13c0.19,0.19,0.34,0.3,0.58,0.35c0.09,0.02,0.21,0.06,0.3,0.04c0.08-0.02,0.07-0.04,0.06-0.12
						c-0.01-0.07-0.03-0.11,0-0.19c0.02-0.06,0.04-0.11,0.04-0.18c-0.03-0.28-0.29-0.61-0.47-0.84c-0.23-0.29-0.51-0.55-0.78-0.81
						c-0.43-0.43-0.93-0.86-1.3-1.33c-0.35-0.44-0.7-0.76-1.15-1.09c-0.48-0.35-0.94-0.83-1.3-1.31c-0.42-0.56-0.88-1.01-1.43-1.44
						c-0.34-0.26-0.64-0.57-0.93-0.89c-1.05-1.15-2.14-2.27-3.2-3.41c-1.05-1.13-2.01-2.35-3.12-3.42
						c-0.61-0.59-1.25-1.16-1.88-1.74c-0.57-0.52-1.03-1.11-1.52-1.7c-0.67-0.8-1.55-1.56-2.43-2.12c-0.7-0.44-1.33-1.01-1.86-1.65
						c-0.3-0.37-0.61-0.73-0.92-1.08c-0.37-0.42-0.81-0.78-1.17-1.22c-0.32-0.4-0.65-0.83-1.01-1.21c-0.44-0.46-0.96-0.75-1.48-1.08
						c-0.37-0.23-0.49-0.61-0.74-0.93c-0.09-0.12-0.23-0.2-0.33-0.32c-0.16-0.17-0.31-0.33-0.48-0.48
						c-0.26-0.23-0.52-0.45-0.78-0.67c-0.3-0.26-0.68-0.61-1.04-0.76c-0.17-0.07-0.32-0.1-0.49-0.2
						C174.26,153.08,173.62,152.82,173.83,153.33z"/>
				</g>
			</g>
			<g>
				<g>
					<path class="st1" d="M192.68,160.58c-0.01-0.1-0.08-0.2-0.12-0.24c-0.18-0.22-0.34-0.45-0.55-0.63
						c-0.16-0.14-0.33-0.29-0.5-0.42c-0.16-0.12-0.35-0.21-0.48-0.37c-0.3-0.35-0.57-0.71-0.85-1.09c-0.41-0.55-0.99-0.85-1.53-1.24
						c-0.11-0.08-0.21-0.17-0.3-0.26c-0.15-0.16-0.31-0.3-0.48-0.43c-0.43-0.33-0.88-0.66-1.25-1.05c-0.19-0.2-0.35-0.42-0.57-0.58
						c-0.24-0.18-0.38-0.45-0.6-0.64c-0.56-0.51-1.22-0.92-1.82-1.38c-0.28-0.21-0.8-0.23-0.91-0.61c-0.05-0.16-0.03-0.35-0.14-0.47
						c-0.15-0.17-0.31-0.32-0.47-0.48c-0.13-0.12-0.21-0.26-0.32-0.4c-0.25-0.33-0.75-0.44-1.09-0.68
						c-0.51-0.36-0.92-0.83-1.35-1.28c-0.08-0.08-0.15-0.18-0.23-0.26c-0.05-0.06-0.13-0.08-0.2-0.12
						c-0.08-0.05-0.15-0.11-0.22-0.17c-0.11-0.1-0.22-0.2-0.32-0.31c-0.17-0.18-0.32-0.38-0.5-0.54c-0.1-0.08-0.18-0.13-0.34-0.1
						c-0.06,0.01-0.14,0.02-0.21,0.05c-0.06,0.04-0.06,0.05-0.07,0.11c-0.01,0.05-0.01,0.08-0.04,0.14
						c-0.03,0.05-0.06,0.09-0.07,0.15c-0.04,0.2,0.08,0.38,0.16,0.49c0.1,0.15,0.25,0.26,0.38,0.38c0.21,0.2,0.48,0.37,0.65,0.62
						c0.15,0.23,0.34,0.37,0.59,0.48c0.27,0.12,0.5,0.35,0.65,0.6c0.18,0.3,0.41,0.51,0.72,0.66c0.19,0.1,0.34,0.24,0.48,0.39
						c0.5,0.56,1.05,1.08,1.56,1.63c0.51,0.54,0.94,1.17,1.5,1.66c0.31,0.27,0.65,0.51,0.98,0.76c0.29,0.23,0.5,0.53,0.73,0.83
						c0.31,0.41,0.77,0.72,1.29,0.88c0.41,0.13,0.74,0.37,0.98,0.7c0.14,0.19,0.28,0.37,0.43,0.54c0.18,0.21,0.42,0.35,0.57,0.58
						c0.14,0.21,0.29,0.44,0.47,0.61c0.22,0.22,0.53,0.29,0.83,0.38c0.22,0.07,0.22,0.31,0.33,0.48c0.04,0.06,0.12,0.09,0.17,0.14
						c0.08,0.08,0.15,0.16,0.24,0.22c0.14,0.09,0.28,0.19,0.42,0.28c0.16,0.1,0.36,0.26,0.59,0.27c0.11,0,0.21-0.02,0.31,0.01
						C192.3,160.89,192.71,160.9,192.68,160.58z"/>
				</g>
			</g>
			<g>
				<g>
					<path class="st1" d="M234.94,195.34c-0.02,0.08,0,0.13,0.02,0.16c0.07,0.13,0.12,0.27,0.22,0.36c0.08,0.07,0.16,0.15,0.25,0.21
						c0.08,0.06,0.19,0.09,0.24,0.18c0.12,0.2,0.21,0.42,0.31,0.64c0.14,0.33,0.48,0.43,0.76,0.61c0.06,0.04,0.1,0.08,0.14,0.13
						l0.01,0.01l0.01-0.95c0-0.04,0.04-0.04,0.03-0.02c-0.02,0.06-0.27,0.11-0.46,0.01c-0.11-0.06-0.19-0.13-0.32-0.15
						c-0.14-0.02-0.21-0.16-0.33-0.22c-0.31-0.14-0.69-0.18-1.05-0.3c-0.16-0.05-0.5,0.14-0.54-0.12c-0.02-0.11,0.01-0.26-0.05-0.32
						c-0.08-0.07-0.17-0.14-0.26-0.2c-0.07-0.05-0.11-0.12-0.17-0.2c-0.13-0.17-0.45-0.07-0.65-0.14c-0.3-0.1-0.51-0.33-0.74-0.54
						c-0.03-0.04-0.08-0.09-0.12-0.13c-0.03-0.03-0.08-0.02-0.12-0.03c-0.05-0.01-0.09-0.04-0.13-0.06
						c-0.06-0.04-0.12-0.09-0.17-0.14c-0.08-0.09-0.16-0.19-0.26-0.26c-0.05-0.03-0.1-0.04-0.22,0.04c-0.04,0.03-0.1,0.06-0.15,0.11
						c-0.05,0.05-0.05,0.06-0.07,0.11c-0.01,0.04-0.02,0.06-0.05,0.12c-0.03,0.05-0.05,0.09-0.07,0.14
						c-0.06,0.17-0.01,0.27,0.03,0.34c0.05,0.09,0.13,0.12,0.21,0.18c0.12,0.09,0.28,0.13,0.35,0.27c0.07,0.13,0.18,0.18,0.34,0.18
						c0.17,0,0.29,0.1,0.36,0.26c0.08,0.18,0.21,0.26,0.41,0.27c0.12,0.01,0.2,0.07,0.28,0.14c0.28,0.27,0.59,0.48,0.89,0.72
						c0.3,0.24,0.55,0.58,0.91,0.74c0.2,0.09,0.42,0.13,0.64,0.18c0.2,0.05,0.35,0.2,0.55,0.32c0.26,0.17,0.67,0.18,1.05-0.1
						c0.2-0.15,0.41-0.3,0.61-0.46l0.28-0.23l-0.28-0.33c-0.03-0.04-0.06-0.09-0.08-0.14c-0.05-0.11-0.1-0.22-0.16-0.32
						c-0.07-0.12-0.21-0.18-0.26-0.32c-0.05-0.13-0.09-0.27-0.17-0.36c-0.1-0.12-0.31-0.11-0.5-0.11c-0.14,0-0.07-0.19-0.1-0.3
						c-0.01-0.04-0.06-0.04-0.08-0.07c-0.03-0.04-0.06-0.09-0.11-0.12c-0.07-0.04-0.15-0.08-0.23-0.12
						c-0.09-0.04-0.19-0.12-0.35-0.08c-0.08,0.02-0.16,0.06-0.23,0.06C235.3,195.03,235.01,195.11,234.94,195.34z"/>
				</g>
			</g>
			<g>
				<g>
					<path class="st1" d="M180.36,140.79c-0.04,0.06-0.05,0.08-0.05,0.09c-0.01,0.05-0.03,0.12,0,0.14
						c0.02,0.02,0.04,0.03,0.07,0.03c0.03,0,0.09-0.02,0.08,0.01c0,0.08-0.03,0.17-0.06,0.27c-0.04,0.15,0.13,0.08,0.24,0.08
						c0.02,0,0.03,0.01,0.04,0.03c0.01,0.03,0.03,0.04,0.05,0.05c0.07,0.01,0.16,0.02,0.18,0.09c0.01,0.04-0.01,0.1,0.03,0.1
						c0.05,0-0.01,0.1,0.02,0.12c0.06,0.07,0.22,0.03,0.33,0.04c0.05,0.01,0.32-0.2,0.2-0.02c-0.05,0.07-0.15,0.19-0.14,0.21
						c0,0.03,0.01,0.06,0.03,0.08c0.01,0.02-0.01,0.06-0.02,0.1c-0.02,0.09,0.2-0.06,0.27-0.06c0.11-0.01,0.1,0.1,0.12,0.18
						c0,0.01,0,0.04,0,0.06c0,0.01,0.03-0.01,0.05-0.01c0.02-0.01,0.03,0,0.04,0.01c0.01,0.01,0.02,0.02,0.02,0.05
						c0,0.04-0.01,0.09,0.01,0.1c0.01,0.01,0.04,0,0.14-0.09c0.04-0.03,0.08-0.07,0.14-0.12c0.05-0.05,0.06-0.05,0.09-0.09
						c0.03-0.03,0.04-0.05,0.09-0.1c0.04-0.04,0.07-0.08,0.11-0.11c0.12-0.13,0.14-0.18,0.15-0.22c0.02-0.04-0.01-0.05-0.02-0.06
						c-0.02-0.02-0.08-0.01-0.06-0.09c0.03-0.07-0.01-0.07-0.09-0.03c-0.09,0.04-0.1,0.01-0.07-0.08c0.05-0.1,0.02-0.12-0.07-0.08
						c-0.06,0.02-0.07,0-0.07-0.03c-0.01-0.11-0.05-0.19-0.08-0.29c-0.02-0.1,0.05-0.29-0.03-0.33c-0.04-0.02-0.11-0.02-0.17-0.03
						c-0.05-0.01-0.02-0.1,0-0.18c0.03-0.11-0.08-0.09-0.28,0.03c-0.16,0.1-0.23,0.09-0.2,0c0.02-0.05,0.02-0.1,0.03-0.14
						c0-0.05-0.06-0.03-0.04-0.09c0.02-0.06,0.05-0.13,0.04-0.16c-0.01-0.03-0.15,0.05-0.27,0.12c-0.08,0.05,0.03-0.09,0.05-0.14
						c0.01-0.02-0.02,0-0.02-0.01c0-0.01,0-0.03-0.02-0.03c-0.03,0-0.06,0.01-0.09,0.01c-0.04,0.01-0.07,0-0.19,0.09
						c-0.06,0.04-0.12,0.1-0.17,0.13C180.71,140.45,180.49,140.61,180.36,140.79z"/>
				</g>
			</g>
			<g>
				<g>
					<path class="st1" d="M217.15,192.18c0.06,0.16,0.2,0.33,0.27,0.41c0.35,0.41,0.68,0.82,1.07,1.21c0.3,0.29,0.6,0.59,0.91,0.87
						c0.29,0.26,0.6,0.49,0.85,0.78c0.58,0.66,1.13,1.33,1.68,2.01c0.82,1,1.81,1.75,2.76,2.6c0.19,0.17,0.37,0.35,0.55,0.54
						c0.28,0.3,0.57,0.59,0.88,0.87c0.77,0.71,1.56,1.41,2.27,2.18c0.35,0.38,0.69,0.79,1.07,1.14c0.43,0.38,0.74,0.84,1.14,1.24
						c1.03,1.04,2.16,1.97,3.24,2.95c0.5,0.45,1.27,0.75,1.59,1.37c0.14,0.26,0.19,0.52,0.4,0.75c0.29,0.32,0.59,0.63,0.89,0.94
						c0.24,0.24,0.42,0.49,0.63,0.74c0.51,0.62,1.29,1.03,1.89,1.55c0.9,0.79,1.69,1.68,2.51,2.55c0.15,0.16,0.29,0.34,0.44,0.5
						c0.1,0.11,0.22,0.18,0.34,0.27c0.14,0.11,0.27,0.24,0.4,0.37c0.2,0.2,0.41,0.41,0.6,0.62c0.32,0.35,0.62,0.72,0.96,1.05
						c0.18,0.17,0.31,0.28,0.54,0.32c0.09,0.02,0.2,0.05,0.28,0.03c0.08-0.02,0.07-0.04,0.06-0.12c-0.01-0.07-0.02-0.11,0-0.18
						c0.02-0.06,0.05-0.1,0.04-0.17c-0.02-0.27-0.26-0.58-0.43-0.79c-0.21-0.27-0.47-0.51-0.72-0.75c-0.4-0.4-0.86-0.79-1.2-1.23
						c-0.32-0.41-0.64-0.71-1.07-1.01c-0.45-0.32-0.88-0.77-1.2-1.22c-0.38-0.53-0.81-0.95-1.33-1.33
						c-0.32-0.24-0.59-0.52-0.86-0.82c-0.97-1.07-1.98-2.11-2.96-3.17c-0.97-1.05-1.85-2.19-2.88-3.18
						c-0.57-0.55-1.16-1.07-1.74-1.61c-0.53-0.48-0.95-1.03-1.41-1.58c-0.62-0.75-1.43-1.45-2.26-1.95
						c-0.65-0.4-1.25-0.93-1.73-1.53c-0.28-0.34-0.56-0.68-0.85-1.01c-0.34-0.39-0.76-0.73-1.08-1.14c-0.3-0.38-0.6-0.78-0.93-1.13
						c-0.41-0.43-0.89-0.69-1.38-0.99c-0.34-0.21-0.45-0.57-0.68-0.87c-0.08-0.11-0.21-0.19-0.31-0.29
						c-0.14-0.15-0.29-0.31-0.45-0.45c-0.24-0.21-0.48-0.42-0.73-0.62c-0.28-0.24-0.63-0.56-0.97-0.69
						c-0.16-0.06-0.31-0.09-0.47-0.18C217.58,191.93,216.97,191.7,217.15,192.18z"/>
				</g>
			</g>
			<g>
				<g>
					<path class="st1" d="M175.35,150.4c0.04,0.14,0.16,0.29,0.22,0.36c0.29,0.35,0.56,0.7,0.89,1.03c0.25,0.25,0.51,0.5,0.77,0.73
						c0.24,0.22,0.51,0.41,0.72,0.65c0.48,0.56,0.94,1.14,1.39,1.72c0.67,0.86,1.53,1.47,2.33,2.18c0.16,0.14,0.32,0.29,0.46,0.45
						c0.24,0.26,0.48,0.5,0.74,0.74c0.65,0.59,1.32,1.18,1.92,1.83c0.3,0.32,0.57,0.68,0.9,0.97c0.36,0.32,0.62,0.72,0.95,1.06
						c0.87,0.87,1.84,1.65,2.75,2.46c0.42,0.38,1.11,0.59,1.36,1.13c0.11,0.23,0.13,0.46,0.31,0.66c0.24,0.27,0.49,0.54,0.75,0.79
						c0.2,0.21,0.35,0.42,0.52,0.63c0.42,0.53,1.11,0.85,1.62,1.28c0.77,0.65,1.43,1.41,2.11,2.15c0.12,0.14,0.25,0.29,0.37,0.42
						c0.08,0.09,0.19,0.15,0.29,0.23c0.12,0.09,0.23,0.2,0.34,0.31c0.17,0.17,0.34,0.34,0.5,0.52c0.27,0.3,0.52,0.61,0.8,0.89
						c0.15,0.15,0.27,0.23,0.48,0.25c0.08,0.01,0.18,0.03,0.26,0.01c0.07-0.02,0.07-0.04,0.07-0.11c0-0.06-0.01-0.1,0.02-0.17
						c0.02-0.06,0.05-0.1,0.05-0.16c0.01-0.24-0.19-0.51-0.33-0.7c-0.18-0.24-0.4-0.43-0.6-0.64c-0.33-0.34-0.73-0.66-1.01-1.04
						c-0.26-0.35-0.54-0.6-0.91-0.84c-0.39-0.26-0.75-0.64-1.01-1.02c-0.31-0.46-0.67-0.81-1.12-1.12
						c-0.28-0.19-0.51-0.44-0.73-0.69c-0.81-0.91-1.66-1.78-2.48-2.68c-0.81-0.89-1.54-1.87-2.4-2.71c-0.48-0.46-0.99-0.9-1.48-1.34
						c-0.45-0.4-0.79-0.88-1.17-1.35c-0.51-0.64-1.21-1.22-1.93-1.62c-0.57-0.31-1.08-0.76-1.47-1.27c-0.23-0.3-0.46-0.58-0.7-0.86
						c-0.29-0.34-0.64-0.61-0.91-0.96c-0.24-0.32-0.49-0.67-0.77-0.97c-0.34-0.36-0.77-0.57-1.2-0.8c-0.3-0.17-0.37-0.49-0.56-0.75
						c-0.07-0.1-0.18-0.16-0.26-0.25c-0.12-0.13-0.24-0.26-0.38-0.38c-0.21-0.17-0.41-0.34-0.62-0.52c-0.24-0.2-0.53-0.47-0.84-0.56
						c-0.14-0.04-0.27-0.06-0.42-0.12C175.76,150.14,175.22,149.97,175.35,150.4z"/>
				</g>
			</g>
			<g>
				<g>
					<path class="st1" d="M191.16,157.76c0-0.1-0.06-0.18-0.09-0.22c-0.15-0.19-0.29-0.39-0.48-0.55c-0.14-0.12-0.29-0.24-0.44-0.36
						c-0.14-0.1-0.31-0.17-0.42-0.31c-0.26-0.3-0.49-0.62-0.72-0.95c-0.35-0.48-0.87-0.72-1.35-1.05c-0.1-0.07-0.18-0.14-0.26-0.22
						c-0.13-0.13-0.27-0.26-0.42-0.37c-0.38-0.28-0.77-0.55-1.1-0.89c-0.16-0.17-0.3-0.37-0.5-0.5c-0.21-0.15-0.33-0.39-0.52-0.56
						c-0.49-0.44-1.07-0.77-1.61-1.15c-0.25-0.18-0.72-0.15-0.81-0.5c-0.04-0.15-0.01-0.33-0.11-0.43
						c-0.13-0.14-0.27-0.28-0.41-0.41c-0.11-0.1-0.18-0.23-0.27-0.35c-0.22-0.29-0.67-0.35-0.97-0.55c-0.46-0.29-0.81-0.7-1.18-1.09
						c-0.06-0.07-0.14-0.16-0.2-0.23c-0.05-0.05-0.11-0.07-0.17-0.1c-0.08-0.04-0.14-0.09-0.2-0.14c-0.1-0.08-0.19-0.17-0.28-0.27
						c-0.14-0.16-0.27-0.33-0.44-0.47c-0.08-0.07-0.16-0.1-0.31-0.06c-0.06,0.02-0.13,0.03-0.19,0.07
						c-0.06,0.04-0.06,0.05-0.07,0.11c-0.01,0.05-0.01,0.08-0.04,0.14c-0.03,0.05-0.06,0.09-0.07,0.14
						c-0.05,0.19,0.05,0.35,0.12,0.45c0.09,0.13,0.22,0.23,0.33,0.33c0.19,0.17,0.43,0.31,0.56,0.53c0.13,0.2,0.29,0.32,0.52,0.4
						c0.24,0.09,0.44,0.29,0.57,0.52c0.15,0.27,0.35,0.44,0.63,0.56c0.17,0.07,0.3,0.2,0.42,0.33c0.43,0.49,0.91,0.93,1.36,1.4
						c0.44,0.47,0.8,1.03,1.3,1.44c0.27,0.23,0.57,0.42,0.86,0.63c0.26,0.19,0.43,0.46,0.63,0.72c0.26,0.36,0.67,0.61,1.14,0.72
						c0.37,0.09,0.67,0.29,0.87,0.58c0.12,0.17,0.24,0.32,0.36,0.48c0.15,0.18,0.37,0.3,0.5,0.5c0.12,0.18,0.24,0.38,0.4,0.54
						c0.19,0.19,0.47,0.23,0.75,0.29c0.2,0.05,0.18,0.28,0.28,0.43c0.03,0.06,0.1,0.07,0.15,0.12c0.07,0.07,0.13,0.14,0.21,0.19
						c0.12,0.07,0.24,0.15,0.37,0.23c0.14,0.08,0.31,0.21,0.53,0.2c0.1,0,0.2-0.03,0.29-0.02
						C190.79,158.08,191.17,158.06,191.16,157.76z"/>
				</g>
			</g>
			<g>
				<g>
					<path class="st1" d="M250.91,214.05c-0.03-0.13-0.14-0.26-0.19-0.32c-0.27-0.31-0.51-0.62-0.81-0.9
						c-0.23-0.21-0.46-0.43-0.71-0.63c-0.22-0.19-0.47-0.34-0.66-0.56c-0.44-0.49-0.85-1-1.27-1.52c-0.61-0.76-1.4-1.27-2.14-1.88
						c-0.15-0.12-0.29-0.25-0.42-0.39c-0.22-0.22-0.44-0.44-0.68-0.64c-0.6-0.51-1.22-1.01-1.76-1.58c-0.27-0.28-0.52-0.6-0.82-0.85
						c-0.34-0.27-0.56-0.63-0.87-0.93c-0.79-0.76-1.69-1.41-2.53-2.12c-0.39-0.32-1.03-0.47-1.25-0.97
						c-0.09-0.21-0.11-0.43-0.27-0.6c-0.22-0.24-0.45-0.47-0.68-0.69c-0.18-0.18-0.32-0.37-0.48-0.56
						c-0.38-0.47-1.02-0.72-1.49-1.09c-0.71-0.56-1.31-1.23-1.93-1.88c-0.12-0.12-0.22-0.25-0.34-0.37
						c-0.08-0.08-0.17-0.13-0.27-0.19c-0.11-0.08-0.21-0.17-0.31-0.27c-0.16-0.15-0.31-0.3-0.46-0.46
						c-0.24-0.26-0.47-0.54-0.73-0.78c-0.14-0.13-0.25-0.2-0.44-0.2c-0.07,0-0.17-0.02-0.25,0.01c-0.07,0.03-0.07,0.04-0.07,0.11
						c0,0.06,0.01,0.09-0.02,0.16c-0.02,0.06-0.05,0.1-0.05,0.16c-0.01,0.23,0.17,0.47,0.29,0.63c0.16,0.21,0.36,0.38,0.55,0.56
						c0.31,0.29,0.67,0.57,0.93,0.91c0.23,0.31,0.49,0.53,0.83,0.73c0.36,0.21,0.69,0.54,0.93,0.89c0.28,0.41,0.61,0.71,1.02,0.98
						c0.26,0.16,0.47,0.37,0.67,0.59c0.74,0.8,1.51,1.56,2.26,2.35c0.74,0.78,1.4,1.65,2.19,2.37c0.44,0.4,0.91,0.77,1.36,1.15
						c0.41,0.35,0.73,0.77,1.07,1.18c0.47,0.57,1.1,1.06,1.77,1.38c0.53,0.25,1,0.63,1.35,1.09c0.21,0.26,0.42,0.51,0.64,0.76
						c0.26,0.3,0.59,0.53,0.83,0.84c0.22,0.29,0.44,0.6,0.7,0.85c0.31,0.32,0.71,0.48,1.11,0.67c0.28,0.13,0.33,0.43,0.5,0.67
						c0.06,0.08,0.16,0.14,0.24,0.21c0.11,0.11,0.22,0.23,0.34,0.33c0.19,0.15,0.38,0.29,0.57,0.44c0.22,0.17,0.49,0.4,0.78,0.47
						c0.13,0.03,0.26,0.03,0.39,0.09C250.51,214.33,251.02,214.45,250.91,214.05z"/>
				</g>
			</g>
			<g>
				<g>
					<path class="st1" d="M240.31,196.34c0,0.1,0.07,0.2,0.1,0.24c0.16,0.22,0.31,0.45,0.51,0.64c0.15,0.15,0.31,0.29,0.47,0.43
						c0.15,0.13,0.33,0.22,0.45,0.38c0.27,0.35,0.52,0.72,0.77,1.1c0.37,0.55,0.93,0.87,1.43,1.28c0.1,0.08,0.19,0.17,0.28,0.27
						c0.14,0.16,0.29,0.3,0.45,0.44c0.4,0.34,0.82,0.68,1.17,1.08c0.17,0.2,0.32,0.43,0.53,0.59c0.23,0.18,0.35,0.45,0.55,0.65
						c0.52,0.52,1.14,0.95,1.71,1.42c0.26,0.22,0.77,0.25,0.86,0.64c0.04,0.16,0.01,0.35,0.11,0.47c0.14,0.17,0.29,0.33,0.44,0.49
						c0.12,0.12,0.2,0.26,0.29,0.4c0.23,0.34,0.72,0.46,1.04,0.7c0.48,0.37,0.86,0.85,1.25,1.3c0.07,0.08,0.14,0.18,0.21,0.27
						c0.05,0.06,0.12,0.08,0.18,0.12c0.08,0.05,0.14,0.11,0.21,0.18c0.1,0.1,0.21,0.21,0.3,0.32c0.15,0.19,0.29,0.38,0.46,0.55
						c0.09,0.09,0.17,0.13,0.33,0.11c0.06-0.01,0.14-0.01,0.21-0.05c0.06-0.03,0.06-0.05,0.08-0.1c0.01-0.05,0.01-0.08,0.05-0.14
						c0.03-0.05,0.06-0.09,0.08-0.14c0.05-0.2-0.05-0.37-0.12-0.49c-0.09-0.15-0.23-0.27-0.35-0.39c-0.2-0.2-0.45-0.38-0.6-0.63
						c-0.14-0.23-0.31-0.37-0.56-0.49c-0.26-0.13-0.47-0.36-0.6-0.62c-0.16-0.3-0.37-0.51-0.67-0.68c-0.18-0.1-0.32-0.25-0.45-0.4
						c-0.46-0.57-0.97-1.1-1.44-1.65c-0.47-0.55-0.85-1.19-1.38-1.68c-0.29-0.27-0.61-0.52-0.92-0.78
						c-0.28-0.23-0.46-0.54-0.67-0.84c-0.28-0.41-0.72-0.74-1.22-0.91c-0.39-0.14-0.71-0.39-0.92-0.72
						c-0.12-0.19-0.25-0.37-0.39-0.55c-0.16-0.21-0.39-0.36-0.53-0.59c-0.13-0.21-0.26-0.44-0.42-0.62c-0.2-0.22-0.5-0.3-0.8-0.4
						c-0.21-0.07-0.2-0.32-0.29-0.49c-0.04-0.06-0.11-0.09-0.16-0.14c-0.07-0.08-0.14-0.16-0.22-0.23c-0.13-0.1-0.26-0.19-0.39-0.29
						c-0.15-0.11-0.33-0.27-0.56-0.28c-0.11-0.01-0.21,0.01-0.31-0.02C240.69,196.04,240.29,196.02,240.31,196.34z"/>
				</g>
			</g>
			<g>
				<g>
					<path class="st1" d="M260.83,203.8c0.02-0.07,0-0.12-0.01-0.14c-0.06-0.11-0.1-0.23-0.2-0.3c-0.07-0.06-0.14-0.12-0.22-0.16
						c-0.07-0.04-0.17-0.06-0.22-0.13c-0.1-0.17-0.19-0.36-0.27-0.55c-0.12-0.28-0.43-0.33-0.69-0.46c-0.05-0.03-0.09-0.06-0.13-0.1
						c-0.06-0.07-0.13-0.13-0.2-0.18c-0.2-0.12-0.41-0.23-0.55-0.4c-0.07-0.09-0.12-0.21-0.22-0.26c-0.11-0.06-0.13-0.22-0.22-0.3
						c-0.23-0.21-0.57-0.32-0.85-0.48c-0.13-0.07-0.48,0.07-0.45-0.18c0.01-0.11,0.08-0.25,0.03-0.3c-0.06-0.08-0.12-0.15-0.19-0.21
						c-0.05-0.05-0.07-0.13-0.1-0.2c-0.08-0.17-0.39-0.1-0.55-0.18c-0.25-0.11-0.39-0.34-0.56-0.54c-0.02-0.03-0.06-0.09-0.08-0.12
						c-0.02-0.02-0.06-0.02-0.1-0.03c-0.04-0.01-0.07-0.04-0.1-0.06c-0.05-0.04-0.09-0.08-0.13-0.14c-0.06-0.09-0.11-0.19-0.19-0.25
						c-0.04-0.03-0.09-0.04-0.2,0.03c-0.04,0.03-0.1,0.05-0.16,0.1c-0.05,0.04-0.06,0.05-0.08,0.1c-0.02,0.04-0.03,0.06-0.07,0.11
						c-0.03,0.05-0.06,0.08-0.09,0.13c-0.09,0.16-0.05,0.25-0.03,0.32c0.03,0.08,0.1,0.12,0.15,0.17c0.09,0.08,0.22,0.13,0.27,0.26
						c0.04,0.12,0.13,0.17,0.27,0.18c0.15,0.01,0.24,0.11,0.27,0.25c0.04,0.17,0.14,0.25,0.3,0.28c0.1,0.01,0.16,0.08,0.21,0.15
						c0.18,0.26,0.41,0.49,0.61,0.74c0.2,0.25,0.31,0.59,0.56,0.78c0.14,0.11,0.3,0.18,0.45,0.27c0.14,0.08,0.19,0.24,0.26,0.4
						c0.1,0.21,0.32,0.3,0.63,0.27c0.24-0.03,0.4,0.05,0.47,0.23c0.04,0.1,0.09,0.19,0.14,0.28c0.06,0.1,0.18,0.14,0.23,0.26
						c0.04,0.11,0.07,0.24,0.15,0.31c0.09,0.1,0.28,0.06,0.46,0.03c0.13-0.02,0.06,0.17,0.09,0.26c0.01,0.03,0.06,0.03,0.08,0.05
						c0.03,0.04,0.06,0.07,0.1,0.09c0.06,0.03,0.13,0.05,0.21,0.08c0.08,0.03,0.17,0.09,0.32,0.02c0.07-0.03,0.15-0.07,0.21-0.09
						C260.5,204.15,260.77,204.03,260.83,203.8z"/>
				</g>
			</g>
			<g>
				<g>
					<path class="st1" d="M263.52,200.47c-0.05,0.05-0.06,0.07-0.07,0.07c-0.03,0.03-0.06,0.08-0.06,0.08c0.01,0,0.01,0,0.03-0.01
						c0.01-0.01,0.06-0.05,0.04-0.03c-0.03,0.05-0.09,0.11-0.15,0.18c-0.08,0.1,0.05-0.01,0.11-0.05c0.01-0.01,0.02-0.01,0.01,0
						c-0.01,0.01,0,0.02,0.01,0.01c0.04-0.02,0.09-0.06,0.07-0.02c-0.01,0.02-0.05,0.06-0.02,0.05c0.03-0.02-0.04,0.06-0.04,0.07
						c0.01,0.01,0.12-0.08,0.18-0.11c0.03-0.02,0.27-0.25,0.13-0.1c-0.06,0.06-0.16,0.17-0.17,0.18c-0.01,0.02-0.02,0.03-0.01,0.03
						c0,0-0.03,0.04-0.05,0.06c-0.05,0.06,0.14-0.12,0.18-0.15c0.07-0.05,0.02,0.01,0,0.05c0,0.01-0.02,0.03-0.02,0.03
						c0,0,0.02-0.02,0.03-0.03c0.02-0.01,0.02-0.01,0.02-0.01c0,0,0,0,0,0.02c-0.01,0.02-0.04,0.05-0.03,0.05
						c0,0,0.02-0.02,0.12-0.11c0.04-0.03,0.08-0.07,0.13-0.12c0.05-0.05,0.05-0.05,0.09-0.09c0.03-0.03,0.04-0.05,0.09-0.09
						c0.04-0.04,0.07-0.08,0.11-0.11c0.12-0.13,0.16-0.16,0.18-0.19c0.03-0.03,0.01-0.02,0.01-0.03c0-0.01-0.04,0.03,0-0.03
						c0.04-0.05,0.02-0.04-0.04,0.02c-0.07,0.06-0.06,0.05-0.01-0.02c0.07-0.08,0.06-0.08-0.01-0.02c-0.04,0.04-0.04,0.03-0.03,0.01
						c0.04-0.06,0.04-0.09,0.07-0.14c0.03-0.05,0.15-0.19,0.12-0.18c-0.01,0-0.06,0.03-0.09,0.05c-0.03,0.02,0.03-0.05,0.07-0.1
						c0.06-0.07-0.01-0.02-0.18,0.13c-0.13,0.12-0.17,0.15-0.12,0.08c0.03-0.04,0.05-0.07,0.07-0.09c0.02-0.03-0.02,0.01,0.02-0.04
						c0.04-0.04,0.08-0.1,0.09-0.11c0.01-0.01-0.11,0.09-0.21,0.18c-0.07,0.06,0.05-0.07,0.09-0.11c0.01-0.01-0.01,0.01-0.01,0
						c0-0.01,0.01-0.02,0-0.01c-0.02,0.01-0.04,0.03-0.06,0.05c-0.03,0.02-0.04,0.03-0.15,0.13c-0.05,0.05-0.11,0.11-0.15,0.14
						C263.86,200.13,263.67,200.32,263.52,200.47z"/>
				</g>
			</g>
		</g>
	</g>
</g>
</svg>
