<svg xmlns="http://www.w3.org/2000/svg" viewBox="0 0 18.58 28.95"><defs><style>.cls-1{fill:#2d3cc7;}.cls-2{fill:#f2bba7;}.cls-3{fill:#e77f71;}.cls-4{fill:#fff;}</style></defs><g id="Layer_2" data-name="Layer 2"><g id="Layer_1-2" data-name="Layer 1"><path d="M17.83,24a3,3,0,0,0-.49-.76,4.33,4.33,0,0,0-.52-.53l-.34-.27q-.35-.26-.72-.48a10.24,10.24,0,0,0-1-.51h0a5.64,5.64,0,0,0-.58-.25l-.43-.16a12.22,12.22,0,0,0-1.31-.38c-.36-.08-.73-.15-1.1-.2a13.59,13.59,0,0,0-5.45.39h0l-.66.2h0c-.27.09-.54.18-.81.29a6.07,6.07,0,0,0-.59.24h0l-.07,0a12.64,12.64,0,0,0-1.17.58,5.84,5.84,0,0,0-.53.33,6.29,6.29,0,0,0-.72.52,6,6,0,0,0-.63.6A2.24,2.24,0,0,0,.7,27c.89,1,2.47,1.36,3.72,1.62a19.66,19.66,0,0,0,9.27-.43,18.55,18.55,0,0,0,2.14-.72,3.68,3.68,0,0,0,1.55-1A2.24,2.24,0,0,0,17.83,24Z"/><path class="cls-1" d="M9.3,24.46c-2.25,0-4.79-1.45-4.05-3.37h0l.66-.2c-.65,1.42.45,2.35,1.56,2.77a4.66,4.66,0,0,0,3.64-.19,1.68,1.68,0,0,0,.38-2.85l-.13-.12c.37.05.74.12,1.1.2C13.92,23,11,24.48,9.3,24.46Z"/><path class="cls-1" d="M6.88,25.45A5.28,5.28,0,0,1,4.1,23.4a2.56,2.56,0,0,1-.25-1.78h0a6.07,6.07,0,0,1,.59-.24,1.59,1.59,0,0,0-.12,1.35,3.41,3.41,0,0,0,1.35,1.58,5.91,5.91,0,0,0,3.72,1c2.42-.16,5.16-2,4.38-4.2l.43.16a5.64,5.64,0,0,1,.58.25h0C15.16,24,10.14,26.7,6.88,25.45Z"/><path class="cls-1" d="M16.48,22.48a3.41,3.41,0,0,1-1.07,1.84c-3.14,3-11,4.24-13-.4a3.5,3.5,0,0,1-.3-1.36,5.84,5.84,0,0,1,.53-.33,2.23,2.23,0,0,0,0,.42,3.35,3.35,0,0,0,1.6,2.68,9.46,9.46,0,0,0,8.49.31c1.55-.76,2.94-2,3.11-3.64Q16.14,22.23,16.48,22.48Z"/><path class="cls-1" d="M.73,23.68c-.18,2.06,2,4.88,8.06,4.59,2.44-.12,5.14-.52,7.15-2A6.91,6.91,0,0,0,17.83,24a3,3,0,0,0-.49-.76,6.38,6.38,0,0,1-1.71,2.53,12.17,12.17,0,0,1-6.79,2.07A11.19,11.19,0,0,1,3,26.52a3.15,3.15,0,0,1-1.59-3.44Z"/><path class="cls-2" d="M11.49,18.64c-.66.06-1.29-.41-1.9-.59a5.92,5.92,0,0,0-.8-.17,2.56,2.56,0,0,0-1.07,0,.6.6,0,0,0-.41.33,1.19,1.19,0,0,0-.08.16l0,.06c0,.21-.1.42-.16.65a5.88,5.88,0,0,0-.31,2.79c.29,1.17,1.86,1.56,2.91,1.34a1.82,1.82,0,0,0,.8-.39c1-.83,1.12-2.68,1.39-3.82A.33.33,0,0,0,11.49,18.64Z"/><path class="cls-3" d="M11.83,19c-.27,1.14-.4,3-1.39,3.82a4.36,4.36,0,0,1-2.13-1.52,6.57,6.57,0,0,1-1.08-1.74A3.19,3.19,0,0,1,7,19.1.65.65,0,0,1,7,19a2.29,2.29,0,0,1-.14-.64.13.13,0,0,1,0-.06h0a.2.2,0,0,1,0-.09A.22.22,0,0,1,7,18.11c0-.11.17-.1.21,0l0,0h0l.08.09a1.76,1.76,0,0,1,.14.23l0,0a.1.1,0,0,1,.14-.1,5.15,5.15,0,0,1,.52-.21c.21-.09.42-.16.63-.23a5.92,5.92,0,0,1,.8.17c.61.18,1.24.65,1.9.59A.33.33,0,0,1,11.83,19Z"/><path class="cls-2" d="M18.33,4.55a67.15,67.15,0,0,1-.5,7.16,9.74,9.74,0,0,1-.17,1c-.08.38-.16.75-.25,1.11-.63,2.61-1.51,5-3.5,6.44-2.3,1.71-5.78,0-7.33-1.85a19.25,19.25,0,0,1-3.65-7.25,14.71,14.71,0,0,1-.71-5.74s.53-.63.52-.2v.08A14.74,14.74,0,0,0,5.52,6.71a13.33,13.33,0,0,0,10.39-.87h0l.05,0a17.9,17.9,0,0,0,1.74-1.26,1.27,1.27,0,0,1,.08-.48C18,4.17,18.33,4.3,18.33,4.55Z"/><path class="cls-4" d="M18.06,4c0,2-3.5,3.64-7.82,3.64S2.41,6,2.41,4,5.91.31,10.24.31,18.06,1.94,18.06,4Z"/><path class="cls-3" d="M17.83,11.71a9.74,9.74,0,0,1-.17,1c-.08.38-.16.75-.25,1.11A1,1,0,0,1,17,12.51,1.57,1.57,0,0,1,17.83,11.71Z"/><path d="M18.4,4.13c0-.17-.28-.31-.4-.13a10.85,10.85,0,0,0-.76,1.19,1.23,1.23,0,0,0,.09,1,19,19,0,0,1,.52,3.28c.08.87.35.39.41.08A15.49,15.49,0,0,0,18.4,4.13Z"/><path d="M17.12,13a15.33,15.33,0,0,0-1.65-1c-.14-.08-.3.15-.16.25l1.06.74a2.48,2.48,0,0,1,.79.64c.31.51-.38.71-.75.73a3.35,3.35,0,0,1-1.21-.21c-.34-.1-.46.47-.11.54.74.16,2.31.37,2.56-.66A1.06,1.06,0,0,0,17.12,13Z"/><path d="M14.71,16a1.52,1.52,0,0,0-1.59,1.11.13.13,0,0,0,.17.14.11.11,0,0,0,.12,0,4.17,4.17,0,0,1,1-.6,2.5,2.5,0,0,0,.39-.11A.28.28,0,0,0,14.71,16Z"/><path d="M13.39,11c-.23.11-.49.37-.68.39-1.55.2-2.28-1-2.46-.8s.84,1.1,1.33,1.25a2.3,2.3,0,0,0,2.24-.43.27.27,0,0,0-.11-.45A.47.47,0,0,0,13.39,11Z"/><path d="M17.21,10.13s-.67,1.37-1.77.54c-.22-.17-.29.17-.24.26.49.89,1.72.52,2.18-.21C17.67,10.27,17.63,9.82,17.21,10.13Zm-.78.82a2.44,2.44,0,0,0,.28-.14A.82.82,0,0,1,16.43,11Z"/><path d="M12.51,8.32a5.74,5.74,0,0,0-2,.61c-.31.18-.26.66.25.5a17.34,17.34,0,0,1,2.1-.52C13.29,8.79,13.2,8.27,12.51,8.32Z"/><path d="M17.36,8.29A2.44,2.44,0,0,0,15.61,8h0l-.08,0c-.32.08-.19.67.14.6a2.56,2.56,0,0,1,1.2,0C17.59,8.91,17.64,8.47,17.36,8.29Z"/><path d="M8.54,7.14,7.78,7a14.15,14.15,0,0,1-1.93-.43,10.13,10.13,0,0,1-2.32-1L3,5.37a.28.28,0,0,0-.24-.13l0,0a7.68,7.68,0,0,1-.31-1l0-.06v0c0-.1,0-.2,0-.31a.09.09,0,0,0,0-.09v0a.12.12,0,0,0-.24,0v0l0,.06-.06.55a.49.49,0,0,0,0,.24c0,.57-.07,1.2-.06,1.79s0,1.43.12,2.14a17,17,0,0,0,2.27,7.11c.16.31,1.23,2,1.65,1.82s.17-3-.12-3.06a2.11,2.11,0,0,1-1.24-2.81.81.81,0,0,1,1.13-.47c.44.24.36.88.89.84C7.51,11.89,8.59,7.33,8.54,7.14Z"/><path class="cls-3" d="M11.54,13.84A1.87,1.87,0,0,0,9,13a1,1,0,0,0-.34,1.42,1.8,1.8,0,0,0,1.73.77c.47-.05,1.07-.33,1.17-.83A.82.82,0,0,0,11.54,13.84Z"/><path class="cls-3" d="M6.07,12.45A.62.62,0,0,0,6,12.08a.63.63,0,0,0-.91.24.82.82,0,0,0,.52.93c.3.11.44-.05.47-.33A1.73,1.73,0,0,0,6.07,12.45Z"/><path class="cls-1" d="M16.39,1.48A12.53,12.53,0,0,0,12,.11,15.33,15.33,0,0,0,7.22.28a16.58,16.58,0,0,0-2.3.61A5.7,5.7,0,0,0,3,1.84a2.59,2.59,0,0,0-.95,1.85v.05l0,.08a1.61,1.61,0,0,0,0,.62,1.25,1.25,0,0,0,.5.88.4.4,0,0,0,.14.18A16.13,16.13,0,0,0,13.87,7.66c2.64-.49,3.85-1.48,4.32-2.77C18.74,3.41,17.54,2.11,16.39,1.48Zm1.07,3c-.91,2-4.51,2.84-8.68,2.4C7.23,6.7,1.61,5.27,3.25,2.69,4.44.83,8.54.4,11.68.74S18.29,2.64,17.46,4.47Z"/><path class="cls-1" d="M16,4.38a6.94,6.94,0,0,1-4.8,1.53,11.82,11.82,0,0,1-5.6-.79c-.25-.1-.54.23-.32.36C8,7,12.73,6.54,13.37,6.4c.09.11.2.2.3.3a4.14,4.14,0,0,0,.5.44c.31.21.61-.25.38-.52a4.54,4.54,0,0,0-.48-.39h0a6.27,6.27,0,0,0,2.58-1.54C16.92,4.35,16.37,4.11,16,4.38Z"/><path class="cls-1" d="M5.13,2.46c.24-.17,0-.5-.26-.36A2,2,0,0,0,3.69,3.43c0,.18-1,.11-1.24.12,0,0,.06.45.09.62a11.56,11.56,0,0,1,1.2-.06,5.79,5.79,0,0,0,.73.78c.37.23.58-.16.37-.33A1,1,0,0,1,4.4,3.39,1.47,1.47,0,0,1,5.13,2.46Z"/><path class="cls-1" d="M15.19,3.43c-.32-.74-2-1.48-4.7-1.63C6.72,1.6,5.28,2.9,5.35,3.7c.06.59.68.82,1.5,1.26a3.38,3.38,0,0,0-.39.52c-.26.24.37.45.66.25s.49-.45.56-.52a13.89,13.89,0,0,0,3.64.17c.18,0,.16-.5-.42-.46a8.26,8.26,0,0,1-3-.31c-.5-.12-1.61-.5-1.87-1s1.17-1.42,4-1.3c5.72.24,5.35,2.05,2.37,2.43-.52.07-.32.64.12.58C14.66,5,15.56,4.29,15.19,3.43Z"/><path class="cls-1" d="M11.62,1.09A4.78,4.78,0,0,0,10.52,1a8.2,8.2,0,0,0-1.4,0A1.76,1.76,0,0,0,9,.68.56.56,0,0,0,8.81.32.19.19,0,0,0,8.53.4a.61.61,0,0,0,0,.42,2.07,2.07,0,0,1,0,.22l-.21,0a9,9,0,0,0-2.67.61c-.24.09-.15.36,0,.41s.69-.19.92-.25a12.12,12.12,0,0,1,4.84-.38C11.64,1.49,11.79,1.12,11.62,1.09Z"/><path class="cls-1" d="M17,3.4c-.34-.85-2.41-1.83-4.39-2.22-.31-.06-.37.36,0,.45a8.66,8.66,0,0,1,1.69.58,1.31,1.31,0,0,0-.76.4,3.63,3.63,0,0,1,.65.16c.22-.11.54-.32.74-.28a2.14,2.14,0,0,1,1.45,1.06C16.5,3.84,17.12,3.83,17,3.4Z"/><path class="cls-1" d="M14.81,3.54c-.28,0-1.33,0-1.36-.12-.09-.32-.69-.45-1.34-.61-1.29-.3-1.08.24-.56.3,1.41.13,1.11.64.92.69S10.43,4,10.2,4c-2.75,0-2.74-.75-1.46-.95.82-.13,2.12.17,1.74-.27-.19-.23-.72-.22-1.47-.17S6.58,3,7,3.72c.29.47,2.18.75,2.83.79A7.78,7.78,0,0,0,13.19,4a11.3,11.3,0,0,0,1.56,0A.24.24,0,0,0,14.81,3.54Z"/><path class="cls-1" d="M10.41,3.28H9.59a.62.62,0,0,0-.22,0H9.28c-.29,0-.41.29-.08.33h.15a.46.46,0,0,0,.24.06l.89,0h.73c.41,0,.42-.39,0-.4h-.8"/></g></g></svg>