<svg xmlns="http://www.w3.org/2000/svg" viewBox="0 0 22.46 48.01"><defs><style>.cls-1{fill:#d4ac20;}.cls-2{fill:#f2bba7;}.cls-3{fill:#e77f71;}.cls-4{fill:#007f50;}.cls-5{fill:#ed4030;}.cls-6{fill:#2d3cc7;}</style></defs><g id="Layer_2" data-name="Layer 2"><g id="Layer_1-2" data-name="Layer 1"><path class="cls-1" d="M1.64,28.76C1.77,31.83,5.05,35,7,37.39a14.71,14.71,0,0,0,7.58,5,28.13,28.13,0,0,0,4.56.73A2.6,2.6,0,0,0,21,42.82a2.67,2.67,0,0,0,.71-2.11,26.08,26.08,0,0,0,0-2.8c0-.21,0-.42,0-.63-.06-.79-.15-1.56-.28-2.3-.06-.37-.13-.74-.21-1.09a24.35,24.35,0,0,0-.89-3.12c-.2-.51-.4-1-.61-1.48-2-4.4-4.94-6.74-6.37-6.33L14,24.87a13.66,13.66,0,0,0-6.28-.65c-1.17.16-4,.23-4.79,1.15A5.57,5.57,0,0,0,1.64,28.76Z"/><path d="M2.79,30.73v.17c0,.34,0,.69.08,1,0,.06,0,.12,0,.18l.06.4a15.28,15.28,0,0,0,2.32,6.12C6.8,41,7.07,43,9.6,44.25c.63.3,5.24,4,10.19.46,1.44-1,2.32-3,1.57-2.8a4.55,4.55,0,0,1-4.76-2.77c-.42-1-1.93-5-2.05-5.3s-.31-.74-.47-1.11-.23-.52-.36-.78c0-.06-.05-.12-.07-.17l-.18-.37c-.05-.11-.11-.22-.16-.34-.39-.79-.79-1.57-1.22-2.34l-.38-.66c-.18-.32-.37-.64-.56-.95a1.6,1.6,0,0,0-.84-.7,1.48,1.48,0,0,0-.73,0,1.25,1.25,0,0,0-.27.08c-.57.22-.46.67-.52,1.28a1.32,1.32,0,0,1-.63,1.13A1,1,0,0,1,7.1,28.7a2.38,2.38,0,0,1-.65-.91,7.7,7.7,0,0,0-.63-1.25,1.53,1.53,0,0,0-1.17-.7,1.4,1.4,0,0,0-1.08.59,3.21,3.21,0,0,0-.48,1.16A11.83,11.83,0,0,0,2.79,30.73Z"/><path d="M6.81,29.78c0,.67,0,1.34.06,2a3.35,3.35,0,0,1,1.26.77,2.62,2.62,0,0,1-1.21-.14c.06.69.13,1.39.17,2.08v.13a.41.41,0,0,1,.45,0,.82.82,0,0,1,.17.2.19.19,0,0,1,0,.09.83.83,0,0,1,.07.13.52.52,0,0,1,0,.11,1.47,1.47,0,0,1,.54,1.42l-.15-.14.12.14a1.91,1.91,0,0,1-.75-1l-.05,0a.43.43,0,0,1-.25,0,.51.51,0,0,1-.16-.09c.07,1.28.11,2.56.1,3.85,0,.83,0,1.67-.12,2.5a15,15,0,0,0,.32,2.65c.26,1.4,1.41,1.24,2.63,1.33.28,0,1.1-2.49,1.36-3.33s.49-1.67.67-2.53a36.89,36.89,0,0,0,.72-5.24c.06-.9.12-1.82.1-2.73h0a.6.6,0,0,1-.14-.45.68.68,0,0,1,.12-.26h0a9.65,9.65,0,0,0-.54-2.76,1.12,1.12,0,0,0,0-.13,4.73,4.73,0,0,0-.31-.64,3.67,3.67,0,0,0-1.55-1.47,1.7,1.7,0,0,0-.91-.24c-1.42,0-2.39,1.63-2.66,3a1,1,0,0,1,.56.24A1.15,1.15,0,0,1,6.81,29.78Zm4.61.61a.24.24,0,0,1,.08.09.1.1,0,0,1,0,.05.38.38,0,0,1,0,.46l0,.05a.57.57,0,0,1-.13.08l-.13,0A.41.41,0,0,1,10.9,31a.43.43,0,0,1-.11-.21.45.45,0,0,1,.07-.37A1.69,1.69,0,0,1,10.07,29a2.54,2.54,0,0,1,1.08,1.26A.46.46,0,0,1,11.42,30.39Zm-.88,3.52a.33.33,0,0,1-.17.14.35.35,0,0,1-.42-.12l-.15-.21a.38.38,0,0,1,.6-.47.87.87,0,0,1,.46-.55A2.13,2.13,0,0,1,12,32.59a1.92,1.92,0,0,1-1.23,1l-.19-.23.11.16-.09,0a.28.28,0,0,1,0,.09v.1A.29.29,0,0,1,10.54,33.91ZM9.22,36.39a.39.39,0,0,1,.5-.2.65.65,0,0,1,.16.13.38.38,0,0,1,.06.13h0a.24.24,0,0,1,.09.17.46.46,0,0,1,0,.2l0,0-.71-.05a1,1,0,0,1-.07-.15A.39.39,0,0,1,9.22,36.39ZM8.07,33.76a.43.43,0,0,1,.15-.2l.57.21h0a.37.37,0,0,1,.07.14.22.22,0,0,1,0,.08h0a2.69,2.69,0,0,1,1.19.83l-.24,0a1.78,1.78,0,0,1-1.11-.48l-.11,0a.36.36,0,0,1-.3-.06A.59.59,0,0,1,8.07,33.76Zm-.3-3.82A2.08,2.08,0,0,1,8.9,31a.42.42,0,0,1,.25,0,.7.7,0,0,1,.19.06.5.5,0,0,1,.27.35,2.55,2.55,0,0,1,1.15.45,2.31,2.31,0,0,1-1.25-.07.43.43,0,0,1-.2.15A.45.45,0,0,1,9,32a.33.33,0,0,1-.1-.06.46.46,0,0,1-.13-.18h0l0-.05h0a.47.47,0,0,1-.08-.14.34.34,0,0,1,0-.22A2.26,2.26,0,0,1,7.77,29.94Z"/><path d="M12.91,31.3a.68.68,0,0,0-.12.26.6.6,0,0,0,.14.45C12.93,31.77,12.92,31.54,12.91,31.3Z"/><path d="M11.53,31a.38.38,0,0,0,0-.46.1.1,0,0,0,0-.05.24.24,0,0,0-.08-.09.46.46,0,0,0-.27-.09A2.54,2.54,0,0,0,10.07,29a1.69,1.69,0,0,0,.79,1.41.45.45,0,0,0-.07.37.43.43,0,0,0,.11.21.41.41,0,0,0,.33.13l.13,0a.57.57,0,0,0,.13-.08Z"/><path d="M10.54,33.91a.29.29,0,0,0,.05-.13v-.1a.28.28,0,0,0,0-.09l.09,0-.11-.16.19.23a1.92,1.92,0,0,0,1.23-1,2.13,2.13,0,0,0-1.12.11.87.87,0,0,0-.46.55.38.38,0,0,0-.6.47l.15.21a.35.35,0,0,0,.42.12A.33.33,0,0,0,10.54,33.91Z"/><path d="M9.22,36.39a.39.39,0,0,0,0,.26,1,1,0,0,0,.07.15l.71.05,0,0a.46.46,0,0,0,0-.2.24.24,0,0,0-.09-.17h0a.38.38,0,0,0-.06-.13.65.65,0,0,0-.16-.13A.39.39,0,0,0,9.22,36.39Z"/><path d="M10.76,31.9a2.55,2.55,0,0,0-1.15-.45.5.5,0,0,0-.27-.35A.7.7,0,0,0,9.15,31a.42.42,0,0,0-.25,0,2.08,2.08,0,0,0-1.13-1.09,2.26,2.26,0,0,0,.84,1.39.34.34,0,0,0,0,.22.47.47,0,0,0,.08.14h0l0,.05h0a.46.46,0,0,0,.13.18A.33.33,0,0,0,9,32a.45.45,0,0,0,.34,0,.43.43,0,0,0,.2-.15A2.31,2.31,0,0,0,10.76,31.9Z"/><path d="M8.22,33.56a.43.43,0,0,0-.15.2.59.59,0,0,0,.23.6.36.36,0,0,0,.3.06l.11,0a1.78,1.78,0,0,0,1.11.48l.24,0A2.69,2.69,0,0,0,8.87,34h0a.22.22,0,0,0,0-.08.37.37,0,0,0-.07-.14h0Z"/><path d="M7.1,34.64c0,.29,0,.58.05.87a.51.51,0,0,0,.16.09.43.43,0,0,0,.25,0l.05,0a1.91,1.91,0,0,0,.75,1l-.12-.14.15.14a1.47,1.47,0,0,0-.54-1.42.52.52,0,0,0,0-.11A.83.83,0,0,0,7.76,35a.19.19,0,0,0,0-.09.82.82,0,0,0-.17-.2A.41.41,0,0,0,7.1,34.64Z"/><path d="M8.13,32.57a3.35,3.35,0,0,0-1.26-.77c0,.21,0,.42,0,.63A2.62,2.62,0,0,0,8.13,32.57Z"/><path d="M6.82,29.73a.11.11,0,0,0,0,.05,1.15,1.15,0,0,0,.64-.45,1,1,0,0,0-.56-.24A3.68,3.68,0,0,0,6.82,29.73Z"/><path d="M2.43,24.87a2.72,2.72,0,0,0,2.63,1.44,2.89,2.89,0,0,0,1.1-.24,2.93,2.93,0,0,0,.58-.31,7.58,7.58,0,0,0,2.57-4.61c.24-1.22.77-2.36.93-3.6a6.93,6.93,0,0,0,0-.77h0l0-.05C10,16.08,9.66,15,8.9,14.79l-.24-.07c-.15-.06-.23-.13-.31-.41a1.51,1.51,0,0,1,0-.79A1.59,1.59,0,0,1,8.6,13a2.19,2.19,0,0,0-.66-.09c-3.08,0-4.65,3.49-4.54,6.15a8.5,8.5,0,0,1-.55,3.07,1.43,1.43,0,0,1-.09.27A3.75,3.75,0,0,0,2.43,24.87Z"/><path d="M8.35,14.31c.08.28.16.35.31.41l.24.07c.76.22,1.1,1.29,1.37,1.94l0,.05a7.18,7.18,0,0,0-.54-2.57A1.74,1.74,0,0,0,8.6,13a1.59,1.59,0,0,0-.3.54A1.51,1.51,0,0,0,8.35,14.31Z"/><path d="M2.48,31l0,0c.69-.31.91.94.32,1a1.38,1.38,0,0,1-.18,1.41c.31,4.09.45,6.38.78,9.52.13,1.23.3,1.25,1.35,1.69s2.05.38,2.25-.92a36.2,36.2,0,0,0,.45-4.73c0-1.1,0-2.19,0-3.28a.7.7,0,0,1-.14,0,.51.51,0,0,1-.16-.09L7,35.39a.82.82,0,0,1-.12-.25.41.41,0,0,1,.14-.47l0,0a.42.42,0,0,1,.31,0c0-.38,0-.75,0-1.13s0-.62,0-.94a2.09,2.09,0,0,1-.43-.11A2.77,2.77,0,0,1,6.17,32h0a.49.49,0,0,1-.23.08H5.76A.47.47,0,0,1,5.54,32a.48.48,0,0,1-.18-.33.45.45,0,0,1,0-.28.48.48,0,0,1,.92.11.45.45,0,0,1,0,.16h0a2.72,2.72,0,0,1,.51.13,2.76,2.76,0,0,1,.47.2c0-.83,0-1.65-.07-2.47a1,1,0,0,1-.46.25.87.87,0,0,1-.75-.1l0,.06a.44.44,0,0,1-.35.26.45.45,0,0,1-.23,0h0l-.09-.06,0,0a.38.38,0,0,1-.11-.11.43.43,0,0,1-.1-.29.48.48,0,0,1,.19-.37.64.64,0,0,1,.24-.1H5.7a.35.35,0,0,1,.17.06.51.51,0,0,1,.19.22.24.24,0,0,0,0,.08l.07-.06a.92.92,0,0,1,.74-.26.88.88,0,0,1,.36.1l0-.29a5.85,5.85,0,0,0-.57-2.41A2.2,2.2,0,0,0,6.29,26a1.44,1.44,0,0,0-.49-.29c-1.12-.39-2.43.61-2.89,1.41A8.11,8.11,0,0,0,2.48,31Zm1.84,3.75a.45.45,0,0,1,.44-.28.44.44,0,0,1,.25.08,2.69,2.69,0,0,1,1.15-.26,2.19,2.19,0,0,1-1,.62.21.21,0,0,1,0,.08.78.78,0,0,1,0,.14.38.38,0,0,1-.21.24.43.43,0,0,1-.25,0,.67.67,0,0,1-.23-.1A.47.47,0,0,1,4.32,34.71Zm-.15-2.27a.47.47,0,0,1,.23,0,.43.43,0,0,1,.29.18.76.76,0,0,1,.09.18A1.69,1.69,0,0,1,6.39,33l-.14.15a1.21,1.21,0,0,1-1.44-.28v0a.53.53,0,0,1,0,.59.42.42,0,0,1-.58.06,1,1,0,0,1-.32-.63A.45.45,0,0,1,4.17,32.44Z"/><path d="M7.05,34.67a.41.41,0,0,0-.14.47.82.82,0,0,0,.12.25l.12.12a.51.51,0,0,0,.16.09.7.7,0,0,0,.14,0c0-.34,0-.68,0-1a.42.42,0,0,0-.31,0Z"/><path d="M7.27,29.53c0-.11,0-.22,0-.34a.88.88,0,0,0-.36-.1.92.92,0,0,0-.74.26l-.07.06a.24.24,0,0,1,0-.08.51.51,0,0,0-.19-.22.35.35,0,0,0-.17-.06H5.58a.64.64,0,0,0-.24.1.48.48,0,0,0-.19.37.43.43,0,0,0,.1.29.38.38,0,0,0,.11.11l0,0,.09.06h0a.45.45,0,0,0,.23,0A.44.44,0,0,0,6,29.74l0-.06a.87.87,0,0,0,.75.1A1,1,0,0,0,7.27,29.53Z"/><path d="M6.17,32a2.77,2.77,0,0,0,.75.42,2.09,2.09,0,0,0,.43.11c0-.18,0-.36,0-.54a2.76,2.76,0,0,0-.47-.2,2.72,2.72,0,0,0-.51-.13h0a.45.45,0,0,0,0-.16.48.48,0,0,0-.92-.11.45.45,0,0,0,0,.28.48.48,0,0,0,.18.33.47.47,0,0,0,.22.09h.18A.49.49,0,0,0,6.17,32Z"/><path d="M4.32,34.71a.47.47,0,0,0,.14.54.67.67,0,0,0,.23.1.43.43,0,0,0,.25,0,.38.38,0,0,0,.21-.24.78.78,0,0,0,0-.14.21.21,0,0,0,0-.08,2.19,2.19,0,0,0,1-.62A2.69,2.69,0,0,0,5,34.51a.44.44,0,0,0-.25-.08A.45.45,0,0,0,4.32,34.71Z"/><path d="M3.89,32.9a1,1,0,0,0,.32.63.42.42,0,0,0,.58-.06.53.53,0,0,0,0-.59v0a1.21,1.21,0,0,0,1.44.28L6.39,33a1.69,1.69,0,0,0-1.61-.22.76.76,0,0,0-.09-.18.43.43,0,0,0-.29-.18.47.47,0,0,0-.23,0A.45.45,0,0,0,3.89,32.9Z"/><path d="M2.48,31c0,.25,0,.51,0,.75a.76.76,0,0,0,0,.15c0,.37,0,.71.08,1l0,.5a1.38,1.38,0,0,0,.18-1.41c.59-.06.37-1.31-.32-1Z"/><path class="cls-1" d="M2.76,30a18.12,18.12,0,0,0,4.6,3.26,8.33,8.33,0,0,0,.82.34c.21.08.41.15.62.21a8.7,8.7,0,0,0,4.11.3,6.55,6.55,0,0,0,2.49-1,4.29,4.29,0,0,0,.48-.36,6.37,6.37,0,0,0,.59-.57,4.58,4.58,0,0,0,.56-.75c.09-.15.17-.31.25-.47a4.44,4.44,0,0,0,.4-1.76,2.26,2.26,0,0,0,0-.26,4.28,4.28,0,0,0-.38-1.65,3.65,3.65,0,0,0-.73-1.15.69.69,0,0,0-.44-.22c-.51,0-.79.68-.93,1.16,0,.09,0,.18-.06.25v0a2.47,2.47,0,0,1-1,1.5,3.16,3.16,0,0,1-.45.28,6,6,0,0,1-2.27.57l-.59.05h-.6a10.61,10.61,0,0,1-2.85-.32,7,7,0,0,1-.88-.29,6.13,6.13,0,0,1-2-1.27,1.42,1.42,0,0,1,0,1.72A1.57,1.57,0,0,1,2.76,30Z"/><path class="cls-2" d="M5.54,17.7c.36-1.21.88-2.41,2.2-2.8,2.56-.76,3.71,1.89,4.18,3.87.63,2.63-1.29,7.92-4.12,7.06C5.6,25.16,4.9,19.84,5.54,17.7Z"/><path d="M8.33,19.41a1.58,1.58,0,0,0,1.07.64,1.07,1.07,0,0,0,.6-.17.36.36,0,0,1,.3-.06.1.1,0,0,1,.08.11c0,.43-.82.48-1.13.46a1.29,1.29,0,0,1-1.13-.87A.12.12,0,0,1,8.33,19.41Z"/><path d="M6,19.14a.46.46,0,0,0,.52.34.75.75,0,0,0,.57-.26c.12-.16.42,0,.28.2a1,1,0,0,1-1,.35c-.32-.07-.69-.28-.64-.61A.17.17,0,0,1,6,19.14Z"/><path d="M8.68,18.2h.05a1.89,1.89,0,0,1,.85.27,1.15,1.15,0,0,1,.41.28c0,.07.14.26.07.34-.2.24-.77-.31-.93-.41S8.43,18.3,8.68,18.2Z"/><path d="M6.15,18.24c.19-.14,1-.52,1.18-.3s-.43.38-.51.41a3,3,0,0,1-.5.27A.21.21,0,0,1,6.15,18.24Z"/><path d="M7.06,23.57A1,1,0,0,1,8,23.25a1.45,1.45,0,0,1,.5.15,3.11,3.11,0,0,1,.65.41.17.17,0,0,1-.22.27,2.57,2.57,0,0,0-.57-.38A1.9,1.9,0,0,0,8,23.61a2.09,2.09,0,0,0-.82.11C7.06,23.74,7,23.63,7.06,23.57Z"/><path d="M7.25,21.05c.11-.31.18-.64.3-.95,0-.09.19-.07.19,0a3.5,3.5,0,0,1-.18.91c-.06.18-.16.36-.21.54s-.08.39.21.4.2.38,0,.38-.66-.16-.59-.55A4.3,4.3,0,0,1,7.25,21.05Z"/><path class="cls-1" d="M.06,28.7a4,4,0,0,0,0,.5,5,5,0,0,0,.27,1.67,5.54,5.54,0,0,0,.36.85c.07.13.14.26.22.39A9.45,9.45,0,0,0,4.41,35.2l.28.15h0A13.79,13.79,0,0,0,9.27,36.8l.71.05a5.65,5.65,0,0,0,2.39-.37,2.71,2.71,0,0,1-.15-2.27,8.15,8.15,0,0,1-3.43-.44l-.57-.21C7.6,33.32,7,33,6.31,32.72c-1.92-.91-4.44-2.86-3.71-5.36A1,1,0,0,1,3,26.79a3.59,3.59,0,0,0,.61-.51.91.91,0,0,0,.15-.23l-1.22-.87a3.22,3.22,0,0,0-1,.62,4.17,4.17,0,0,0-.36.37h0a3.92,3.92,0,0,0-.25.32l-.16.26a5.77,5.77,0,0,0-.29.55A4.76,4.76,0,0,0,.06,28.7Z"/><path class="cls-2" d="M10,46.07a3.83,3.83,0,0,1-.46.33,2.46,2.46,0,0,0-.39.4,4.64,4.64,0,0,1-.82,1.05c-.09.06-.3.23-.41.14s0-.33-.06-.43a.73.73,0,0,1-.44.25c-.33.07-.17-.21-.18-.4-.16.09-.33.27-.5.2s-.16-.38-.14-.45c-.28.19-.53.13-.64,0s.14-.6.35-.78A2.57,2.57,0,0,0,7,45.45a2.12,2.12,0,0,1,.75-.92A1.64,1.64,0,0,1,9.93,45a.78.78,0,0,1,.09,1Z"/><path class="cls-2" d="M6.23,45.45c0,.42-.09.83-.12,1.25a1.11,1.11,0,0,1-.08.41.39.39,0,0,1-.33.24.23.23,0,0,1-.22-.28.38.38,0,0,1-.34.4.38.38,0,0,1-.38-.36c0,.16-.16.3-.32.26A.52.52,0,0,1,4.13,47a.22.22,0,0,1-.22.28A.35.35,0,0,1,3.6,47a1,1,0,0,1,0-.42c0-.33,0-.66.05-1l.09-1.41a1.2,1.2,0,0,1,.14-.59.94.94,0,0,1,.86-.33,2.12,2.12,0,0,1,1.44.67C6.51,44.36,6.29,44.92,6.23,45.45Z"/><path class="cls-3" d="M9.33,21.15A.63.63,0,0,1,9.54,21c.73-.34,1.34,1,.44,1.15A.7.7,0,0,1,9.33,21.15Z"/><path class="cls-3" d="M5.58,20.83a.47.47,0,0,1,.77-.29.55.55,0,0,1,.18.5.64.64,0,0,1-.29.44.37.37,0,0,1-.35.06.42.42,0,0,1-.26-.23.71.71,0,0,1,0-.45Z"/><path class="cls-4" d="M14.94,34.81c.08.23.18.47.27.72a1.87,1.87,0,0,0,.58-1A6.21,6.21,0,0,0,14.94,34.81Z"/><path class="cls-4" d="M9.55,26.06a2,2,0,0,1,.85.21l.06,0,.06-.09,0,0,.2-.22a1,1,0,0,0-.23-.13A1,1,0,0,0,9.55,26.06Z"/><path class="cls-4" d="M6.29,26a2.2,2.2,0,0,1,.37.47,1.68,1.68,0,0,0,.79.23l.15-.08a2.59,2.59,0,0,0-.86-.88A4,4,0,0,1,6.29,26Z"/><path class="cls-4" d="M16,32.67c-.19.14-.39.27-.59.4l.21.14a1.28,1.28,0,0,0,1.14.22,2.08,2.08,0,0,0-.52-.58Z"/><path class="cls-4" d="M15.08,32.73l-.07,0,0,0Z"/><path d="M8.35,14.31c.08.28.16.35.31.41l.24.07c.76.22,1.1,1.29,1.37,1.94l0,.05h0A8.91,8.91,0,0,1,10.88,19c.2,1.63-.28,3.24-.08,4.86a3.78,3.78,0,0,0,1.94,3,3,3,0,0,0,2.36.25,2.05,2.05,0,0,0,.41-.16,2.63,2.63,0,0,0,.61-.39,3.36,3.36,0,0,0,1.2-3.1,4,4,0,0,0-.65-1.68A11,11,0,0,1,15.49,20a31,31,0,0,1-.82-3.73,5.64,5.64,0,0,0-2-2.86,4,4,0,0,0-3.28-.93,1.72,1.72,0,0,0-.78.5,1.59,1.59,0,0,0-.3.54A1.51,1.51,0,0,0,8.35,14.31Z"/><path class="cls-4" d="M15.1,27.09a1.47,1.47,0,0,0,.24.73,1.21,1.21,0,0,0,.42.39l.07.05a1.44,1.44,0,0,0,0-.46,1.57,1.57,0,0,0-.36-.87A2.05,2.05,0,0,1,15.1,27.09Z"/><path class="cls-4" d="M16.8,32.1a2,2,0,0,0,0-1.93,3.19,3.19,0,0,0-.38,1.69.48.48,0,0,0,.07.29.23.23,0,0,0,.26.12.15.15,0,0,0,.06-.24Z"/><path class="cls-4" d="M19.7,37.53a1.91,1.91,0,0,0,.3-2.19,2.23,2.23,0,0,0-.49,2.22Z"/><path class="cls-4" d="M20.45,32.24a1.22,1.22,0,0,1-1.46,1,1.28,1.28,0,0,1,1.38-1c.09.08,0,.27-.15.21s0-.28.1-.24Z"/><path class="cls-4" d="M17.49,36.17a1.8,1.8,0,0,0-.35-2.08,1.75,1.75,0,0,0,.22,2.25Z"/><path class="cls-4" d="M16.05,28.56a1.57,1.57,0,0,0,1.76.58A1.55,1.55,0,0,0,16,28.39Z"/><path class="cls-4" d="M20.15,31s.08,0,.12-.17l0-.08c-.2-.51-.4-1-.61-1.48A1.75,1.75,0,0,0,20.15,31Z"/><path class="cls-4" d="M20,40.39a1.36,1.36,0,0,0,1.1-1.27,1.83,1.83,0,0,0-1.08,1.26Z"/><path class="cls-4" d="M18.24,39.29a1.52,1.52,0,0,0-.67-1.63,1.38,1.38,0,0,0,.6,1.58Z"/><path class="cls-4" d="M18.44,28.2a2,2,0,0,0-.87-1.7,1.67,1.67,0,0,0,.78,1.82l.08.05Z"/><path class="cls-4" d="M13.38,31.71a1.52,1.52,0,0,0,.16.42,1.78,1.78,0,0,0,1.47.92l.15-.08L15,32.73v0a2.82,2.82,0,0,0-1.19-.88A2.9,2.9,0,0,0,13.38,31.71Z"/><path class="cls-4" d="M2.48,26.52a2.49,2.49,0,0,0,.51.27,3.59,3.59,0,0,0,.61-.51,1.73,1.73,0,0,0-1,.1Z"/><path class="cls-4" d="M11.18,30.62,11,30.55H11Z"/><path class="cls-4" d="M10.23,29.74a1.87,1.87,0,0,0,.63.71l.17.1.19,0a2.86,2.86,0,0,0-.07-.28,2.3,2.3,0,0,0-.32-.57Z"/><path class="cls-4" d="M10.43,33.62l.15,0,.09,0-.11-.16.19.23a1.92,1.92,0,0,0,1.23-1,2.13,2.13,0,0,0-1.12.11.87.87,0,0,0-.46.55A.53.53,0,0,0,10.43,33.62Z"/><path class="cls-4" d="M9,31.55l-.09,0H8.77Z"/><path class="cls-4" d="M7.77,29.94a2.26,2.26,0,0,0,.84,1.39l.27.18h.17A1.84,1.84,0,0,0,8.9,31,2.08,2.08,0,0,0,7.77,29.94Z"/><path class="cls-4" d="M6.14,32l0,0a2.77,2.77,0,0,0,.75.42,2.09,2.09,0,0,0,.43.11,2.54,2.54,0,0,0,.78,0A3.38,3.38,0,0,0,7.34,32a2.76,2.76,0,0,0-.47-.2,2.72,2.72,0,0,0-.51-.13h0Z"/><path class="cls-4" d="M21,37.55a1.54,1.54,0,0,0,.57.29l.2.07c0-.21,0-.42,0-.63l-.28-.1a.68.68,0,0,0-.4,0C20.82,37.23,20.72,37.35,21,37.55Z"/><path class="cls-4" d="M6.5,29.13a1,1,0,0,0-.35.22l-.07.06-.19.14a.7.7,0,0,0,.17.13.87.87,0,0,0,.75.1,1,1,0,0,0,.46-.25l.11-.11h0Z"/><path class="cls-4" d="M12,27.77a4.73,4.73,0,0,1,.31.64,1.19,1.19,0,0,0,.08-.77A.79.79,0,0,0,12,27.77Z"/><path class="cls-4" d="M8.35,33.89a1.72,1.72,0,0,0,.36.49,1.78,1.78,0,0,0,1.11.48l.24,0A2.69,2.69,0,0,0,8.87,34h0A2.31,2.31,0,0,0,8.35,33.89Z"/><path class="cls-4" d="M7.53,35a1.54,1.54,0,0,0,.08.57,1.91,1.91,0,0,0,.75,1l-.12-.14.15.14a1.47,1.47,0,0,0-.54-1.42A2,2,0,0,0,7.53,35Z"/><path class="cls-4" d="M4.75,32.79s0,.05.06.07a1.21,1.21,0,0,0,1.44.28L6.39,33a1.69,1.69,0,0,0-1.61-.22Z"/><path class="cls-4" d="M4.57,34.78l0,.21a2,2,0,0,0,.6-.12,2.19,2.19,0,0,0,1-.62A2.69,2.69,0,0,0,5,34.51,2,2,0,0,0,4.57,34.78Z"/><path class="cls-4" d="M9.06,31.63a2.28,2.28,0,0,0,.45.2,2.31,2.31,0,0,0,1.25.07,2.55,2.55,0,0,0-1.15-.45,3.62,3.62,0,0,0-.46,0Z"/><path class="cls-4" d="M2.24,32.52a3,3,0,0,0,.29,1,.49.49,0,0,0,.12-.13,1.38,1.38,0,0,0,.18-1.41h0l-.21-.31a.73.73,0,0,0-.09.08l-.08.07A1.08,1.08,0,0,0,2.24,32.52Z"/><path class="cls-4" d="M0,29.2a1.31,1.31,0,0,0,.79.4,2.06,2.06,0,0,0,.36,0,2,2,0,0,0-.29-.4,2.29,2.29,0,0,0-.82-.52Z"/><path class="cls-4" d="M.29,30.87a5.54,5.54,0,0,0,.36.85,1.45,1.45,0,0,0,.71-.17A4,4,0,0,0,.29,30.87Z"/><path class="cls-4" d="M1.14,26.17h0a4.86,4.86,0,0,0,1,1A1.82,1.82,0,0,0,1.5,25.8,4.17,4.17,0,0,0,1.14,26.17Z"/><path class="cls-4" d="M14.33,30.22a2.16,2.16,0,0,0-.41-.74,2,2,0,0,1-.37-.75.67.67,0,0,1,.31-.73C13.8,28,14.52,29.49,14.33,30.22Z"/><path class="cls-5" d="M19.14,37.33l0,0a.3.3,0,0,1,.33-.23c-.12,0,0,0,.05,0a.37.37,0,0,1,.18.08.34.34,0,0,1,.13.16.44.44,0,0,1,0,.52.35.35,0,0,1-.49,0A.45.45,0,0,1,19.14,37.33Z"/><path class="cls-5" d="M18.28,33.49a.74.74,0,0,1-.08-.41.45.45,0,0,1,.13-.23.38.38,0,0,1,.23-.11.71.71,0,0,1,.45.12.54.54,0,0,1,.2.5.6.6,0,0,1-.13.25.33.33,0,0,1-.37.22.62.62,0,0,1-.39-.26.3.3,0,0,1,0-.08Z"/><path class="cls-5" d="M18.21,28.35a.44.44,0,0,1,.26-.24.37.37,0,0,1,.39.06.76.76,0,0,1,.17.23.57.57,0,0,1,0,.29.44.44,0,0,1-.35.37.58.58,0,0,1-.26,0,.43.43,0,0,1-.28-.35.17.17,0,0,1,0-.1A.38.38,0,0,1,18.21,28.35Z"/><path class="cls-5" d="M14,29.68a.3.3,0,0,1,.39-.2c.37.06.91.79.42,1.05S13.84,30.06,14,29.68Z"/><path class="cls-5" d="M16.83,36.08a.51.51,0,0,1,.3-.17.62.62,0,0,1,.27.05.65.65,0,0,1,.35.3.53.53,0,0,1,0,.6.5.5,0,0,1-.58.16h0l-.06,0a.49.49,0,0,1-.22-.18.54.54,0,0,1-.12-.46A.48.48,0,0,1,16.83,36.08Z"/><path class="cls-5" d="M19.6,40.1s.06-.07.08-.09A.37.37,0,0,1,20,40a.37.37,0,0,1,.25.21.57.57,0,0,1,.08.13.37.37,0,0,1,0,.34.36.36,0,0,1-.28.18.43.43,0,0,1-.33-.09.47.47,0,0,1-.1-.1.4.4,0,0,1-.1-.23v-.11A.34.34,0,0,1,19.6,40.1Z"/><path class="cls-5" d="M17.74,39.25a.4.4,0,0,1,.12-.34.41.41,0,0,1,.34-.1.72.72,0,0,1,.4.24.75.75,0,0,1,.13.37.37.37,0,0,1,0,.18.34.34,0,0,1-.07.15.56.56,0,0,1-.29.16.55.55,0,0,1-.44-.16.5.5,0,0,1-.13-.34s0,0,0-.06A.44.44,0,0,1,17.74,39.25Z"/><path class="cls-5" d="M12.79,31.56a.6.6,0,0,0,.14.45h0a.65.65,0,0,0,.21.16.37.37,0,0,0,.39,0h0l.07-.09h0a.64.64,0,0,0,.16-.2.27.27,0,0,0,0-.15.53.53,0,0,0-.45-.6.52.52,0,0,0-.49.22h0A.68.68,0,0,0,12.79,31.56Z"/><path class="cls-5" d="M20.73,34.37a.61.61,0,0,0,.34.61.38.38,0,0,0,.33,0c-.06-.37-.13-.74-.21-1.09A.59.59,0,0,0,20.73,34.37Z"/><path class="cls-5" d="M8.63,31.55a.47.47,0,0,0,.08.14h0l0,.05h0a.46.46,0,0,0,.13.18A.33.33,0,0,0,9,32a.45.45,0,0,0,.34,0,.43.43,0,0,0,.2-.15.67.67,0,0,0,.1-.23v-.15a.5.5,0,0,0-.27-.35A.7.7,0,0,0,9.15,31a.42.42,0,0,0-.25,0h0a.38.38,0,0,0-.18.09.53.53,0,0,0-.11.21A.34.34,0,0,0,8.63,31.55Z"/><path class="cls-5" d="M10.79,30.82a.43.43,0,0,0,.11.21.41.41,0,0,0,.33.13l.13,0a.57.57,0,0,0,.13-.08l0-.05a.38.38,0,0,0,0-.46.1.1,0,0,0,0-.05.24.24,0,0,0-.08-.09.46.46,0,0,0-.27-.09.53.53,0,0,0-.12,0,.35.35,0,0,0-.17.12A.45.45,0,0,0,10.79,30.82Z"/><path class="cls-5" d="M9.8,33.72l.15.21a.35.35,0,0,0,.42.12.33.33,0,0,0,.17-.14.29.29,0,0,0,.05-.13v-.1a.28.28,0,0,0,0-.09.61.61,0,0,0-.07-.14l0-.1a.33.33,0,0,0-.06-.1.38.38,0,0,0-.6.47Z"/><path class="cls-5" d="M5.36,31.69a.48.48,0,0,0,.18.33.47.47,0,0,0,.22.09h.18A.49.49,0,0,0,6.17,32h0a.44.44,0,0,0,.15-.18.37.37,0,0,0,0-.15h0a.45.45,0,0,0,0-.16.48.48,0,0,0-.92-.11A.45.45,0,0,0,5.36,31.69Z"/><path class="cls-5" d="M5.15,29.51a.43.43,0,0,0,.1.29.38.38,0,0,0,.11.11l0,0,.09.06h0a.45.45,0,0,0,.23,0A.44.44,0,0,0,6,29.74l0-.06a.11.11,0,0,1,0-.05s0,0,0-.06a.43.43,0,0,0,0-.16.24.24,0,0,1,0-.08.51.51,0,0,0-.19-.22.35.35,0,0,0-.17-.06H5.58a.64.64,0,0,0-.24.1A.48.48,0,0,0,5.15,29.51Z"/><path class="cls-5" d="M8.3,34.36a.36.36,0,0,0,.3.06l.11,0a.35.35,0,0,0,.12-.15.54.54,0,0,0,0-.22h0a.22.22,0,0,0,0-.08.37.37,0,0,0-.07-.14h0l-.57-.21a.43.43,0,0,0-.15.2A.59.59,0,0,0,8.3,34.36Z"/><path class="cls-5" d="M9.2,36.65a1,1,0,0,0,.07.15l.71.05,0,0a.46.46,0,0,0,0-.2.24.24,0,0,0-.09-.17h0a.38.38,0,0,0-.06-.13.65.65,0,0,0-.16-.13.39.39,0,0,0-.52.46Z"/><path class="cls-5" d="M6.91,35.14a.82.82,0,0,0,.12.25l.12.12a.51.51,0,0,0,.16.09.7.7,0,0,0,.14,0h.11l.05,0a.25.25,0,0,0,.12-.08.36.36,0,0,0,.12-.31.52.52,0,0,0,0-.11A.83.83,0,0,0,7.76,35a.19.19,0,0,0,0-.09.82.82,0,0,0-.17-.2.37.37,0,0,0-.14-.07.42.42,0,0,0-.31,0l0,0A.41.41,0,0,0,6.91,35.14Z"/><path class="cls-5" d="M3.89,32.9a1,1,0,0,0,.32.63.42.42,0,0,0,.58-.06.53.53,0,0,0,0-.59v0a.06.06,0,0,1,0,0l0,0a.76.76,0,0,0-.09-.18.43.43,0,0,0-.29-.18.47.47,0,0,0-.23,0A.45.45,0,0,0,3.89,32.9Z"/><path class="cls-5" d="M4.46,35.25a.67.67,0,0,0,.23.1.43.43,0,0,0,.25,0,.38.38,0,0,0,.21-.24.78.78,0,0,0,0-.14.21.21,0,0,0,0-.08A.42.42,0,0,0,5,34.51a.44.44,0,0,0-.25-.08.45.45,0,0,0-.44.28A.47.47,0,0,0,4.46,35.25Z"/><path class="cls-5" d="M2.28,31.3a.69.69,0,0,0,.17.48l.09.08a.41.41,0,0,0,.24.08h.05c.59-.06.37-1.31-.32-1l0,0A.36.36,0,0,0,2.28,31.3Z"/><path class="cls-5" d="M.83,29.66A.43.43,0,0,1,1,29.13a.46.46,0,0,1,.63.1,1,1,0,0,1,.12.2.5.5,0,0,1,.15.46.37.37,0,0,1-.15.24.4.4,0,0,1-.28.07A.93.93,0,0,1,1,29.92s0,0,0,0a.76.76,0,0,1-.08-.11h0l-.05-.08v0Z"/><path class="cls-5" d="M.44,27.3a.52.52,0,0,0,.18.33.45.45,0,0,0,.54,0,.43.43,0,0,0,.18-.29.33.33,0,0,0,0-.14.86.86,0,0,0,0-.16.45.45,0,0,0-.2-.27.41.41,0,0,0-.39,0h0A5.77,5.77,0,0,0,.44,27.3Z"/><path class="cls-5" d="M10.53,25.82l.06-.1.08-.07.08,0a.34.34,0,0,1,.14,0H11l.12,0h0a.44.44,0,0,1,.15.12l0,0a.47.47,0,0,1,.08.34l0,.11a.27.27,0,0,1-.09.12.49.49,0,0,1-.23.11.44.44,0,0,1-.43-.18A.43.43,0,0,1,10.5,26,.42.42,0,0,1,10.53,25.82Z"/><path class="cls-5" d="M15,28.26a.66.66,0,0,1,.11-.26c.41-.58,1.15-.09,1.21.5C16.47,29.56,14.89,29.25,15,28.26Z"/><path d="M13.71,34a7.64,7.64,0,0,0,1.87-.8c.21-.11.42-.24.62-.36l.49-.31a5.46,5.46,0,0,0,2.14-2.3.15.15,0,0,0-.27-.12A5.64,5.64,0,0,1,16.84,32l0,0h0l-.24.18-.11.08-.49.35c-.19.14-.39.27-.59.4a6,6,0,0,1-1.7.79C13.59,33.88,13.62,34,13.71,34Z"/><path d="M3.41,30.21a10.44,10.44,0,0,0,3.87,2.91A16.26,16.26,0,0,0,9.65,34c.82.22,1.63.27,2.45.42.12,0,.13.18,0,.19a8.59,8.59,0,0,1-2.55-.33,11.25,11.25,0,0,1-2.46-.87,13.5,13.5,0,0,1-4.08-3C2.85,30.18,3.24,30,3.41,30.21Z"/><path class="cls-6" d="M19.18,12a3.46,3.46,0,0,0,3.13-1.81,1.89,1.89,0,0,0-.73-2.31,2.09,2.09,0,0,0-2.5.27,4.72,4.72,0,0,0-.42-3.78,3.46,3.46,0,0,0-3.47-1.6,2.32,2.32,0,0,0-1.77,3,11.15,11.15,0,0,0-1-3.49A4.12,4.12,0,0,0,9.6,0,3,3,0,0,0,6.36,1.76,2.91,2.91,0,0,0,7.47,5.18a6.06,6.06,0,0,0-2.25-2,2.07,2.07,0,0,0-2.64.72A1.9,1.9,0,0,0,3.15,6a6,6,0,0,0,2,1.14,5,5,0,0,0-2.4-.45C1,6.93,1.29,9,2.52,9.71S15.92,12.29,19.18,12Z"/><path class="cls-6" d="M18.87,13a3,3,0,0,1,.29.93c0,.4-.31.64-.55.33a2.58,2.58,0,0,1-.33-1.07C18.2,12.78,18.72,12.62,18.87,13Z"/><path class="cls-6" d="M15.51,12.53c.38.48.65,1.75.09,1.88-.74.16-.61-1.23-.69-1.69a.33.33,0,0,1,.36-.37A.42.42,0,0,1,15.51,12.53Z"/><path class="cls-6" d="M16,16.51c.24-.65.64.22.72.49a.89.89,0,0,1,.06.66.35.35,0,0,1-.58.13.89.89,0,0,1-.2-.63,1.67,1.67,0,0,1,0-.63Z"/><path class="cls-6" d="M18.5,21.23c0-.17-.17-.8.06-.88.41-.15.8,1,.83,1.29s-.06.54-.29.58c-.44.09-.54-.55-.58-.86A.39.39,0,0,1,18.5,21.23Z"/><path class="cls-6" d="M7,11.59c0-.22,0-.54.27-.51s.26.27.33.45a4.17,4.17,0,0,1,.18.63.36.36,0,1,1-.69.18A3.75,3.75,0,0,1,7,11.59Z"/><path class="cls-6" d="M11.62,12.18l.08.09a4.42,4.42,0,0,1,.37,1.28c.09.44-.65.56-.72.12S11,11.48,11.62,12.18Z"/><path class="cls-6" d="M4.12,11.75a1.37,1.37,0,0,1,.1-.54.2.2,0,0,1,.32,0,1.42,1.42,0,0,1,.25.49,1,1,0,0,1,.11.64.39.39,0,0,1-.7.09A1.07,1.07,0,0,1,4.12,11.75Z"/><path class="cls-6" d="M20.57,24.64c.25-.31.46.09.54.34s.38.87.11,1.11-.7-.49-.75-.75a.89.89,0,0,1,.08-.68Z"/><path class="cls-6" d="M18.19,25.62c0-.11,0-.22-.05-.32s0-.2,0-.31c0-.41.36-.51.54-.14,0,.09.09.18.14.27s.08.2.11.3A.77.77,0,0,1,19,26a.38.38,0,0,1-.22.24.37.37,0,0,1-.32-.09A.84.84,0,0,1,18.19,25.62Z"/><path class="cls-6" d="M1.84,18.46a2.57,2.57,0,0,1,0-.56c0-.23.31-.54.47-.17a3.09,3.09,0,0,1,.38,1A.38.38,0,0,1,2,19,1,1,0,0,1,1.84,18.46Z"/><path class="cls-6" d="M2.49,13.7c0-.16.28-.26.4-.12a1.49,1.49,0,0,1,.23.43,2,2,0,0,1,.17.47.4.4,0,1,1-.77.22,2.29,2.29,0,0,1,0-.52A1.91,1.91,0,0,1,2.49,13.7Z"/><path class="cls-6" d="M.78,22.85c0-.12.24-.13.26,0a3,3,0,0,1,.42,1.28.35.35,0,1,1-.69.1A3,3,0,0,1,.78,22.85Z"/><path class="cls-6" d="M19.39,16.85l.12.17c.25.39.7,1.28,0,1.46-.4.11-.6-.28-.69-.67s-.38-1.19.21-1.15A.47.47,0,0,1,19.39,16.85Z"/><path class="cls-6" d="M0,19.83c0-.23.31-.24.44-.1a2.27,2.27,0,0,1,.39,1.32.35.35,0,0,1-.7.06c0-.22-.05-.44-.08-.66A2.14,2.14,0,0,1,0,19.83Z"/><path class="cls-6" d="M8.13,20.74c0-.15,0-.26.16-.27s.4.41.44.55a1.68,1.68,0,0,1,.07.77c-.15.42-.34.06-.44-.17A2.9,2.9,0,0,1,8.13,20.74Z"/><path d="M8.67,14.21c.09.28.19.55.28.83a8.08,8.08,0,0,1-.2-.85A.13.13,0,0,1,9,14.13a22.69,22.69,0,0,0,2.71,5.13.14.14,0,1,1-.23.17,19.84,19.84,0,0,1-2.1-3.3c.12.27.24.55.38.81a14.07,14.07,0,0,0,1.73,2.52c.06.07-.06.18-.12.11a10.19,10.19,0,0,1-2.88-5.31A.1.1,0,0,1,8.67,14.21Z"/><path d="M16.49,20.94c-.74-1.28-1.86-2.5-1.84-4.07,0-.06.1-.08.1,0a5.79,5.79,0,0,0,1,2.68c.44.73,1,1.37,1.41,2.13a4.29,4.29,0,0,1,.4,2.44,2.81,2.81,0,0,1-.86,2c-.16.11-.33-.13-.17-.23.73-.47.87-1.73.85-2.52A5.26,5.26,0,0,0,16.49,20.94Z"/><path d="M2.49,21.17a16.11,16.11,0,0,0,.9-3.47A5.25,5.25,0,0,1,4.61,15c.09-.09.25,0,.16.13C3.42,16.7,3.65,18.86,3,20.67a7.33,7.33,0,0,0-.89,3A2.92,2.92,0,0,0,3.4,25.82c.17.12,0,.38-.21.25a3.34,3.34,0,0,1-1.34-1.93A4.78,4.78,0,0,1,2.49,21.17Z"/><path d="M10.76,21.16c.11-.8.15-1.59.22-2.39,0-.08.14-.08.14,0a22.8,22.8,0,0,1-.4,3.95c-.2,1.25-.3,2.71.69,3.68.09.09,0,.25-.13.16a3.66,3.66,0,0,1-.89-3.16C10.48,22.65,10.66,21.91,10.76,21.16Z"/><path d="M10.83,22.13c.05-.14.29-.07.26.08a4.73,4.73,0,0,0,1.29,4.68c.12.12,0,.32-.16.21A4.55,4.55,0,0,1,10.83,22.13Z"/><path d="M11.92,24.55A7.24,7.24,0,0,0,12.36,26a2.51,2.51,0,0,0,1.09,1.12c.1.06.07.25-.07.22-1.18-.26-1.69-1.71-1.8-2.76C11.55,24.37,11.87,24.35,11.92,24.55Z"/><path d="M14.05,18.25a8.67,8.67,0,0,1,3.32,5.32c0,.11-.16.13-.18,0-.31-2.14-1.77-3.74-3.29-5.16A.12.12,0,0,1,14.05,18.25Z"/><path d="M2.27,22.62a13,13,0,0,1,.61-1.37,9.83,9.83,0,0,0,.58-1.84c0-.12.24-.11.23,0A9.07,9.07,0,0,1,2.74,22a3.46,3.46,0,0,0-.16,2.93c.09.16-.15.31-.23.15A3,3,0,0,1,2.27,22.62Z"/><path class="cls-2" d="M3.62,26.58a.39.39,0,0,0-.34-.09.31.31,0,0,0-.16.36,2.11,2.11,0,0,0,.16.34c-.24-.05-.37-.45-.64-.4a.36.36,0,0,0-.22.42,1.29,1.29,0,0,0,.25.44.75.75,0,0,1,.19.46c0-.21-.6-.69-.8-.59-.36.2.16.85.3,1-.15-.1-.32-.46-.49-.16s.45,1.2.7,1.44A1.46,1.46,0,0,0,4,30.2C5.8,29.6,4.59,27.27,3.62,26.58Z"/><path class="cls-2" d="M12.8,36.76a.5.5,0,0,0,.37.09.27.27,0,0,0,.12-.37.89.89,0,0,0-.3-.31.59.59,0,0,0,.63.31A.53.53,0,0,0,14,36a.55.55,0,0,0-.48-.49.45.45,0,0,0,.73-.09.49.49,0,0,0-.42-.63.23.23,0,0,0,.35,0,.32.32,0,0,0-.06-.37,1.07,1.07,0,0,0-.35-.23,3.65,3.65,0,0,0-.92-.35A1.15,1.15,0,0,0,12,34a1.1,1.1,0,0,0-.35.69C11.4,35.77,11.86,36.22,12.8,36.76Z"/></g></g></svg>