<svg xmlns="http://www.w3.org/2000/svg" viewBox="0 0 27.28 30.68"><defs><style>.cls-1{fill:#2435d2;}.cls-2{fill:#d4ac20;}.cls-3{fill:#f2bba7;}.cls-4{fill:#040500;}.cls-5{fill:#fff;}.cls-6{fill:#e77f71;}.cls-7{fill:#ed4030;}</style></defs><g id="Layer_2" data-name="Layer 2"><g id="Layer_1-2" data-name="Layer 1"><path d="M10.16,30.66c-.09-.7-.22-1.41-.28-2.11-.07-1-.05-2-.1-2.94,0-.13-.49-.2-.52-.06a28.48,28.48,0,0,0,.3,5.12Z"/><path class="cls-1" d="M6.33,1.41a1.05,1.05,0,0,0,.58-.17,6.88,6.88,0,0,1,1-.36A14.85,14.85,0,0,1,10,.47,26.62,26.62,0,0,1,14.36.31,21.21,21.21,0,0,1,18.64.9a15.65,15.65,0,0,1,2,.64,9.83,9.83,0,0,1,.93.43,2.07,2.07,0,0,0,.87.39,3.11,3.11,0,0,0,.88-.28A2.59,2.59,0,0,1,23.87,2c.31,0,.89-.08,1,.33s-.44.74-.74.91a4.27,4.27,0,0,1-.53.24c-.3.12-.26.26-.16.56a12.21,12.21,0,0,1,.71,4.28,14.5,14.5,0,0,1-.78,4.27c-.11.35-.23.69-.37,1a4.18,4.18,0,0,0-.31.76c-.06.27.07.4.3.52a2.58,2.58,0,0,1,.67.46A1.19,1.19,0,0,1,24,16.61c-.27.52-.88.35-1.28.11s-.82-.67-1.46-.55-1.39.32-2.09.5a15.63,15.63,0,0,1-2.73.4,5.14,5.14,0,0,1-1,0c-.39,0-.79.07-1.19.05A12,12,0,0,1,13,17c-.73-.09-1.46-.15-2.19-.28a23.8,23.8,0,0,1-4.23-1.22,5.56,5.56,0,0,1-.9-.39c-.2-.12-.43-.31-.68-.26s-.46.3-.66.44a2.53,2.53,0,0,1-.86.41,1,1,0,0,1-1.14-.47c-.2-.5.3-.93.66-1.18s.94-.38.85-.84-.2-.61-.24-.93-.06-.73-.07-1.1c0-.73-.06-1.47,0-2.2a20,20,0,0,1,.65-4.35,8.64,8.64,0,0,1,.32-1,1.25,1.25,0,0,0,.12-.94A4.07,4.07,0,0,1,4.08.81c0-.51.41-1,1-.74a2.25,2.25,0,0,1,.72.65c.15.19.23.47.42.62A.34.34,0,0,0,6.33,1.41Z"/><path class="cls-2" d="M21.26,19.9a2.1,2.1,0,0,0-.32-.6,4.27,4.27,0,0,0-.91-.78,11.23,11.23,0,0,0-3.9-1.61A32.75,32.75,0,0,0,12,16.25a7.46,7.46,0,0,0-3.12.26A19.74,19.74,0,0,0,7,17.24a8.46,8.46,0,0,0-1.75,1.07c-.16.12-.43.28-.5.47a1,1,0,0,0,0,.24l0,0a.16.16,0,0,0,.14.22c1.37.07,2.74.06,4.11.06a14.7,14.7,0,0,1,2.19.26c.74.1,1.49.06,2.23.1s1.53.12,2.3.19c1.37.13,2.12,0,3.49,0A9.78,9.78,0,0,0,21.26,19.9Z"/><path class="cls-1" d="M3.67,30.36a37,37,0,0,0,6.57.3c4.09-.07,8.16.05,12.24,0,1.56,0,3.19-.19,4.8-.24A29.45,29.45,0,0,0,25.41,23a6.07,6.07,0,0,0-1.92-2.67,4.24,4.24,0,0,0-.61-.36h0l-.29-.12a4.85,4.85,0,0,0-1.2-.26l-.3,0c-.28,0-.56,0-.84,0l-3.75.14a3.78,3.78,0,0,1-.47-.06l-.28,0c-.49-.07-1-.13-1.47-.16l-5.36-.21H5.69a11.3,11.3,0,0,0-1.42.1l-.26,0a5.49,5.49,0,0,0-.7.17l-.12,0h0a1.4,1.4,0,0,0-.5.16A1.73,1.73,0,0,0,2.3,20,4.73,4.73,0,0,0,1.09,21.8a12.47,12.47,0,0,0-.91,3.76C.06,26.78,0,28,0,29.26.92,30,2.93,30.23,3.67,30.36Z"/><path class="cls-3" d="M18.56,11.52a.21.21,0,0,0-.34.19.5.5,0,0,1-.25-.13c-.16-.17,0-.44,0-.63a4.73,4.73,0,0,0-.59-4.11A3.8,3.8,0,0,0,15,5.47a5.92,5.92,0,0,0-2.05.16,5.74,5.74,0,0,0-1.83.7A4.83,4.83,0,0,0,9.66,7.84a3.34,3.34,0,0,0-.48,1A10.69,10.69,0,0,0,9,10.25a1.12,1.12,0,0,1,0,.41c0-.07-.71-.07-.78-.05a1.07,1.07,0,0,0-.64.42c-.42.58.17,1.71.94,1.37.12-.05.26-.14.38-.11s.14.32.14.46a8.79,8.79,0,0,0,.18,1.77,8.89,8.89,0,0,0,.62,2.14,4.94,4.94,0,0,0,.49.9c.14.19.33.32.49.5a1.56,1.56,0,0,0,.14.19c.12.09.28.14.4.24a2.39,2.39,0,0,0,.78.47,2.72,2.72,0,0,0,1.78,0,3.85,3.85,0,0,0,1.6-1.09c.11-.13.23-.27.33-.41s.11-.26.19-.38a5.88,5.88,0,0,0,.52-.78,9.58,9.58,0,0,0,.66-1.86,5.2,5.2,0,0,1,.22-.84c.5-.18,1.07-.13,1.41-.6A1.15,1.15,0,0,0,18.56,11.52Z"/><path class="cls-3" d="M7.19,18.39a10.8,10.8,0,0,1,1.6.22c.25.09,1,.31,1,.6s-1.21.08-1.37.13c-.31.09-.32.6-.39.85a8,8,0,0,0-.09,1.55c0,.29.07,1.39-.58,1-.23-.13-.38-.83-.52-2.32-.12.67-.12,2.35-.21,2.5-.23.39-.61.49-.7-.07A7,7,0,0,1,6,20.77s-.32,1-.32,1c0,.38-.41,1.38-.92.93-.32-.28-.1-.9,0-1.24,0-.12.28-.88.28-1s-.48,1.14-.57,1.26-.52.26-.59-.1A2.83,2.83,0,0,1,4,20.57a7.63,7.63,0,0,1,.35-1.12,1.91,1.91,0,0,1,.47-.8,1.36,1.36,0,0,1,1-.31A9.81,9.81,0,0,1,7.19,18.39Z"/><path class="cls-3" d="M20.08,23.76a.26.26,0,0,1-.37-.15c-.15-.37.18-2.13,0-2s-.39,1.26-.61,1.58c-.05.07-.09.22-.18.25-.57.18-.39-.86-.34-1.12a6.63,6.63,0,0,1,.21-.88,2,2,0,0,0,.19-1,.75.75,0,0,0-.72-.51c-.14,0-1,.12-1-.06,0-.66,2.15-.74,2.52-.7,1.41.14,2.36.79,2.48,1.33a4.84,4.84,0,0,1,.19,2.44c0,.13-.1.26-.26.22s-.29-.3-.35-.48-.23-1.24-.25-1.23,0,.7,0,.71v.47c0,.15,0,1-.26,1-.45,0-.45-.33-.52-.63a13.86,13.86,0,0,1-.05-1.44A8.91,8.91,0,0,1,20.49,23a1.82,1.82,0,0,1-.22.63A.52.52,0,0,1,20.08,23.76Z"/><path class="cls-4" d="M15.1,7.51a.74.74,0,0,1,.66-.11,1.69,1.69,0,0,1,.81.46c.13.15.27.51,0,.61s-.58-.11-.8-.18S15,8,15,7.68A.3.3,0,0,1,15.1,7.51Z"/><path class="cls-4" d="M11.37,8.21c-.36-.23.27-.75.44-.87S13,6.81,13,7.39c0,.34-.32.54-.59.65a1.7,1.7,0,0,1-1,.19Z"/><path class="cls-5" d="M16.56,9.71a11.09,11.09,0,0,0-1.29,0c-.45,0-1.06.51-.61,1a1.5,1.5,0,0,0,1,.32,1.77,1.77,0,0,0,1.46-.48C17.42,10.09,17,9.73,16.56,9.71Z"/><path class="cls-5" d="M12.69,9.4a11.12,11.12,0,0,0-1.29,0c-.44,0-1.06.51-.6,1a1.48,1.48,0,0,0,1,.32,1.74,1.74,0,0,0,1.45-.48C13.56,9.78,13.11,9.42,12.69,9.4Z"/><path class="cls-4" d="M16.08,10.58a.62.62,0,0,1-.78-.49c-.05-.28.26-.35.48-.36s.67,0,.72.12A.53.53,0,0,1,16.08,10.58Z"/><path class="cls-4" d="M12.62,9.85c0,.49-1.13.46-1.22,0s1.07-.56,1.2-.08A.69.69,0,0,1,12.62,9.85Z"/><path class="cls-4" d="M10.21,13.79c.17-.07.34.05.27.35,0,.13-.17.43-.31.47S10,14.16,10,14A.36.36,0,0,1,10.21,13.79Z"/><path class="cls-4" d="M9.65,13c.15-.09.32,0,.28.21s-.34.75-.55.44.06-.45.18-.58A.28.28,0,0,1,9.65,13Z"/><path class="cls-4" d="M11.34,14.34c.16-.09.34,0,.3.32,0,.2-.29.57-.47.31A.45.45,0,0,1,11.34,14.34Z"/><path class="cls-4" d="M11.64,17.59l-.05,0c-.39-.14.05-.9.37-.57S11.91,17.62,11.64,17.59Z"/><path class="cls-4" d="M10.77,15.27c.25,0,.16.4.05.56-.23.35-.47,0-.38-.29A.33.33,0,0,1,10.77,15.27Z"/><path class="cls-4" d="M11.31,16c.13-.16.3-.23.38,0s0,.73-.33.67S11.14,16.25,11.31,16Z"/><path class="cls-4" d="M12.61,17.38l0,0c.18.11.12.41,0,.56s-.45.07-.43-.19S12.4,17.29,12.61,17.38Z"/><path class="cls-4" d="M16.92,13.63c-.06.11-.17.15-.33,0s-.27-.7.11-.61S17,13.45,16.92,13.63Z"/><path class="cls-4" d="M13,17a.24.24,0,0,1-.22.06c-.45-.13-.06-.95.24-.66A.53.53,0,0,1,13,17Z"/><path class="cls-4" d="M15.65,17c-.07,0-.16,0-.26-.11-.34-.39.29-.85.38-.23A.34.34,0,0,1,15.65,17Z"/><path class="cls-4" d="M14,16.62a.41.41,0,0,1,0,.46.25.25,0,0,1-.44-.15c0-.21.17-.58.4-.34Z"/><path class="cls-4" d="M16.11,13.91c.23-.13.35.15.32.33-.06.34-.4.36-.48,0A.34.34,0,0,1,16.11,13.91Z"/><path class="cls-4" d="M13.29,17.61a.23.23,0,0,1,.4,0c.1.18,0,.57-.28.44A.35.35,0,0,1,13.29,17.61Z"/><path class="cls-4" d="M10.43,16.8c-.09.08-.26.15-.35.07s0-.32,0-.42.2-.23.33-.1a.33.33,0,0,1,0,.37A.35.35,0,0,1,10.43,16.8Z"/><path class="cls-4" d="M15.94,15.92c-.16.14-.42.05-.29-.53C15.71,15.1,16.3,15.61,15.94,15.92Z"/><path class="cls-4" d="M11.54,18.45a.32.32,0,0,1,.15-.51c.33-.09.35.3.16.47S11.61,18.52,11.54,18.45Z"/><path class="cls-4" d="M14.66,17.42c0-.21.08-.44.33-.28s.18.5-.05.54S14.68,17.57,14.66,17.42Z"/><path class="cls-4" d="M12.73,18.38c.06-.32.38-.27.45,0S12.65,18.87,12.73,18.38Z"/><path class="cls-4" d="M14.56,16.08c.23-.3.54.41.23.5S14.42,16.26,14.56,16.08Z"/><path class="cls-4" d="M14.13,17.74c.27-.31.65.66.11.48A.34.34,0,0,1,14.13,17.74Z"/><path class="cls-4" d="M16.28,15c.27-.32.64.66.11.47A.33.33,0,0,1,16.28,15Z"/><path class="cls-6" d="M8.91,14l0-.41c0-.23,0-.9-.28-.95a.07.07,0,0,0-.06,0,1,1,0,0,1-1.09-.29,1.33,1.33,0,0,1-.19-1.06,1,1,0,0,1,.29-.47c.07-.07.51-.25.39,0-.05.12-.24.16-.3.28a1,1,0,0,0-.06.58c.09.57.5.59,1,.56.09,0,.27-.05.35,0s.09.24.11.39c0,.39.13.77.19,1.15.22,1.56.52,3.58,1.92,4.57a3.34,3.34,0,0,0,3.4.07,4,4,0,0,0,1.24-1.16,4.89,4.89,0,0,0,.46-.72c0-.1.37-.86.39-.48a6.69,6.69,0,0,1-.5,1.11,3.83,3.83,0,0,1-1.51,1.63,3.63,3.63,0,0,1-2.46.39,3.6,3.6,0,0,1-2.27-1.8A7.8,7.8,0,0,1,9.06,15,9.5,9.5,0,0,1,8.91,14Z"/><path class="cls-4" d="M10.5,17.48a.23.23,0,0,1,0-.07c0-.18.2-.39.38-.25S10.64,18,10.5,17.48Z"/><path class="cls-4" d="M13.44,9.59a1.37,1.37,0,0,0-1.14-1,1.59,1.59,0,0,0-1.48.44.06.06,0,0,0,.07.1c.75-.47,2-.53,2.37.47A.09.09,0,0,0,13.44,9.59Z"/><path class="cls-4" d="M17.05,9.45a1.72,1.72,0,0,0-2.6.27.06.06,0,0,0,.1.06c.53-.81,1.73-.66,2.46-.27A0,0,0,0,0,17.05,9.45Z"/><path class="cls-7" d="M10.63,9.46c.19-.2.57-.18.91-.18s.74,0,1.11,0,.76.1.86.48-.22.78-.38,1.1a3.81,3.81,0,0,1-.46.78c-.09.1-.29.34-.43.35-.33,0,.07-.42.13-.52s.54-.58.52-.89a1.51,1.51,0,0,1-.91.26c-.58,0-1.35-.1-1.46-.94A.52.52,0,0,1,10.63,9.46Zm.55,1a1.79,1.79,0,0,0,1.08.15c.27,0,1.17-.46.84-.82s-.78-.23-1.1-.23A2.33,2.33,0,0,0,11,9.67C10.66,9.85,10.87,10.26,11.18,10.45Z"/><path class="cls-7" d="M15.24,12c-.07.1-.28,0-.4-.11a3,3,0,0,1-.42-1.71c0-.19,0-.43.14-.54s.36,0,.53-.05a7,7,0,0,1,1.45,0c.2,0,.52.07.64.26.56.83-.87,1.3-1.28,1.28a2.64,2.64,0,0,1-1.05-.34c-.07,0,.05.44.05.48A3.68,3.68,0,0,0,15.24,12Zm1.61-1.39c.4-.37.33-.65-.33-.69-.29,0-1.68-.16-1.75.05a.67.67,0,0,0,.31.69A1.51,1.51,0,0,0,16.85,10.62Z"/><path class="cls-4" d="M13.72,14.29a1.49,1.49,0,0,1,1,.27c.16.1.61.46.23.62-.17.08-.34-.12-.48-.2a.91.91,0,0,0-.95-.09c-.26.15-.44.53-.65.74s-.25.27-.38.24c-.48-.11,0-.73.14-.88a2.85,2.85,0,0,1,.62-.53A1.2,1.2,0,0,1,13.72,14.29Z"/><path class="cls-6" d="M19,12.34c0-.14-.12-.44-.25-.5a.19.19,0,0,0-.1,0,.77.77,0,0,1,.1.84c-.28.61-1,.47-1.4.85l0,.11C18,13.64,19.05,13.21,19,12.34Z"/><path class="cls-6" d="M8.65,11.15A.46.46,0,0,0,8.12,11h0a.32.32,0,0,0-.21.4.58.58,0,0,0,.3.35.4.4,0,0,0,.42,0h0l.08-.08A.42.42,0,0,0,8.65,11.15Z"/><path class="cls-6" d="M18,12.13c-.67.11-.52,1.18.19.75a.64.64,0,0,0,.31-.47C18.46,12.17,18.17,12.1,18,12.13Z"/><path class="cls-4" d="M14.73,12.37a15,15,0,0,0-.54-1.64c0-.1-.23-.11-.22,0,.08.56.23,1.11.34,1.67,0,.25.1.57-.19.68a.71.71,0,0,1-.68,0c-.08-.06-.15-.17-.26-.18a.21.21,0,0,0-.21.26c.17.65,1.33.61,1.68.16A1.07,1.07,0,0,0,14.73,12.37Z"/><path class="cls-4" d="M9.91,15c.37-.11.29.7-.1.69s-.13-.6.07-.68Z"/><path class="cls-4" d="M21,7.13A1.45,1.45,0,0,0,19.69,6a2,2,0,0,0-.48-1.89,2.15,2.15,0,0,0-1.37-.62,2.42,2.42,0,0,0-.74,0,1.2,1.2,0,0,0-.25-.34.79.79,0,0,0-.37-.25,1.74,1.74,0,0,0-1.06,0,.54.54,0,0,0,.22-.13.1.1,0,0,0,0-.16c-.23-.05-.49.14-.66.27l-.2.21,0-.08-.19-.27a1.19,1.19,0,0,0-.21-.12,3.33,3.33,0,0,0-.63-.21,1,1,0,0,0-.48-.08s0,0,0,0l-.31-.08h-.08a2.07,2.07,0,0,0-.91.22,5.59,5.59,0,0,0-.6.3c-.06.08-.08.16-.19.19a.25.25,0,0,0-.13.12,1.38,1.38,0,0,0-.21.42h0a1.81,1.81,0,0,1,1.87-1.29A.12.12,0,0,0,12.67,2c-.42-.27-1.18.11-1.53.38a1.61,1.61,0,0,0-.61,1,1.87,1.87,0,0,0-1.59.17A2,2,0,0,0,8,5.44a.66.66,0,0,1-.12-.3,2.38,2.38,0,0,1,0-.8.11.11,0,0,0-.21-.06A1.47,1.47,0,0,0,7.8,5.6,1.69,1.69,0,0,0,6.27,6.8a1.63,1.63,0,0,0,.56,1.6,1.52,1.52,0,0,0-.16,1.9,1.79,1.79,0,0,0,2.16.55.11.11,0,0,0,.08-.1.18.18,0,0,1,0,.09,2.67,2.67,0,0,1,0,.4.6.6,0,0,0,.15.53c.2.16.4,0,.56-.18a1.5,1.5,0,0,0,.1-.52,3.35,3.35,0,0,1-.07-.77c0-.34.13-1.08.13-1.13a1.44,1.44,0,0,0,.85-.65A1.72,1.72,0,0,0,11,7.26a3.19,3.19,0,0,0,1.33-.72,1.42,1.42,0,0,0,1.16,0,2,2,0,0,0,.59-.34,1.55,1.55,0,0,1-.37.35.08.08,0,0,0,.08.13,1.23,1.23,0,0,0,.56-.52l.19.19a1,1,0,0,0,.4.24,2.25,2.25,0,0,0,.52.07,1.07,1.07,0,0,0,.67-.15l.07.07a1,1,0,0,0,.26.42c.07.06.12.16.19.2s.15.14.25.18a2.6,2.6,0,0,0,.42.15l.14,0a3.45,3.45,0,0,0,.23.92,1.36,1.36,0,0,0,.33.54l0,0c-.15,0-.48-.11-.49-.31,0,0-.07-.06-.08,0-.06.22.14.33.32.4a1.81,1.81,0,0,0,.31.09L18,9.35a1.4,1.4,0,0,0-.25.65c0,.15-.05.29-.07.44s-.05.39-.08.58c-.06.37-.61,1.33.18,1.15a1.46,1.46,0,0,1,.52-.34l.44.06c.23-.07.48-.14.72-.24a1,1,0,0,0,.34-.21,1.64,1.64,0,0,0,.41-.68,1.16,1.16,0,0,1,0-.18.9.9,0,0,0,0-.4c0-.14,0-.29-.07-.44A1.18,1.18,0,0,0,20,9.26h0a2,2,0,0,0,.46-1.85,2.93,2.93,0,0,0-.57-1.21,1.57,1.57,0,0,1,.95,1C20.9,7.26,21,7.22,21,7.13ZM7,10.28a1.31,1.31,0,0,1-.3-.6,3.15,3.15,0,0,0,.2.41l.4.44A1.42,1.42,0,0,1,7,10.28ZM6.79,7.05c-.12.41.21.78.41,1.11l-.06.06a.09.09,0,0,0-.1,0H7A1.32,1.32,0,0,1,6.77,8a1.29,1.29,0,0,1-.28-1.1A1.42,1.42,0,0,1,8,5.86s0,0,0,.06a1.45,1.45,0,0,0-.71.33A1.72,1.72,0,0,0,6.79,7.05Zm.75,3.6c.14,0,.29,0,.42.08A1.42,1.42,0,0,1,7.54,10.65Zm.43.08a3.71,3.71,0,0,1,.47,0A1.83,1.83,0,0,1,8,10.73ZM9.76,3.64a2.67,2.67,0,0,0-1,.58,2.59,2.59,0,0,0-.42.51,2.08,2.08,0,0,0-.23.53,2.58,2.58,0,0,0,0,.39h0a2,2,0,0,1,.82-1.78,1.69,1.69,0,0,1,1.59-.22v.13A.7.7,0,0,0,9.76,3.64Zm.16,5.25a7.35,7.35,0,0,0,.89-1.33A1.68,1.68,0,0,1,9.92,8.89Zm3.51-2.47a1.72,1.72,0,0,1-1,0l.07-.06a1.55,1.55,0,0,0,.57,0,3,3,0,0,0,.59-.24,3.07,3.07,0,0,1,.42-.17A1.5,1.5,0,0,1,13.43,6.42ZM17.2,3.74l0,0v0l.23,0ZM19.33,6l0,0V6l.1,0Zm.14-.16-.17,0v0a1,1,0,0,0,0-.42.5.5,0,0,1,0-.12A1.15,1.15,0,0,0,19,4.63a1.49,1.49,0,0,1-.24-.32,1.43,1.43,0,0,0-.31-.38.6.6,0,0,0-.3-.19l-.64-.1a3,3,0,0,1,.63.07,1.91,1.91,0,0,1,1,.63A1.63,1.63,0,0,1,19.47,5.88Zm.82,1.69a1.63,1.63,0,0,1-.12,1,2.86,2.86,0,0,1-.28.4.92.92,0,0,1-.15-.25l.14-.25c0-.09.07-.18.1-.26S20,8,20.05,8a1.51,1.51,0,0,0,0-.3,2.67,2.67,0,0,0,0-.4,1.67,1.67,0,0,0-.2-.62,1,1,0,0,0-.26-.39l0-.07A2.41,2.41,0,0,1,20.29,7.57Z"/><path class="cls-4" d="M5.47,19.4a4.31,4.31,0,0,0-.63,1.13c-.19.45-.31,1.21-.85,1.32a0,0,0,0,0,0,.07c.45.16.66-.47.79-.77a9.7,9.7,0,0,1,.87-1.62C5.72,19.43,5.55,19.3,5.47,19.4Z"/><path class="cls-4" d="M6.09,19.91a6.15,6.15,0,0,0-.42,1.54c-.1.39-.2,1.56-.86,1.29,0,0-.07.05,0,.08.33.35.74-.16.84-.46s.24-.79.35-1.19A4.68,4.68,0,0,0,6.27,20,.1.1,0,0,0,6.09,19.91Z"/><path class="cls-4" d="M6.78,20.05a5.94,5.94,0,0,0-.07,1.46c0,.22-.09,2.07-.63,1.64a.05.05,0,0,0-.07.08c.41.49.76-.39.82-.68a5.76,5.76,0,0,0,0-1.1A7.65,7.65,0,0,1,7,20.1.09.09,0,0,0,6.78,20.05Z"/><path class="cls-4" d="M8.46,19.27c-.21,0-.27.26-.32.44a4.48,4.48,0,0,0-.17,1c0,.34,0,.68,0,1,0,.18,0,.36,0,.54a.58.58,0,0,1,0,.29.49.49,0,0,1-.43.18s-.08.05,0,.08c.45.39.7-.24.75-.61s0-.85.07-1.27a5.38,5.38,0,0,1,.07-.69c0-.15.11-.69.29-.72S8.62,19.24,8.46,19.27Z"/><path class="cls-4" d="M18.73,22.4a5.23,5.23,0,0,1,.15-.66,3.43,3.43,0,0,0,.23-1.22.85.85,0,0,0-.52-.7,1.42,1.42,0,0,0-.5-.08c-.16,0-.73.19-.81,0a0,0,0,0,0-.07,0c0,.24.21.21.4.17.66-.12,1.41,0,1.28.88-.07.44-.24.88-.31,1.32,0,.26-.29,1.16.16,1.23v-.09C18.56,23.14,18.63,22.74,18.73,22.4Z"/><path class="cls-4" d="M20.11,23.67a.29.29,0,0,1-.16,0l0,0a.19.19,0,0,1-.07-.08,1.51,1.51,0,0,1-.05-.63c0-.22,0-.45,0-.67,0-.44.06-.88.08-1.32a0,0,0,0,0-.09,0,9,9,0,0,0-.19,1.8c0,.33-.11.94.25,1.14h.06c.14.06.27-.08.36-.2a.11.11,0,0,0,0-.05Z"/><path class="cls-4" d="M21.43,23.57h-.07a.35.35,0,0,1-.37-.3h0v0l0-.08c0-.11,0-.23,0-.35s-.05-.44-.06-.66a10.44,10.44,0,0,1,0-1.25c0-.08-.12-.08-.13,0,0,.34-.24,2.73.42,2.86a.3.3,0,0,0,.21,0,.09.09,0,0,0,.06-.06A.08.08,0,0,0,21.43,23.57Z"/><path class="cls-4" d="M22.23,23.06c-.09,0-.23-.24-.25-.3a1.87,1.87,0,0,1-.07-.22c-.05-.19-.09-.39-.13-.58-.06-.36-.08-.73-.15-1.1a.05.05,0,0,0-.1,0,6.55,6.55,0,0,0,.24,1.76c.06.25.2.74.55.62A.11.11,0,1,0,22.23,23.06Z"/><path class="cls-6" d="M19.06,23.1s0-.06,0-.09a.18.18,0,0,0-.16-.17.17.17,0,0,0-.17.14.28.28,0,0,0,0,.2.09.09,0,0,0,.06.06.15.15,0,0,0,.21,0,.32.32,0,0,0,0-.09Z"/><path class="cls-6" d="M20.28,23.32a.61.61,0,0,0-.05-.18.17.17,0,0,0-.23-.06.19.19,0,0,0-.08.15h0v0h0a.14.14,0,0,0,0,.14.18.18,0,0,0,.13.09.16.16,0,0,0,.13,0A.16.16,0,0,0,20.28,23.32Z"/><path class="cls-6" d="M21.44,23.17a.17.17,0,0,0-.18-.17.17.17,0,0,0-.17.17.19.19,0,0,0,.08.15l0,0a.09.09,0,0,0,.13,0l0,0A.16.16,0,0,0,21.44,23.17Z"/><path class="cls-6" d="M22.43,22.6a.2.2,0,0,0-.15-.13.18.18,0,0,0-.18.08.26.26,0,0,0,0,.21.22.22,0,0,0,.05.08h0l0,0v0a.1.1,0,0,0,.17,0l0,0h0a.17.17,0,0,0,.06-.06A.27.27,0,0,0,22.43,22.6Z"/><path class="cls-6" d="M5,22.05a.27.27,0,0,0-.29.33.4.4,0,0,0,.1.18.22.22,0,0,0,.3,0l.09-.11A.27.27,0,0,0,5,22.05Z"/><path class="cls-6" d="M6.48,22.62a.2.2,0,0,0-.36-.05.29.29,0,0,0,0,.24.33.33,0,0,0,.12.16.1.1,0,0,0,.13,0,.24.24,0,0,0,.09-.11l0-.07A.29.29,0,0,0,6.48,22.62Z"/><path class="cls-6" d="M7.67,22.18c0-.05-.12-.1-.19-.07a.17.17,0,0,0-.13.16.33.33,0,0,0,0,.14s0,0,0,0,0,0,0,0a.15.15,0,0,0,.14.11.18.18,0,0,0,.14-.11s0-.07,0-.12A.3.3,0,0,0,7.67,22.18Z"/><path class="cls-6" d="M4.24,21.11a.17.17,0,0,0-.19.08.61.61,0,0,0,0,.12.3.3,0,0,0,0,.13.14.14,0,0,0,.11.15.16.16,0,0,0,.18-.07.27.27,0,0,0,.06-.12.5.5,0,0,0,0-.13A.16.16,0,0,0,4.24,21.11Z"/></g></g></svg>