<svg xmlns="http://www.w3.org/2000/svg" viewBox="0 0 30.32 42.41"><defs><style>.cls-1{fill:#2d3cc7;}.cls-2{fill:#efac8d;}.cls-3{fill:#e77f71;}.cls-4{fill:#d4ac20;}</style></defs><g id="Layer_2" data-name="Layer 2"><g id="Layer_1-2" data-name="Layer 1"><path class="cls-1" d="M20.75,40.3a3.64,3.64,0,0,0-1.83-2.39,11.83,11.83,0,0,0-5.24-1.22C11,36.64,7,36.85,5.3,39a2.93,2.93,0,0,0-.57,2.09.93.93,0,0,0,.64.76,6.82,6.82,0,0,0,2.51.41c1,.06,1.9.09,2.85.1,2,0,3.95,0,5.92-.2a11.84,11.84,0,0,0,3-.48C20.52,41.41,20.8,40.88,20.75,40.3Z"/><path class="cls-2" d="M15.28,35.76s-.13.43-.25.85-.21.73-.24.81A2.19,2.19,0,0,1,13,39.22a2.55,2.55,0,0,1-2.14-.91,1.56,1.56,0,0,1-.24-.67,8.54,8.54,0,0,1,.13-2.5c0-.14,0-.24,0-.28.28.08.57.23.82.32a6.87,6.87,0,0,0,.88.27l.51.11A15,15,0,0,0,15.28,35.76Z"/><path class="cls-3" d="M15.28,35.76s-.13.43-.25.85a7.57,7.57,0,0,1-2.31,1,4.15,4.15,0,0,1-2,.06l-.09,0a8.54,8.54,0,0,1,.13-2.5c.58.1,1.16.22,1.74.31l.51.11A15,15,0,0,0,15.28,35.76Z"/><path class="cls-2" d="M19.61,21.78a2.29,2.29,0,0,0-.45-.86,1.66,1.66,0,0,0-.33-.15c.23.34.51.64.75,1Z"/><path class="cls-2" d="M21.31,25.94c-.17-.65-.7-1.05-1.67-.85,0-.67.06-1.81.09-2.48,0-.07,0-.13,0-.2l0-.2a3.31,3.31,0,0,0-.34-.52,9,9,0,0,1-.76-1L18,20.53a14.56,14.56,0,0,0-5.18-.34c-1.83.16-4.76.58-5.75,2.34,0,0,.27-.1.25-.06-.38.79-.06,2,0,2.87-.38-.11-1.7,0-1.5,1.6a1.42,1.42,0,0,0,1.54,1.21c0,.53.41,3,.47,3.35A5.21,5.21,0,0,0,13,36c1.33.1,5.51.6,6.37-3.85.06-.35.4-4.2.43-4.2A1.5,1.5,0,0,0,21.31,25.94Z"/><path d="M10.72,25.15c.16.36.94.11,1.19,0A2.22,2.22,0,0,0,13,24.68c.14-.16.08-.3-.13-.36C12.41,24.2,10.43,24.52,10.72,25.15Z"/><path d="M12.08,33a10.38,10.38,0,0,1,1.1-.57,4.34,4.34,0,0,1,1.23-.25,4.81,4.81,0,0,1,2.45.51.18.18,0,0,0,.19-.31,4.57,4.57,0,0,0-2.68-.65A4.81,4.81,0,0,0,13,32a3.26,3.26,0,0,0-1.24.64C11.57,32.86,11.83,33.17,12.08,33Z"/><path class="cls-3" d="M9.51,30.17a1.22,1.22,0,0,0,1.51.25,1.27,1.27,0,0,0,.17-1.71,1.89,1.89,0,0,0-1.31-.57.89.89,0,0,0-1,.87A1.6,1.6,0,0,0,9.51,30.17Z"/><path class="cls-3" d="M19.22,29.49c.21-.78-.16-1.15-.92-1.17a1.33,1.33,0,0,0-1.19,1.42c.05.63.55.69,1,.68A1.22,1.22,0,0,0,19.22,29.49Z"/><path d="M15.52,24.44a4.1,4.1,0,0,0,1,.52c.22.08.62.25.84.15a.23.23,0,0,0,.15-.25c-.08-.4-.72-.68-1.11-.78a1.37,1.37,0,0,0-.69-.07C15.47,24.06,15.27,24.26,15.52,24.44Z"/><path class="cls-3" d="M20.69,26.14A.43.43,0,0,0,20,26a1.57,1.57,0,0,0-.22,1.2c0,.26.5,0,.59-.12a1,1,0,0,0,.38-.85A.5.5,0,0,0,20.69,26.14Z"/><path d="M15.31,29.36a7.65,7.65,0,0,0-.48-1.25,6.5,6.5,0,0,1-.23-1.52c0-.09-.15-.12-.17,0a3.9,3.9,0,0,0,.23,2.08c.12.3.45.77.17,1.07s-.79.15-1.12,0a.22.22,0,1,0-.12.42,1.71,1.71,0,0,0,1.22,0A.83.83,0,0,0,15.31,29.36Z"/><path class="cls-3" d="M7.59,26.76a.7.7,0,0,0-.2-.39.5.5,0,0,0-.55,0,.45.45,0,0,0-.17.61.83.83,0,0,0,.44.38c.06,0,.44.19.47.06a3.11,3.11,0,0,0,0-.33A1.56,1.56,0,0,0,7.59,26.76Z"/><path d="M19.75,17.35a.28.28,0,0,0-.24-.32.32.32,0,0,0-.53-.17,3.9,3.9,0,0,1-2.39,1.05,9,9,0,0,1-2.76-.51c-1.7-.43-3.64-.29-4.81,1.18a3.52,3.52,0,0,0-.62,1.18v0A3.9,3.9,0,0,0,7.34,20a2.52,2.52,0,0,0-.93.68,3.06,3.06,0,0,0-.6,2.3c0,.36.12.69.14,1a3,3,0,0,0,.35,1.44.17.17,0,0,0,.18.05,3.89,3.89,0,0,1,.68-.13,1.62,1.62,0,0,1,.38,0c.34,0,.23,2,.26,2.34s.14.57.41.3a2.55,2.55,0,0,0,.4-1.49,8.77,8.77,0,0,0,0-.89,9.67,9.67,0,0,1-.1-1.86A3.82,3.82,0,0,1,9.46,22l.2.07a10,10,0,0,0,1.46.33,9.72,9.72,0,0,0,2.9,0A7.36,7.36,0,0,0,17,21.35c.64.14,1,.77,1.28,1.35a12.37,12.37,0,0,1,.59,1.46c0,.11.08,2.54.11,3.17,0,.35.56.46.63.09A8.92,8.92,0,0,0,19.72,26c0-.28-.06-.56,0-.85a13.54,13.54,0,0,0-.14-3.56A2.89,2.89,0,0,0,18.47,20l.09-.11A5.43,5.43,0,0,0,19.75,17.35ZM6.56,21.64a1.87,1.87,0,0,1,1.12-1.1,4.35,4.35,0,0,0-1,1.93,4.26,4.26,0,0,0-.07,1.38,3.94,3.94,0,0,0,.07.55h0a2.68,2.68,0,0,1-.07-.27c-.06-.29-.14-.58-.18-.87A3.31,3.31,0,0,1,6.56,21.64Zm8.34-3a4.44,4.44,0,0,0-3.05-.6A4.68,4.68,0,0,0,9.33,19.1a2.65,2.65,0,0,1,.21-.26,3.5,3.5,0,0,1,2.21-1.1c1.73-.2,3.29.9,5,.76A6.59,6.59,0,0,1,14.9,18.64Z"/><path d="M12.6,25.83a.86.86,0,0,1-.62.5,2.5,2.5,0,0,1-.77-.09.16.16,0,0,0-.15.27c.55.55,1.53.11,2-.36C13.31,25.85,12.75,25.49,12.6,25.83Z"/><path d="M17,26a1.17,1.17,0,0,1-.76.08,2,2,0,0,1-.63-.4c-.13-.1-.31.06-.27.2a1.31,1.31,0,0,0,1.83.52C17.4,26.27,17.28,25.9,17,26Z"/><path class="cls-1" d="M3.6,13.71A4.3,4.3,0,0,1,.44,12.19c-.95-1.41-.24-3.47,1-4.58a3.91,3.91,0,0,1,3.49-1A2.8,2.8,0,0,1,7,9.49,11.43,11.43,0,0,1,9.27,2C10.11.86,11.34-.14,12.69,0,14.27.2,15.35,2,15.42,3.62A11.11,11.11,0,0,1,14.14,8.4,13.74,13.74,0,0,1,20,1.1,5.34,5.34,0,0,1,22.45.22a2.55,2.55,0,0,1,2.3,1.11,3.6,3.6,0,0,1-.17,3.35,8.06,8.06,0,0,1-4.9,4.23,8.53,8.53,0,0,1,7.84-1.17c1.53.54,3.1,2,2.75,3.63a2.81,2.81,0,0,1-1.73,1.93,7.36,7.36,0,0,1-2.59.45,110.46,110.46,0,0,1-12.07-.08C10.43,13.46,7.06,14.19,3.6,13.71Z"/><path class="cls-4" d="M3.75,14.62A8.89,8.89,0,0,1,6,15l-3.7,5,7-5-1.83-.66a31.24,31.24,0,0,1,2.33-2.52l-3.54-.1S4.39,13.79,3.75,14.62Z"/><path class="cls-4" d="M10.58,17.63l1.91.26a62,62,0,0,0-3.83,5.22q3.72-2.92,7.19-6.17L14,16.08a31,31,0,0,0,3.59-3.34c.05-.06-2.76-.32-2.76-.32Z"/><path class="cls-4" d="M20.2,16.2l2.44-.8a41.57,41.57,0,0,0-3.11,4.21,72,72,0,0,0,6.23-5.22H23.42c1-.89,2.07-1.74,3-2.72a16.11,16.11,0,0,0-2.4-.44Z"/></g></g></svg>